<svg width="138" height="60" viewBox="0 0 138 60" fill="none" xmlns="http://www.w3.org/2000/svg">
<path fill-rule="evenodd" clip-rule="evenodd" d="M29.7543 40.9607C43.505 40.9607 54.6661 45.2281 54.6661 50.4804C54.6661 55.7327 43.505 60.0001 29.7543 60.0001C16.0036 60.0001 4.84253 55.7327 4.84253 50.4804C4.84253 45.2281 15.9671 40.9607 29.7543 40.9607Z" fill="#FCFCFC"/>
<path fill-rule="evenodd" clip-rule="evenodd" d="M20.6718 30.8938C31.7599 30.8938 40.7325 33.2281 40.7325 36.0731C40.7325 38.9181 31.7599 41.2524 20.6718 41.2524C9.5837 41.2524 0.611084 38.9181 0.611084 36.0731C0.611084 33.2281 9.62018 30.8938 20.6718 30.8938Z" fill="#FCFCFC"/>
<path fill-rule="evenodd" clip-rule="evenodd" d="M33.511 21.4468C39.4562 21.4468 44.2343 23.7811 44.2343 26.6261C44.2343 29.4711 39.4198 31.8054 33.511 31.8054C27.5657 31.8054 22.7876 29.4711 22.7876 26.6261C22.7876 23.7811 27.6022 21.4468 33.511 21.4468Z" fill="#FCFCFC"/>
<path fill-rule="evenodd" clip-rule="evenodd" d="M38.6902 10.7236C38.6902 16.6688 36.3558 21.4469 33.5108 21.4469C30.6659 21.4469 28.3315 16.6324 28.3315 10.7236C28.3315 4.77831 30.6659 0.000205879 33.5108 0.000205879C36.3923 -0.0362682 38.6902 4.77831 38.6902 10.7236Z" fill="#F58220"/>
<path d="M60.5741 3.10046H60.0635V56.8997H60.5741V3.10046Z" fill="#FCFCFC"/>
<path d="M64.623 6.74787V3.10046H82.1671V6.74787H64.623ZM75.2005 9.2281V24.6931H71.5531V9.2281H75.2005Z" fill="#FCFCFC"/>
<path d="M120.137 25.2765C119.955 25.4224 116.563 28.5957 112.186 28.5957C104.672 28.5957 101.535 25.4224 98.7267 22.541C96.3559 20.1337 94.4957 18.2735 90.1553 18.2735H87.2739V24.6565H83.6265V3.06384H93.0733C97.3772 3.06384 100.879 6.4924 100.879 10.6504C100.879 13.1307 99.6021 15.3556 97.7054 16.7416C99.1279 17.6899 100.259 18.8206 101.316 19.9149C103.833 22.468 106.204 24.8753 112.186 24.8753C115.067 24.8753 117.547 22.5775 117.584 22.541L120.137 25.2765ZM97.2313 10.7234C97.2313 8.53495 95.3711 6.78419 93.0733 6.78419H87.2739V14.6991H93.0733C95.3711 14.6626 97.2313 12.8754 97.2313 10.7234Z" fill="#F58220"/>
<path d="M104.49 14.1521V3.13696H108.137V14.1521C108.137 15.7935 109.523 17.1065 111.274 17.1065C112.988 17.1065 114.41 15.7935 114.41 14.1521V3.13696H118.058V14.1521C118.058 17.7995 115.03 20.7539 111.274 20.7539C107.553 20.7539 104.49 17.7995 104.49 14.1521Z" fill="#FCFCFC"/>
<path d="M137.243 3.10046V6.74787H121.596V3.10046H137.243ZM135.42 15.1734V15.9029H121.596V12.2554H135.42V15.1734ZM121.596 21.0457H137.243V24.6931H121.596V21.0457Z" fill="#FCFCFC"/>
<path d="M76.1124 39.2098C76.1124 41.2523 74.4711 42.8937 72.4286 42.8937H65.6079V35.5259H72.0273C72.8662 35.5259 73.5957 34.8329 73.5957 33.9575C73.5957 33.1186 72.9027 32.3892 72.0273 32.3892H65.6079V30.2372H72.0273C74.0699 30.2372 75.7112 31.8785 75.7112 33.9211C75.7112 34.8694 75.3465 35.6718 74.7994 36.3284C75.6018 37.0214 76.1124 38.0791 76.1124 39.2098ZM73.9969 39.2098C73.9969 38.3709 73.3039 37.6414 72.4286 37.6414H67.7234V40.7417H72.4286C73.2675 40.7417 73.9969 40.0487 73.9969 39.2098Z" fill="#FCFCFC"/>
<path d="M82.4953 32.8635L78.1549 42.8938H75.8206L81.2917 30.2738H83.699L89.1701 42.8938H86.8357L82.4953 32.8635Z" fill="#FCFCFC"/>
<path d="M106.641 43.4045C106.532 43.4774 104.526 45.3376 101.389 45.3376C99.383 45.3376 97.9606 44.6811 96.611 44.061C95.225 43.4045 93.9119 42.8209 91.9059 42.8209C91.2493 42.8209 90.5563 42.8938 89.7539 43.0397V30.2738H91.9059V40.7054C94.4226 40.7054 96.0274 41.4349 97.5229 42.1279C98.7995 42.7115 99.8572 43.2221 101.426 43.2221C103.687 43.2221 105.182 41.8726 105.182 41.8726L106.641 43.4045Z" fill="#F58220"/>
<path d="M100.915 33.52L98.4709 40.596H96.2095L99.7839 30.2738H102.045L105.656 40.596H103.395L100.915 33.52Z" fill="#FCFCFC"/>
<path d="M118.204 30.2738V42.8938H116.052V39.5747L109.341 32.827V42.8938H107.225V30.2738H109.815L116.088 36.5838V30.2738H118.204Z" fill="#FCFCFC"/>
<path d="M119.663 36.4013C119.663 32.7904 122.69 29.8724 126.374 29.8724V32.0244C123.857 32.0244 121.815 33.994 121.815 36.4013C121.815 38.8451 123.857 40.7782 126.374 40.7782V42.9301C122.69 42.9301 119.663 40.0122 119.663 36.4013Z" fill="#FCFCFC"/>
<path d="M137.352 30.2738V32.4258H128.197V30.2738H137.352ZM136.295 37.3133V37.751H128.197V35.599H136.295V37.3133ZM128.197 40.7419H137.352V42.8938H128.197V40.7419Z" fill="#FCFCFC"/>
<path d="M69.0732 54.4926C67.6872 54.4926 66.6659 54.2008 66.0094 53.6537C65.4258 53.143 65.134 52.3771 65.134 51.3558C65.134 50.7357 65.2435 50.1886 65.4258 49.678L66.9213 49.4227C66.6659 49.9698 66.5565 50.5534 66.5565 51.1734C66.5565 51.9394 66.7389 52.523 67.1401 52.8512C67.5413 53.216 68.2343 53.3983 69.2191 53.3983H69.9486V49.5686C70.6051 49.4227 71.3346 49.3497 72.1006 49.3497C73.0124 49.3497 73.6325 49.5686 74.0337 49.9698C74.3984 50.3345 74.5443 50.9181 74.5443 51.6841V53.3619H75.4562V54.4561H73.1948V51.7935C73.1948 51.2828 73.1218 50.9181 72.9395 50.6993C72.7571 50.4804 72.4653 50.371 72.0276 50.371C71.8088 50.371 71.5535 50.4075 71.3346 50.444V54.4196H69.0732V54.4926ZM68.4167 56.6081C68.2708 56.754 68.1249 56.8269 67.9061 56.8269C67.7237 56.8269 67.5413 56.754 67.3954 56.6081C67.2495 56.4622 67.1766 56.2798 67.1766 56.0974C67.1766 55.9151 67.2495 55.7327 67.3954 55.5868C67.5413 55.4409 67.6872 55.3679 67.9061 55.3679C68.1249 55.3679 68.2708 55.4409 68.4167 55.5868C68.5626 55.7327 68.6355 55.9151 68.6355 56.0974C68.6355 56.2798 68.5626 56.4622 68.4167 56.6081ZM70.2039 56.6081C70.058 56.754 69.9121 56.8269 69.6933 56.8269C69.5109 56.8269 69.3285 56.754 69.1827 56.6081C69.0368 56.4622 68.9638 56.2798 68.9638 56.0974C68.9638 55.9151 69.0368 55.7327 69.1827 55.5868C69.3285 55.4409 69.4744 55.3679 69.6933 55.3679C69.8757 55.3679 70.058 55.4409 70.2039 55.5868C70.3498 55.7327 70.4228 55.9151 70.4228 56.0974C70.3863 56.2798 70.3498 56.4622 70.2039 56.6081Z" fill="#FCFCFC"/>
<path d="M75.3105 53.3616H75.7482C75.9671 53.3616 76.1859 53.3616 76.4048 53.3981C76.0765 53.0698 75.9306 52.5957 75.9306 51.9756C75.9306 51.2097 76.1859 50.5531 76.6966 50.079C77.2072 49.5683 77.8637 49.313 78.6662 49.313C79.4321 49.313 80.0522 49.5318 80.4899 49.9331C80.9276 50.3708 81.1464 50.9908 81.1464 51.8297C81.1464 52.5592 80.9275 53.1063 80.5263 53.4346C80.8181 53.3981 81.1099 53.3981 81.3288 53.3981H81.9124V54.4923H75.347V53.3616H75.3105ZM77.1707 48.4376C77.0248 48.2917 76.9519 48.1458 76.9519 47.927C76.9519 47.7081 77.0248 47.5623 77.1707 47.4164C77.3166 47.2705 77.4625 47.1975 77.6814 47.1975C77.9002 47.1975 78.0461 47.2705 78.192 47.4164C78.3379 47.5623 78.4108 47.7446 78.4108 47.927C78.4108 48.1094 78.3379 48.2917 78.192 48.4376C78.0461 48.5835 77.9002 48.6565 77.6814 48.6565C77.4625 48.6565 77.2801 48.5835 77.1707 48.4376ZM79.3592 52.9969C79.578 52.7416 79.6874 52.3768 79.6874 51.8662C79.6874 50.9179 79.2862 50.4072 78.5203 50.4072C78.192 50.4072 77.9002 50.5167 77.6814 50.7355C77.426 50.9908 77.3166 51.3556 77.3166 51.8297C77.3166 52.851 77.7178 53.3252 78.4838 53.3252C78.8485 53.3616 79.1403 53.2522 79.3592 52.9969ZM78.9215 48.4376C78.7756 48.2917 78.7026 48.1458 78.7026 47.927C78.7026 47.7081 78.7756 47.5623 78.9215 47.4164C79.0674 47.2705 79.2133 47.1975 79.4321 47.1975C79.6145 47.1975 79.7969 47.2705 79.9428 47.4164C80.0887 47.5623 80.1616 47.7446 80.1616 47.927C80.1616 48.1094 80.0887 48.2917 79.9428 48.4376C79.7969 48.5835 79.651 48.6565 79.4321 48.6565C79.2133 48.6565 79.0674 48.5835 78.9215 48.4376Z" fill="#FCFCFC"/>
<path d="M81.6934 53.3617H83.1888V49.459H84.6113V53.3617H86.0702V54.4559H81.6934V53.3617ZM83.1158 56.6079C82.9699 56.7538 82.8241 56.8267 82.6052 56.8267C82.4228 56.8267 82.2405 56.7538 82.0946 56.6079C81.9487 56.462 81.8757 56.2796 81.8757 56.0973C81.8757 55.9149 81.9487 55.7325 82.0946 55.5866C82.2405 55.4407 82.3864 55.3678 82.6052 55.3678C82.8241 55.3678 82.9699 55.4407 83.1158 55.5866C83.2617 55.7325 83.3347 55.9149 83.3347 56.0973C83.3347 56.2796 83.2617 56.462 83.1158 56.6079ZM84.9031 56.6079C84.7572 56.7538 84.6113 56.8267 84.3924 56.8267C84.2101 56.8267 84.0277 56.7538 83.8818 56.6079C83.7359 56.462 83.663 56.2796 83.663 56.0973C83.663 55.9149 83.7359 55.7325 83.8818 55.5866C84.0277 55.4407 84.1736 55.3678 84.3924 55.3678C84.5748 55.3678 84.7572 55.4407 84.9031 55.5866C85.049 55.7325 85.1219 55.9149 85.1219 56.0973C85.0854 56.2796 85.0125 56.462 84.9031 56.6079Z" fill="#FCFCFC"/>
<path d="M85.8879 53.3616H86.3256C86.5445 53.3616 86.7633 53.3616 86.9822 53.3981C86.6539 53.0698 86.508 52.5957 86.508 51.9756C86.508 51.2097 86.7633 50.5531 87.2739 50.079C87.7846 49.5683 88.4411 49.313 89.2436 49.313C90.0095 49.313 90.6296 49.5318 91.0673 49.9331C91.5049 50.3708 91.7238 50.9908 91.7238 51.8297C91.7238 52.5592 91.5049 53.1063 91.1037 53.4346C91.3955 53.3981 91.6873 53.3981 91.9062 53.3981H92.4897V54.4923H85.9244V53.3616H85.8879ZM87.7481 48.4376C87.6022 48.2917 87.5293 48.1458 87.5293 47.927C87.5293 47.7081 87.6022 47.5623 87.7481 47.4164C87.894 47.2705 88.0399 47.1975 88.2588 47.1975C88.4776 47.1975 88.6235 47.2705 88.7694 47.4164C88.9153 47.5623 88.9882 47.7446 88.9882 47.927C88.9882 48.1094 88.9153 48.2917 88.7694 48.4376C88.6235 48.5835 88.4776 48.6565 88.2588 48.6565C88.0399 48.6565 87.894 48.5835 87.7481 48.4376ZM89.9366 52.9969C90.1554 52.7416 90.2648 52.3768 90.2648 51.8662C90.2648 50.9179 89.8636 50.4072 89.0977 50.4072C88.7694 50.4072 88.4776 50.5167 88.2588 50.7355C88.0034 50.9908 87.894 51.3556 87.894 51.8297C87.894 52.851 88.2952 53.3252 89.0612 53.3252C89.4624 53.3616 89.7177 53.2522 89.9366 52.9969ZM89.5353 48.4376C89.3894 48.2917 89.3165 48.1458 89.3165 47.927C89.3165 47.7081 89.3894 47.5623 89.5353 47.4164C89.6812 47.2705 89.8271 47.1975 90.046 47.1975C90.2283 47.1975 90.4107 47.2705 90.5566 47.4164C90.7025 47.5623 90.7755 47.7446 90.7755 47.927C90.7755 48.1094 90.7025 48.2917 90.5566 48.4376C90.4107 48.5835 90.2648 48.6565 90.046 48.6565C89.8271 48.6565 89.6448 48.5835 89.5353 48.4376Z" fill="#FCFCFC"/>
<path d="M92.3071 53.3615H96.4286C96.4651 53.0698 96.4651 52.8144 96.4651 52.5591C96.4651 51.8661 96.3192 51.3555 95.991 51.0272C95.6627 50.6989 95.1156 50.5166 94.3496 50.5166C93.9484 50.5166 93.5472 50.553 93.1095 50.5895V49.4953C93.6201 49.4223 94.0578 49.3859 94.459 49.3859C95.6262 49.3859 96.5016 49.6412 97.0487 50.1883C97.5593 50.6989 97.8147 51.4649 97.8147 52.5226C97.8147 52.8144 97.8147 53.1062 97.7782 53.398H98.6171V54.4922H92.2341V53.3615H92.3071Z" fill="#FCFCFC"/>
<path d="M98.5081 53.3617H99.8211V46.9423H101.244V54.4559H98.5081V53.3617Z" fill="#FCFCFC"/>
<path d="M103.067 46.9423H104.489V54.4559H103.067V46.9423Z" fill="#FCFCFC"/>
<path d="M113.644 53.7266C113.644 55.8786 112.66 56.9363 110.653 56.9363C108.757 56.9363 107.845 55.9151 107.845 53.909C107.845 53.2525 107.918 52.6324 108.1 52.0123L109.559 51.757C109.34 52.45 109.267 53.143 109.267 53.7996C109.267 55.1856 109.778 55.8421 110.799 55.8421C111.784 55.8421 112.295 55.1491 112.295 53.7996V49.4591H113.717V53.7266H113.644ZM110.143 50.5898C109.997 50.444 109.924 50.2616 109.924 50.0792C109.924 49.8604 109.997 49.7145 110.143 49.5686C110.289 49.4227 110.471 49.3497 110.653 49.3497C110.872 49.3497 111.018 49.4227 111.164 49.5686C111.31 49.7145 111.383 49.8968 111.383 50.0792C111.383 50.2981 111.31 50.444 111.164 50.5898C111.018 50.7357 110.836 50.8087 110.653 50.8087C110.435 50.8087 110.252 50.7357 110.143 50.5898Z" fill="#FCFCFC"/>
<path d="M114.009 57.082L114.118 55.9513C114.41 56.0243 114.702 56.0608 114.994 56.0608C115.395 56.0608 115.65 55.9514 115.833 55.7325C116.052 55.5137 116.125 55.1124 116.125 54.5653V49.459H117.547V54.5289C117.547 56.3161 116.672 57.1915 114.921 57.1915C114.593 57.1915 114.301 57.155 114.009 57.082ZM116.307 48.3647C116.161 48.2189 116.088 48.0365 116.088 47.8541C116.088 47.6353 116.161 47.4894 116.307 47.3435C116.453 47.1976 116.635 47.1246 116.818 47.1246C117.036 47.1246 117.182 47.1976 117.328 47.3435C117.474 47.4894 117.547 47.6717 117.547 47.8541C117.547 48.0365 117.474 48.2189 117.328 48.3647C117.182 48.5106 117 48.5836 116.818 48.5836C116.635 48.5836 116.453 48.5106 116.307 48.3647Z" fill="#FCFCFC"/>
<path d="M119.225 46.9423H120.648V54.4559H119.225V46.9423Z" fill="#FCFCFC"/>
<path d="M121.851 57.0457L121.924 55.8786C122.471 55.988 123.018 56.061 123.602 56.061C124.842 56.061 125.462 55.5868 125.462 54.6385V54.4926H124.623C122.727 54.4926 121.778 53.6537 121.778 52.0123C121.778 51.2464 121.997 50.6263 122.471 50.1522C122.982 49.605 123.711 49.3497 124.623 49.3497C125.462 49.3497 126.192 49.4592 126.848 49.7145V53.3983H127.906V54.4926H126.848V54.529C126.848 55.3315 126.593 55.9515 126.082 56.4257C125.499 56.9363 124.66 57.1916 123.529 57.1916C122.945 57.1916 122.398 57.1187 121.851 57.0457ZM125.462 50.6263C125.207 50.4804 124.842 50.444 124.441 50.444C124.04 50.444 123.748 50.5898 123.493 50.8452C123.274 51.1005 123.164 51.4652 123.164 51.8664C123.164 52.8512 123.711 53.3619 124.769 53.3619H125.462V50.6263Z" fill="#FCFCFC"/>
<path d="M127.724 53.3616H129.219V49.4589H130.642V53.3616H131.59V54.4559H127.724V53.3616ZM128.307 48.4376C128.162 48.2917 128.089 48.1458 128.089 47.927C128.089 47.7081 128.162 47.5623 128.307 47.4164C128.453 47.2705 128.599 47.1975 128.818 47.1975C129.037 47.1975 129.183 47.2705 129.329 47.4164C129.475 47.5623 129.548 47.7446 129.548 47.927C129.548 48.1094 129.475 48.2917 129.329 48.4376C129.183 48.5835 129.037 48.6565 128.818 48.6565C128.636 48.6565 128.453 48.5835 128.307 48.4376ZM130.095 48.4376C129.949 48.2917 129.876 48.1458 129.876 47.927C129.876 47.7081 129.949 47.5623 130.095 47.4164C130.241 47.2705 130.386 47.1975 130.605 47.1975C130.788 47.1975 130.97 47.2705 131.116 47.4164C131.262 47.5623 131.335 47.7446 131.335 47.927C131.335 48.1094 131.262 48.2917 131.116 48.4376C130.97 48.5835 130.824 48.6565 130.605 48.6565C130.386 48.6565 130.241 48.5835 130.095 48.4376Z" fill="#FCFCFC"/>
<path d="M131.407 53.3617H132.72V46.9423H134.143V54.4559H131.407V53.3617Z" fill="#FCFCFC"/>
<path d="M135.967 46.9423H137.389V54.4559H135.967V46.9423Z" fill="#FCFCFC"/>
</svg>
