<svg width="410" height="351" viewBox="0 0 410 351" fill="none" xmlns="http://www.w3.org/2000/svg">
<path fill-rule="evenodd" clip-rule="evenodd" d="M386.4 15.5001C375.2 15.5001 366.2 12.0001 366.2 7.8001C366.2 3.5001 375.3 0.100098 386.4 0.100098C397.6 0.100098 406.6 3.6001 406.6 7.8001C406.6 12.0001 397.5 15.5001 386.4 15.5001Z" fill="#F58220"/>
<path fill-rule="evenodd" clip-rule="evenodd" d="M393.7 23.6002C384.7 23.6002 377.4 21.7002 377.4 19.4002C377.4 17.1002 384.7 15.2002 393.7 15.2002C402.7 15.2002 410 17.1002 410 19.4002C410 21.8002 402.7 23.6002 393.7 23.6002Z" fill="#F58220"/>
<path fill-rule="evenodd" clip-rule="evenodd" d="M383.3 31.3001C378.5 31.3001 374.6 29.4001 374.6 27.1001C374.6 24.8001 378.5 22.9001 383.3 22.9001C388.1 22.9001 392 24.8001 392 27.1001C392 29.4001 388.1 31.3001 383.3 31.3001Z" fill="#F58220"/>
<path fill-rule="evenodd" clip-rule="evenodd" d="M379.1 40C379.1 35.2 381 31.3 383.3 31.3C385.6 31.3 387.5 35.2 387.5 40C387.5 44.8 385.6 48.7 383.3 48.7C381 48.8 379.1 44.9 379.1 40Z" fill="#F58220"/>
<path fill-rule="evenodd" clip-rule="evenodd" d="M357.2 33.3C368.4 33.3 377.4 36.8 377.4 41C377.4 45.3 368.3 48.7 357.2 48.7C346 48.7 337 45.2 337 41C336.9 36.8 346 33.3 357.2 33.3Z" fill="#F58220"/>
<path fill-rule="evenodd" clip-rule="evenodd" d="M349.8 25.1001C358.8 25.1001 366.1 27.0001 366.1 29.3001C366.1 31.6001 358.8 33.5001 349.8 33.5001C340.8 33.5001 333.5 31.6001 333.5 29.3001C333.5 27.0001 340.8 25.1001 349.8 25.1001Z" fill="#F58220"/>
<path fill-rule="evenodd" clip-rule="evenodd" d="M360.2 17.3999C365 17.3999 368.9 19.2999 368.9 21.5999C368.9 23.8999 365 25.7999 360.2 25.7999C355.4 25.7999 351.5 23.8999 351.5 21.5999C351.5 19.2999 355.4 17.3999 360.2 17.3999Z" fill="#F58220"/>
<path fill-rule="evenodd" clip-rule="evenodd" d="M364.5 8.7C364.5 13.5 362.6 17.4 360.3 17.4C358 17.4 356.1 13.5 356.1 8.7C356.1 3.9 358 0 360.3 0C362.6 0 364.5 3.9 364.5 8.7Z" fill="#F58220"/>
<path fill-rule="evenodd" clip-rule="evenodd" d="M325.6 15.5001C314.4 15.5001 305.4 12.0001 305.4 7.8001C305.4 3.5001 314.5 0.100098 325.6 0.100098C336.8 0.100098 345.8 3.6001 345.8 7.8001C345.8 12.0001 336.8 15.5001 325.6 15.5001Z" fill="#F58220"/>
<path fill-rule="evenodd" clip-rule="evenodd" d="M332.9 23.6002C323.9 23.6002 316.6 21.7002 316.6 19.4002C316.6 17.1002 323.9 15.2002 332.9 15.2002C341.9 15.2002 349.2 17.1002 349.2 19.4002C349.2 21.8002 341.9 23.6002 332.9 23.6002Z" fill="#F58220"/>
<path fill-rule="evenodd" clip-rule="evenodd" d="M322.5 31.3001C317.7 31.3001 313.8 29.4001 313.8 27.1001C313.8 24.8001 317.7 22.9001 322.5 22.9001C327.3 22.9001 331.2 24.8001 331.2 27.1001C331.2 29.4001 327.3 31.3001 322.5 31.3001Z" fill="#F58220"/>
<path fill-rule="evenodd" clip-rule="evenodd" d="M318.3 40C318.3 35.2 320.2 31.3 322.5 31.3C324.8 31.3 326.7 35.2 326.7 40C326.7 44.8 324.8 48.7 322.5 48.7C320.2 48.8 318.3 44.9 318.3 40Z" fill="#F58220"/>
<path fill-rule="evenodd" clip-rule="evenodd" d="M296.4 33.3C307.6 33.3 316.599 36.8 316.599 41C316.599 45.3 307.5 48.7 296.4 48.7C285.2 48.7 276.199 45.2 276.199 41C276.199 36.8 285.2 33.3 296.4 33.3Z" fill="#F58220"/>
<path fill-rule="evenodd" clip-rule="evenodd" d="M289.099 25.1001C298.099 25.1001 305.4 27.0001 305.4 29.3001C305.4 31.6001 298.099 33.5001 289.099 33.5001C280.099 33.5001 272.8 31.6001 272.8 29.3001C272.8 27.0001 279.999 25.1001 289.099 25.1001Z" fill="#F58220"/>
<path fill-rule="evenodd" clip-rule="evenodd" d="M299.5 17.3999C304.3 17.3999 308.199 19.2999 308.199 21.5999C308.199 23.8999 304.3 25.7999 299.5 25.7999C294.7 25.7999 290.8 23.8999 290.8 21.5999C290.8 19.2999 294.7 17.3999 299.5 17.3999Z" fill="#F58220"/>
<path fill-rule="evenodd" clip-rule="evenodd" d="M303.699 8.7C303.699 13.5 301.8 17.4 299.5 17.4C297.2 17.4 295.3 13.5 295.3 8.7C295.3 3.9 297.2 0 299.5 0C301.8 0 303.699 3.9 303.699 8.7Z" fill="#F58220"/>
<path fill-rule="evenodd" clip-rule="evenodd" d="M264.8 15.5001C253.6 15.5001 244.6 12.0001 244.6 7.8001C244.6 3.5001 253.7 0.100098 264.8 0.100098C276 0.100098 285 3.6001 285 7.8001C285.1 12.0001 276 15.5001 264.8 15.5001Z" fill="#F58220"/>
<path fill-rule="evenodd" clip-rule="evenodd" d="M272.2 23.6002C263.2 23.6002 255.9 21.7002 255.9 19.4002C255.9 17.1002 263.2 15.2002 272.2 15.2002C281.2 15.2002 288.5 17.1002 288.5 19.4002C288.5 21.8002 281.2 23.6002 272.2 23.6002Z" fill="#F58220"/>
<path fill-rule="evenodd" clip-rule="evenodd" d="M261.7 31.3001C256.9 31.3001 253 29.4001 253 27.1001C253 24.8001 256.9 22.9001 261.7 22.9001C266.5 22.9001 270.4 24.8001 270.4 27.1001C270.5 29.4001 266.6 31.3001 261.7 31.3001Z" fill="#F58220"/>
<path fill-rule="evenodd" clip-rule="evenodd" d="M257.5 40C257.5 35.2 259.4 31.3 261.7 31.3C264 31.3 265.9 35.2 265.9 40C265.9 44.8 264 48.7 261.7 48.7C259.4 48.8 257.5 44.9 257.5 40Z" fill="#F58220"/>
<path fill-rule="evenodd" clip-rule="evenodd" d="M235.6 33.3C246.8 33.3 255.8 36.8 255.8 41C255.8 45.3 246.7 48.7 235.6 48.7C224.4 48.7 215.4 45.2 215.4 41C215.4 36.8 224.5 33.3 235.6 33.3Z" fill="#F58220"/>
<path fill-rule="evenodd" clip-rule="evenodd" d="M228.3 25.1001C237.3 25.1001 244.6 27.0001 244.6 29.3001C244.6 31.6001 237.3 33.5001 228.3 33.5001C219.3 33.5001 212 31.6001 212 29.3001C212 27.0001 219.3 25.1001 228.3 25.1001Z" fill="#F58220"/>
<path fill-rule="evenodd" clip-rule="evenodd" d="M238.7 17.3999C243.5 17.3999 247.4 19.2999 247.4 21.5999C247.4 23.8999 243.5 25.7999 238.7 25.7999C233.9 25.7999 230 23.8999 230 21.5999C230 19.2999 233.9 17.3999 238.7 17.3999Z" fill="#F58220"/>
<path fill-rule="evenodd" clip-rule="evenodd" d="M242.9 8.7C242.9 13.5 241 17.4 238.7 17.4C236.4 17.4 234.5 13.5 234.5 8.7C234.5 3.9 236.4 0 238.7 0C241 0 242.9 3.9 242.9 8.7Z" fill="#F58220"/>
<path fill-rule="evenodd" clip-rule="evenodd" d="M204 15.5001C192.8 15.5001 183.8 12.0001 183.8 7.8001C183.8 3.5001 192.9 0.100098 204 0.100098C215.2 0.100098 224.199 3.6001 224.199 7.8001C224.299 12.0001 215.2 15.5001 204 15.5001Z" fill="#F58220"/>
<path fill-rule="evenodd" clip-rule="evenodd" d="M211.4 23.6002C202.4 23.6002 195.099 21.7002 195.099 19.4002C195.099 17.1002 202.4 15.2002 211.4 15.2002C220.4 15.2002 227.699 17.1002 227.699 19.4002C227.699 21.8002 220.4 23.6002 211.4 23.6002Z" fill="#F58220"/>
<path fill-rule="evenodd" clip-rule="evenodd" d="M201 31.3001C196.2 31.3001 192.3 29.4001 192.3 27.1001C192.3 24.8001 196.2 22.9001 201 22.9001C205.8 22.9001 209.699 24.8001 209.699 27.1001C209.699 29.4001 205.8 31.3001 201 31.3001Z" fill="#F58220"/>
<path fill-rule="evenodd" clip-rule="evenodd" d="M196.8 40C196.8 35.2 198.7 31.3 201 31.3C203.3 31.3 205.199 35.2 205.199 40C205.199 44.8 203.3 48.7 201 48.7C198.7 48.8 196.8 44.9 196.8 40Z" fill="#F58220"/>
<path fill-rule="evenodd" clip-rule="evenodd" d="M174.9 33.3C186.1 33.3 195.1 36.8 195.1 41C195.1 45.3 186 48.7 174.9 48.7C163.7 48.7 154.7 45.2 154.7 41C154.6 36.8 163.7 33.3 174.9 33.3Z" fill="#F58220"/>
<path fill-rule="evenodd" clip-rule="evenodd" d="M167.5 25.1001C176.5 25.1001 183.8 27.0001 183.8 29.3001C183.8 31.6001 176.5 33.5001 167.5 33.5001C158.5 33.5001 151.2 31.6001 151.2 29.3001C151.2 27.0001 158.5 25.1001 167.5 25.1001Z" fill="#F58220"/>
<path fill-rule="evenodd" clip-rule="evenodd" d="M177.9 17.3999C182.7 17.3999 186.6 19.2999 186.6 21.5999C186.6 23.8999 182.7 25.7999 177.9 25.7999C173.1 25.7999 169.2 23.8999 169.2 21.5999C169.2 19.2999 173.1 17.3999 177.9 17.3999Z" fill="#F58220"/>
<path fill-rule="evenodd" clip-rule="evenodd" d="M182.1 8.7C182.1 13.5 180.2 17.4 177.9 17.4C175.6 17.4 173.7 13.5 173.7 8.7C173.7 3.9 175.6 0 177.9 0C180.3 0 182.1 3.9 182.1 8.7Z" fill="#F58220"/>
<path fill-rule="evenodd" clip-rule="evenodd" d="M143.3 15.5001C132.1 15.5001 123.1 12.0001 123.1 7.8001C123.1 3.5001 132.2 0.100098 143.3 0.100098C154.5 0.100098 163.5 3.6001 163.5 7.8001C163.5 12.0001 154.4 15.5001 143.3 15.5001Z" fill="#F58220"/>
<path fill-rule="evenodd" clip-rule="evenodd" d="M150.6 23.6002C141.6 23.6002 134.3 21.7002 134.3 19.4002C134.3 17.1002 141.6 15.2002 150.6 15.2002C159.6 15.2002 166.9 17.1002 166.9 19.4002C166.9 21.8002 159.6 23.6002 150.6 23.6002Z" fill="#F58220"/>
<path fill-rule="evenodd" clip-rule="evenodd" d="M140.2 31.3001C135.4 31.3001 131.5 29.4001 131.5 27.1001C131.5 24.8001 135.4 22.9001 140.2 22.9001C145 22.9001 148.9 24.8001 148.9 27.1001C148.9 29.4001 145 31.3001 140.2 31.3001Z" fill="#F58220"/>
<path fill-rule="evenodd" clip-rule="evenodd" d="M136 40C136 35.2 137.9 31.3 140.2 31.3C142.5 31.3 144.4 35.2 144.4 40C144.4 44.8 142.5 48.7 140.2 48.7C137.9 48.8 136 44.9 136 40Z" fill="#F58220"/>
<path fill-rule="evenodd" clip-rule="evenodd" d="M114.1 33.3C125.3 33.3 134.3 36.8 134.3 41C134.3 45.3 125.2 48.7 114.1 48.7C102.9 48.7 93.8996 45.2 93.8996 41C93.7996 36.8 102.9 33.3 114.1 33.3Z" fill="#F58220"/>
<path fill-rule="evenodd" clip-rule="evenodd" d="M106.7 25.1001C115.7 25.1001 123 27.0001 123 29.3001C123 31.6001 115.7 33.5001 106.7 33.5001C97.6996 33.5001 90.3997 31.6001 90.3997 29.3001C90.3997 27.0001 97.6996 25.1001 106.7 25.1001Z" fill="#F58220"/>
<path fill-rule="evenodd" clip-rule="evenodd" d="M117.2 17.3999C122 17.3999 125.9 19.2999 125.9 21.5999C125.9 23.8999 122 25.7999 117.2 25.7999C112.4 25.7999 108.5 23.8999 108.5 21.5999C108.4 19.2999 112.3 17.3999 117.2 17.3999Z" fill="#F58220"/>
<path fill-rule="evenodd" clip-rule="evenodd" d="M121.4 8.7C121.4 13.5 119.5 17.4 117.2 17.4C114.9 17.4 113 13.5 113 8.7C113 3.9 114.9 0 117.2 0C119.5 0 121.4 3.9 121.4 8.7Z" fill="#F58220"/>
<path fill-rule="evenodd" clip-rule="evenodd" d="M82.4995 15.5001C71.2995 15.5001 62.2996 12.0001 62.2996 7.8001C62.2996 3.5001 71.3995 0.100098 82.4995 0.100098C93.6995 0.100098 102.699 3.6001 102.699 7.8001C102.699 12.0001 93.6995 15.5001 82.4995 15.5001Z" fill="#F58220"/>
<path fill-rule="evenodd" clip-rule="evenodd" d="M89.8995 23.6002C80.8995 23.6002 73.5995 21.7002 73.5995 19.4002C73.5995 17.1002 80.8995 15.2002 89.8995 15.2002C98.8995 15.2002 106.199 17.1002 106.199 19.4002C106.099 21.8002 98.8995 23.6002 89.8995 23.6002Z" fill="#F58220"/>
<path fill-rule="evenodd" clip-rule="evenodd" d="M79.3995 31.3001C74.5995 31.3001 70.6995 29.4001 70.6995 27.1001C70.6995 24.8001 74.5995 22.9001 79.3995 22.9001C84.1995 22.9001 88.0995 24.8001 88.0995 27.1001C88.0995 29.4001 84.1995 31.3001 79.3995 31.3001Z" fill="#F58220"/>
<path fill-rule="evenodd" clip-rule="evenodd" d="M75.1995 40C75.1995 35.2 77.0995 31.3 79.3995 31.3C81.6995 31.3 83.5995 35.2 83.5995 40C83.5995 44.8 81.6995 48.7 79.3995 48.7C77.0995 48.8 75.1995 44.9 75.1995 40Z" fill="#F58220"/>
<path fill-rule="evenodd" clip-rule="evenodd" d="M52.2999 33.3C63.4999 33.3 72.4999 36.8 72.4999 41C72.4999 45.3 63.3999 48.7 52.2999 48.7C41.0999 48.7 32.0999 45.2 32.0999 41C32.0999 36.8 41.0999 33.3 52.2999 33.3Z" fill="#F58220"/>
<path fill-rule="evenodd" clip-rule="evenodd" d="M44.8999 25.1001C53.8999 25.1001 61.1998 27.0001 61.1998 29.3001C61.1998 31.6001 53.8999 33.5001 44.8999 33.5001C35.8999 33.5001 28.5999 31.6001 28.5999 29.3001C28.5999 27.0001 35.8999 25.1001 44.8999 25.1001Z" fill="#F58220"/>
<path fill-rule="evenodd" clip-rule="evenodd" d="M55.4 17.3999C60.2 17.3999 64.0999 19.2999 64.0999 21.5999C64.0999 23.8999 60.2 25.7999 55.4 25.7999C50.6 25.7999 46.6999 23.8999 46.6999 21.5999C46.5999 19.2999 50.5 17.3999 55.4 17.3999Z" fill="#F58220"/>
<path fill-rule="evenodd" clip-rule="evenodd" d="M59.5999 8.7C59.5999 13.5 57.6999 17.4 55.3999 17.4C53.0999 17.4 51.1998 13.5 51.1998 8.7C51.1998 3.9 53.0999 0 55.3999 0C57.6999 0 59.5999 3.9 59.5999 8.7Z" fill="#F58220"/>
<path fill-rule="evenodd" clip-rule="evenodd" d="M20.6997 15.5001C9.49971 15.5001 0.499756 12.0001 0.499756 7.8001C0.499756 3.5001 9.59971 0.100098 20.6997 0.100098C31.8997 0.100098 40.8998 3.6001 40.8998 7.8001C40.8998 12.0001 31.8997 15.5001 20.6997 15.5001Z" fill="#F58220"/>
<path fill-rule="evenodd" clip-rule="evenodd" d="M28.0997 23.6002C19.0997 23.6002 11.7998 21.7002 11.7998 19.4002C11.7998 17.1002 19.0997 15.2002 28.0997 15.2002C37.0997 15.2002 44.3998 17.1002 44.3998 19.4002C44.3998 21.8002 37.0997 23.6002 28.0997 23.6002Z" fill="#F58220"/>
<path fill-rule="evenodd" clip-rule="evenodd" d="M17.5997 31.3001C12.7997 31.3001 8.89978 29.4001 8.89978 27.1001C8.89978 24.8001 12.7997 22.9001 17.5997 22.9001C22.3997 22.9001 26.2998 24.8001 26.2998 27.1001C26.3998 29.4001 22.3997 31.3001 17.5997 31.3001Z" fill="#F58220"/>
<path fill-rule="evenodd" clip-rule="evenodd" d="M13.3998 40C13.3998 35.2 15.2997 31.3 17.5997 31.3C19.8997 31.3 21.7998 35.2 21.7998 40C21.7998 44.8 19.8997 48.7 17.5997 48.7C15.2997 48.8 13.3998 44.9 13.3998 40Z" fill="#F58220"/>
<path fill-rule="evenodd" clip-rule="evenodd" d="M386.4 65.7999C375.2 65.7999 366.2 62.2999 366.2 58.0999C366.2 53.7999 375.3 50.3999 386.4 50.3999C397.6 50.3999 406.6 53.8999 406.6 58.0999C406.6 62.2999 397.5 65.7999 386.4 65.7999Z" fill="#F58220"/>
<path fill-rule="evenodd" clip-rule="evenodd" d="M393.7 73.9999C384.7 73.9999 377.4 72.0999 377.4 69.7999C377.4 67.4999 384.7 65.5999 393.7 65.5999C402.7 65.5999 410 67.4999 410 69.7999C410 72.0999 402.7 73.9999 393.7 73.9999Z" fill="#F58220"/>
<path fill-rule="evenodd" clip-rule="evenodd" d="M383.3 81.5999C378.5 81.5999 374.6 79.6999 374.6 77.3999C374.6 75.0999 378.5 73.2 383.3 73.2C388.1 73.2 392 75.0999 392 77.3999C392 79.7999 388.1 81.5999 383.3 81.5999Z" fill="#F58220"/>
<path fill-rule="evenodd" clip-rule="evenodd" d="M379.1 90.3999C379.1 85.5999 381 81.7 383.3 81.7C385.6 81.7 387.5 85.5999 387.5 90.3999C387.5 95.1999 385.6 99.0999 383.3 99.0999C381 99.0999 379.1 95.1999 379.1 90.3999Z" fill="#F58220"/>
<path fill-rule="evenodd" clip-rule="evenodd" d="M357.2 83.6001C368.4 83.6001 377.4 87.1001 377.4 91.3001C377.4 95.6001 368.3 99.0001 357.2 99.0001C346 99.0001 337 95.5001 337 91.3001C336.9 87.1001 346 83.6001 357.2 83.6001Z" fill="#F58220"/>
<path fill-rule="evenodd" clip-rule="evenodd" d="M349.8 75.4001C358.8 75.4001 366.1 77.3001 366.1 79.6001C366.1 81.9001 358.8 83.8001 349.8 83.8001C340.8 83.8001 333.5 81.9001 333.5 79.6001C333.5 77.3001 340.8 75.4001 349.8 75.4001Z" fill="#F58220"/>
<path fill-rule="evenodd" clip-rule="evenodd" d="M360.2 67.8C365 67.8 368.9 69.7 368.9 72C368.9 74.3 365 76.2001 360.2 76.2001C355.4 76.2001 351.5 74.3 351.5 72C351.5 69.6 355.4 67.8 360.2 67.8Z" fill="#F58220"/>
<path fill-rule="evenodd" clip-rule="evenodd" d="M364.5 59C364.5 63.8 362.6 67.7001 360.3 67.7001C358 67.7001 356.1 63.8 356.1 59C356.1 54.2 358 50.3 360.3 50.3C362.6 50.3 364.5 54.2 364.5 59Z" fill="#F58220"/>
<path fill-rule="evenodd" clip-rule="evenodd" d="M325.6 65.7999C314.4 65.7999 305.4 62.2999 305.4 58.0999C305.4 53.7999 314.5 50.3999 325.6 50.3999C336.8 50.3999 345.8 53.8999 345.8 58.0999C345.8 62.2999 336.8 65.7999 325.6 65.7999Z" fill="#F58220"/>
<path fill-rule="evenodd" clip-rule="evenodd" d="M332.9 73.9999C323.9 73.9999 316.6 72.0999 316.6 69.7999C316.6 67.4999 323.9 65.5999 332.9 65.5999C341.9 65.5999 349.2 67.4999 349.2 69.7999C349.2 72.0999 341.9 73.9999 332.9 73.9999Z" fill="#F58220"/>
<path fill-rule="evenodd" clip-rule="evenodd" d="M322.5 81.5999C317.7 81.5999 313.8 79.6999 313.8 77.3999C313.8 75.0999 317.7 73.2 322.5 73.2C327.3 73.2 331.2 75.0999 331.2 77.3999C331.2 79.7999 327.3 81.5999 322.5 81.5999Z" fill="#F58220"/>
<path fill-rule="evenodd" clip-rule="evenodd" d="M318.3 90.3999C318.3 85.5999 320.2 81.7 322.5 81.7C324.8 81.7 326.7 85.5999 326.7 90.3999C326.7 95.1999 324.8 99.0999 322.5 99.0999C320.2 99.0999 318.3 95.1999 318.3 90.3999Z" fill="#F58220"/>
<path fill-rule="evenodd" clip-rule="evenodd" d="M296.4 83.6001C307.6 83.6001 316.599 87.1001 316.599 91.3001C316.599 95.6001 307.5 99.0001 296.4 99.0001C285.2 99.0001 276.199 95.5001 276.199 91.3001C276.199 87.1001 285.2 83.6001 296.4 83.6001Z" fill="#F58220"/>
<path fill-rule="evenodd" clip-rule="evenodd" d="M289.099 75.4001C298.099 75.4001 305.4 77.3001 305.4 79.6001C305.4 81.9001 298.099 83.8001 289.099 83.8001C280.099 83.8001 272.8 81.9001 272.8 79.6001C272.8 77.3001 279.999 75.4001 289.099 75.4001Z" fill="#F58220"/>
<path fill-rule="evenodd" clip-rule="evenodd" d="M299.5 67.8C304.3 67.8 308.199 69.7 308.199 72C308.199 74.3 304.3 76.2001 299.5 76.2001C294.7 76.2001 290.8 74.3 290.8 72C290.8 69.6 294.7 67.8 299.5 67.8Z" fill="#F58220"/>
<path fill-rule="evenodd" clip-rule="evenodd" d="M303.699 59C303.699 63.8 301.8 67.7001 299.5 67.7001C297.2 67.7001 295.3 63.8 295.3 59C295.3 54.2 297.2 50.3 299.5 50.3C301.8 50.3 303.699 54.2 303.699 59Z" fill="#F58220"/>
<path fill-rule="evenodd" clip-rule="evenodd" d="M264.8 65.7999C253.6 65.7999 244.6 62.2999 244.6 58.0999C244.6 53.7999 253.7 50.3999 264.8 50.3999C276 50.3999 285 53.8999 285 58.0999C285.1 62.2999 276 65.7999 264.8 65.7999Z" fill="#F58220"/>
<path fill-rule="evenodd" clip-rule="evenodd" d="M272.2 73.9999C263.2 73.9999 255.9 72.0999 255.9 69.7999C255.9 67.4999 263.2 65.5999 272.2 65.5999C281.2 65.5999 288.5 67.4999 288.5 69.7999C288.5 72.0999 281.2 73.9999 272.2 73.9999Z" fill="#F58220"/>
<path fill-rule="evenodd" clip-rule="evenodd" d="M261.7 81.5999C256.9 81.5999 253 79.6999 253 77.3999C253 75.0999 256.9 73.2 261.7 73.2C266.5 73.2 270.4 75.0999 270.4 77.3999C270.5 79.7999 266.6 81.5999 261.7 81.5999Z" fill="#F58220"/>
<path fill-rule="evenodd" clip-rule="evenodd" d="M257.5 90.3999C257.5 85.5999 259.4 81.7 261.7 81.7C264 81.7 265.9 85.5999 265.9 90.3999C265.9 95.1999 264 99.0999 261.7 99.0999C259.4 99.0999 257.5 95.1999 257.5 90.3999Z" fill="#F58220"/>
<path fill-rule="evenodd" clip-rule="evenodd" d="M235.6 83.6001C246.8 83.6001 255.8 87.1001 255.8 91.3001C255.8 95.6001 246.7 99.0001 235.6 99.0001C224.4 99.0001 215.4 95.5001 215.4 91.3001C215.4 87.1001 224.5 83.6001 235.6 83.6001Z" fill="#F58220"/>
<path fill-rule="evenodd" clip-rule="evenodd" d="M228.3 75.4001C237.3 75.4001 244.6 77.3001 244.6 79.6001C244.6 81.9001 237.3 83.8001 228.3 83.8001C219.3 83.8001 212 81.9001 212 79.6001C212 77.3001 219.3 75.4001 228.3 75.4001Z" fill="#F58220"/>
<path fill-rule="evenodd" clip-rule="evenodd" d="M238.7 67.8C243.5 67.8 247.4 69.7 247.4 72C247.4 74.3 243.5 76.2001 238.7 76.2001C233.9 76.2001 230 74.3 230 72C230 69.6 233.9 67.8 238.7 67.8Z" fill="#F58220"/>
<path fill-rule="evenodd" clip-rule="evenodd" d="M242.9 59C242.9 63.8 241 67.7001 238.7 67.7001C236.4 67.7001 234.5 63.8 234.5 59C234.5 54.2 236.4 50.3 238.7 50.3C241 50.3 242.9 54.2 242.9 59Z" fill="#F58220"/>
<path fill-rule="evenodd" clip-rule="evenodd" d="M204 65.7999C192.8 65.7999 183.8 62.2999 183.8 58.0999C183.8 53.7999 192.9 50.3999 204 50.3999C215.2 50.3999 224.199 53.8999 224.199 58.0999C224.299 62.2999 215.2 65.7999 204 65.7999Z" fill="#F58220"/>
<path fill-rule="evenodd" clip-rule="evenodd" d="M211.4 73.9999C202.4 73.9999 195.099 72.0999 195.099 69.7999C195.099 67.4999 202.4 65.5999 211.4 65.5999C220.4 65.5999 227.699 67.4999 227.699 69.7999C227.699 72.0999 220.4 73.9999 211.4 73.9999Z" fill="#F58220"/>
<path fill-rule="evenodd" clip-rule="evenodd" d="M201 81.5999C196.2 81.5999 192.3 79.6999 192.3 77.3999C192.3 75.0999 196.2 73.2 201 73.2C205.8 73.2 209.699 75.0999 209.699 77.3999C209.699 79.7999 205.8 81.5999 201 81.5999Z" fill="#F58220"/>
<path fill-rule="evenodd" clip-rule="evenodd" d="M196.8 90.3999C196.8 85.5999 198.7 81.7 201 81.7C203.3 81.7 205.199 85.5999 205.199 90.3999C205.199 95.1999 203.3 99.0999 201 99.0999C198.7 99.0999 196.8 95.1999 196.8 90.3999Z" fill="#F58220"/>
<path fill-rule="evenodd" clip-rule="evenodd" d="M174.9 83.6001C186.1 83.6001 195.1 87.1001 195.1 91.3001C195.1 95.6001 186 99.0001 174.9 99.0001C163.7 99.0001 154.7 95.5001 154.7 91.3001C154.6 87.1001 163.7 83.6001 174.9 83.6001Z" fill="#F58220"/>
<path fill-rule="evenodd" clip-rule="evenodd" d="M167.5 75.4001C176.5 75.4001 183.8 77.3001 183.8 79.6001C183.8 81.9001 176.5 83.8001 167.5 83.8001C158.5 83.8001 151.2 81.9001 151.2 79.6001C151.2 77.3001 158.5 75.4001 167.5 75.4001Z" fill="#F58220"/>
<path fill-rule="evenodd" clip-rule="evenodd" d="M177.9 67.8C182.7 67.8 186.6 69.7 186.6 72C186.6 74.3 182.7 76.2001 177.9 76.2001C173.1 76.2001 169.2 74.3 169.2 72C169.2 69.6 173.1 67.8 177.9 67.8Z" fill="#F58220"/>
<path fill-rule="evenodd" clip-rule="evenodd" d="M182.1 59C182.1 63.8 180.2 67.7001 177.9 67.7001C175.6 67.7001 173.7 63.8 173.7 59C173.7 54.2 175.6 50.3 177.9 50.3C180.3 50.3 182.1 54.2 182.1 59Z" fill="#F58220"/>
<path fill-rule="evenodd" clip-rule="evenodd" d="M143.3 65.7999C132.1 65.7999 123.1 62.2999 123.1 58.0999C123.1 53.7999 132.2 50.3999 143.3 50.3999C154.5 50.3999 163.5 53.8999 163.5 58.0999C163.5 62.2999 154.4 65.7999 143.3 65.7999Z" fill="#F58220"/>
<path fill-rule="evenodd" clip-rule="evenodd" d="M150.6 73.9999C141.6 73.9999 134.3 72.0999 134.3 69.7999C134.3 67.4999 141.6 65.5999 150.6 65.5999C159.6 65.5999 166.9 67.4999 166.9 69.7999C166.9 72.0999 159.6 73.9999 150.6 73.9999Z" fill="#F58220"/>
<path fill-rule="evenodd" clip-rule="evenodd" d="M140.2 81.5999C135.4 81.5999 131.5 79.6999 131.5 77.3999C131.5 75.0999 135.4 73.2 140.2 73.2C145 73.2 148.9 75.0999 148.9 77.3999C148.9 79.7999 145 81.5999 140.2 81.5999Z" fill="#F58220"/>
<path fill-rule="evenodd" clip-rule="evenodd" d="M136 90.3999C136 85.5999 137.9 81.7 140.2 81.7C142.5 81.7 144.4 85.5999 144.4 90.3999C144.4 95.1999 142.5 99.0999 140.2 99.0999C137.9 99.0999 136 95.1999 136 90.3999Z" fill="#F58220"/>
<path fill-rule="evenodd" clip-rule="evenodd" d="M114.1 83.6001C125.3 83.6001 134.3 87.1001 134.3 91.3001C134.3 95.6001 125.2 99.0001 114.1 99.0001C102.9 99.0001 93.8996 95.5001 93.8996 91.3001C93.7996 87.1001 102.9 83.6001 114.1 83.6001Z" fill="#F58220"/>
<path fill-rule="evenodd" clip-rule="evenodd" d="M106.7 75.4001C115.7 75.4001 123 77.3001 123 79.6001C123 81.9001 115.7 83.8001 106.7 83.8001C97.6996 83.8001 90.3997 81.9001 90.3997 79.6001C90.3997 77.3001 97.6996 75.4001 106.7 75.4001Z" fill="#F58220"/>
<path fill-rule="evenodd" clip-rule="evenodd" d="M117.2 67.8C122 67.8 125.9 69.7 125.9 72C125.9 74.3 122 76.2001 117.2 76.2001C112.4 76.2001 108.5 74.3 108.5 72C108.4 69.6 112.3 67.8 117.2 67.8Z" fill="#F58220"/>
<path fill-rule="evenodd" clip-rule="evenodd" d="M121.4 59C121.4 63.8 119.5 67.7001 117.2 67.7001C114.9 67.7001 113 63.8 113 59C113 54.2 114.9 50.3 117.2 50.3C119.5 50.3 121.4 54.2 121.4 59Z" fill="#F58220"/>
<path fill-rule="evenodd" clip-rule="evenodd" d="M82.4995 65.7999C71.2995 65.7999 62.2996 62.2999 62.2996 58.0999C62.2996 53.7999 71.3995 50.3999 82.4995 50.3999C93.6995 50.3999 102.699 53.8999 102.699 58.0999C102.699 62.2999 93.6995 65.7999 82.4995 65.7999Z" fill="#F58220"/>
<path fill-rule="evenodd" clip-rule="evenodd" d="M89.8995 73.9999C80.8995 73.9999 73.5995 72.0999 73.5995 69.7999C73.5995 67.4999 80.8995 65.5999 89.8995 65.5999C98.8995 65.5999 106.199 67.4999 106.199 69.7999C106.099 72.0999 98.8995 73.9999 89.8995 73.9999Z" fill="#F58220"/>
<path fill-rule="evenodd" clip-rule="evenodd" d="M79.3995 81.5999C74.5995 81.5999 70.6995 79.6999 70.6995 77.3999C70.6995 75.0999 74.5995 73.2 79.3995 73.2C84.1995 73.2 88.0995 75.0999 88.0995 77.3999C88.0995 79.7999 84.1995 81.5999 79.3995 81.5999Z" fill="#F58220"/>
<path fill-rule="evenodd" clip-rule="evenodd" d="M75.1995 90.3999C75.1995 85.5999 77.0995 81.7 79.3995 81.7C81.6995 81.7 83.5995 85.5999 83.5995 90.3999C83.5995 95.1999 81.6995 99.0999 79.3995 99.0999C77.0995 99.0999 75.1995 95.1999 75.1995 90.3999Z" fill="#F58220"/>
<path fill-rule="evenodd" clip-rule="evenodd" d="M52.2999 83.6001C63.4999 83.6001 72.4999 87.1001 72.4999 91.3001C72.4999 95.6001 63.3999 99.0001 52.2999 99.0001C41.0999 99.0001 32.0999 95.5001 32.0999 91.3001C32.0999 87.1001 41.0999 83.6001 52.2999 83.6001Z" fill="#F58220"/>
<path fill-rule="evenodd" clip-rule="evenodd" d="M44.8999 75.4001C53.8999 75.4001 61.1998 77.3001 61.1998 79.6001C61.1998 81.9001 53.8999 83.8001 44.8999 83.8001C35.8999 83.8001 28.5999 81.9001 28.5999 79.6001C28.5999 77.3001 35.8999 75.4001 44.8999 75.4001Z" fill="#F58220"/>
<path fill-rule="evenodd" clip-rule="evenodd" d="M55.4 67.8C60.2 67.8 64.0999 69.7 64.0999 72C64.0999 74.3 60.2 76.2001 55.4 76.2001C50.6 76.2001 46.6999 74.3 46.6999 72C46.5999 69.6 50.5 67.8 55.4 67.8Z" fill="#F58220"/>
<path fill-rule="evenodd" clip-rule="evenodd" d="M59.5999 59C59.5999 63.8 57.6999 67.7001 55.3999 67.7001C53.0999 67.7001 51.1998 63.8 51.1998 59C51.1998 54.2 53.0999 50.3 55.3999 50.3C57.6999 50.3 59.5999 54.2 59.5999 59Z" fill="#F58220"/>
<path fill-rule="evenodd" clip-rule="evenodd" d="M20.6997 65.7999C9.49971 65.7999 0.499756 62.2999 0.499756 58.0999C0.499756 53.7999 9.59971 50.3999 20.6997 50.3999C31.8997 50.3999 40.8998 53.8999 40.8998 58.0999C40.8998 62.2999 31.8997 65.7999 20.6997 65.7999Z" fill="#F58220"/>
<path fill-rule="evenodd" clip-rule="evenodd" d="M28.0997 73.9999C19.0997 73.9999 11.7998 72.0999 11.7998 69.7999C11.7998 67.4999 19.0997 65.5999 28.0997 65.5999C37.0997 65.5999 44.3998 67.4999 44.3998 69.7999C44.3998 72.0999 37.0997 73.9999 28.0997 73.9999Z" fill="#F58220"/>
<path fill-rule="evenodd" clip-rule="evenodd" d="M17.5997 81.5999C12.7997 81.5999 8.89978 79.6999 8.89978 77.3999C8.89978 75.0999 12.7997 73.2 17.5997 73.2C22.3997 73.2 26.2998 75.0999 26.2998 77.3999C26.3998 79.7999 22.3997 81.5999 17.5997 81.5999Z" fill="#F58220"/>
<path fill-rule="evenodd" clip-rule="evenodd" d="M13.3998 90.3999C13.3998 85.5999 15.2997 81.7 17.5997 81.7C19.8997 81.7 21.7998 85.5999 21.7998 90.3999C21.7998 95.1999 19.8997 99.0999 17.5997 99.0999C15.2997 99.0999 13.3998 95.1999 13.3998 90.3999Z" fill="#F58220"/>
<path fill-rule="evenodd" clip-rule="evenodd" d="M386.4 116.1C375.2 116.1 366.2 112.6 366.2 108.4C366.2 104.1 375.3 100.7 386.4 100.7C397.6 100.7 406.6 104.2 406.6 108.4C406.6 112.6 397.5 116.1 386.4 116.1Z" fill="#F58220"/>
<path fill-rule="evenodd" clip-rule="evenodd" d="M393.7 124.3C384.7 124.3 377.4 122.4 377.4 120.1C377.4 117.8 384.7 115.9 393.7 115.9C402.7 115.9 410 117.8 410 120.1C410 122.4 402.7 124.3 393.7 124.3Z" fill="#F58220"/>
<path fill-rule="evenodd" clip-rule="evenodd" d="M383.3 132C378.5 132 374.6 130.1 374.6 127.8C374.6 125.5 378.5 123.6 383.3 123.6C388.1 123.6 392 125.5 392 127.8C392 130.1 388.1 132 383.3 132Z" fill="#F58220"/>
<path fill-rule="evenodd" clip-rule="evenodd" d="M379.1 140.7C379.1 135.9 381 132 383.3 132C385.6 132 387.5 135.9 387.5 140.7C387.5 145.5 385.6 149.4 383.3 149.4C381 149.4 379.1 145.5 379.1 140.7Z" fill="#F58220"/>
<path fill-rule="evenodd" clip-rule="evenodd" d="M357.2 133.9C368.4 133.9 377.4 137.4 377.4 141.6C377.4 145.9 368.3 149.3 357.2 149.3C346 149.3 337 145.8 337 141.6C336.9 137.4 346 133.9 357.2 133.9Z" fill="#F58220"/>
<path fill-rule="evenodd" clip-rule="evenodd" d="M349.8 125.8C358.8 125.8 366.1 127.7 366.1 130C366.1 132.3 358.8 134.2 349.8 134.2C340.8 134.2 333.5 132.3 333.5 130C333.5 127.6 340.8 125.8 349.8 125.8Z" fill="#F58220"/>
<path fill-rule="evenodd" clip-rule="evenodd" d="M360.2 118.1C365 118.1 368.9 120 368.9 122.3C368.9 124.6 365 126.5 360.2 126.5C355.4 126.5 351.5 124.6 351.5 122.3C351.5 120 355.4 118.1 360.2 118.1Z" fill="#F58220"/>
<path fill-rule="evenodd" clip-rule="evenodd" d="M364.5 109.4C364.5 114.2 362.6 118.1 360.3 118.1C358 118.1 356.1 114.2 356.1 109.4C356.1 104.6 358 100.7 360.3 100.7C362.6 100.6 364.5 104.5 364.5 109.4Z" fill="#F58220"/>
<path fill-rule="evenodd" clip-rule="evenodd" d="M325.6 116.1C314.4 116.1 305.4 112.6 305.4 108.4C305.4 104.1 314.5 100.7 325.6 100.7C336.8 100.7 345.8 104.2 345.8 108.4C345.8 112.6 336.8 116.1 325.6 116.1Z" fill="#F58220"/>
<path fill-rule="evenodd" clip-rule="evenodd" d="M332.9 124.3C323.9 124.3 316.6 122.4 316.6 120.1C316.6 117.8 323.9 115.9 332.9 115.9C341.9 115.9 349.2 117.8 349.2 120.1C349.2 122.4 341.9 124.3 332.9 124.3Z" fill="#F58220"/>
<path fill-rule="evenodd" clip-rule="evenodd" d="M322.5 132C317.7 132 313.8 130.1 313.8 127.8C313.8 125.5 317.7 123.6 322.5 123.6C327.3 123.6 331.2 125.5 331.2 127.8C331.2 130.1 327.3 132 322.5 132Z" fill="#F58220"/>
<path fill-rule="evenodd" clip-rule="evenodd" d="M318.3 140.7C318.3 135.9 320.2 132 322.5 132C324.8 132 326.7 135.9 326.7 140.7C326.7 145.5 324.8 149.4 322.5 149.4C320.2 149.4 318.3 145.5 318.3 140.7Z" fill="#F58220"/>
<path fill-rule="evenodd" clip-rule="evenodd" d="M296.4 133.9C307.6 133.9 316.599 137.4 316.599 141.6C316.599 145.9 307.5 149.3 296.4 149.3C285.2 149.3 276.199 145.8 276.199 141.6C276.199 137.4 285.2 133.9 296.4 133.9Z" fill="#F58220"/>
<path fill-rule="evenodd" clip-rule="evenodd" d="M289.099 125.8C298.099 125.8 305.4 127.7 305.4 130C305.4 132.3 298.099 134.2 289.099 134.2C280.099 134.2 272.8 132.3 272.8 130C272.8 127.6 279.999 125.8 289.099 125.8Z" fill="#F58220"/>
<path fill-rule="evenodd" clip-rule="evenodd" d="M299.5 118.1C304.3 118.1 308.199 120 308.199 122.3C308.199 124.6 304.3 126.5 299.5 126.5C294.7 126.5 290.8 124.6 290.8 122.3C290.8 120 294.7 118.1 299.5 118.1Z" fill="#F58220"/>
<path fill-rule="evenodd" clip-rule="evenodd" d="M303.699 109.4C303.699 114.2 301.8 118.1 299.5 118.1C297.2 118.1 295.3 114.2 295.3 109.4C295.3 104.6 297.2 100.7 299.5 100.7C301.8 100.6 303.699 104.5 303.699 109.4Z" fill="#F58220"/>
<path fill-rule="evenodd" clip-rule="evenodd" d="M264.8 116.1C253.6 116.1 244.6 112.6 244.6 108.4C244.6 104.1 253.7 100.7 264.8 100.7C276 100.7 285 104.2 285 108.4C285.1 112.6 276 116.1 264.8 116.1Z" fill="#F58220"/>
<path fill-rule="evenodd" clip-rule="evenodd" d="M272.2 124.3C263.2 124.3 255.9 122.4 255.9 120.1C255.9 117.8 263.2 115.9 272.2 115.9C281.2 115.9 288.5 117.8 288.5 120.1C288.5 122.4 281.2 124.3 272.2 124.3Z" fill="#F58220"/>
<path fill-rule="evenodd" clip-rule="evenodd" d="M261.7 132C256.9 132 253 130.1 253 127.8C253 125.5 256.9 123.6 261.7 123.6C266.5 123.6 270.4 125.5 270.4 127.8C270.5 130.1 266.6 132 261.7 132Z" fill="#F58220"/>
<path fill-rule="evenodd" clip-rule="evenodd" d="M257.5 140.7C257.5 135.9 259.4 132 261.7 132C264 132 265.9 135.9 265.9 140.7C265.9 145.5 264 149.4 261.7 149.4C259.4 149.4 257.5 145.5 257.5 140.7Z" fill="#F58220"/>
<path fill-rule="evenodd" clip-rule="evenodd" d="M235.6 133.9C246.8 133.9 255.8 137.4 255.8 141.6C255.8 145.9 246.7 149.3 235.6 149.3C224.4 149.3 215.4 145.8 215.4 141.6C215.4 137.4 224.5 133.9 235.6 133.9Z" fill="#F58220"/>
<path fill-rule="evenodd" clip-rule="evenodd" d="M228.3 125.8C237.3 125.8 244.6 127.7 244.6 130C244.6 132.3 237.3 134.2 228.3 134.2C219.3 134.2 212 132.3 212 130C212 127.6 219.3 125.8 228.3 125.8Z" fill="#F58220"/>
<path fill-rule="evenodd" clip-rule="evenodd" d="M238.7 118.1C243.5 118.1 247.4 120 247.4 122.3C247.4 124.6 243.5 126.5 238.7 126.5C233.9 126.5 230 124.6 230 122.3C230 120 233.9 118.1 238.7 118.1Z" fill="#F58220"/>
<path fill-rule="evenodd" clip-rule="evenodd" d="M242.9 109.4C242.9 114.2 241 118.1 238.7 118.1C236.4 118.1 234.5 114.2 234.5 109.4C234.5 104.6 236.4 100.7 238.7 100.7C241 100.6 242.9 104.5 242.9 109.4Z" fill="#F58220"/>
<path fill-rule="evenodd" clip-rule="evenodd" d="M204 116.1C192.8 116.1 183.8 112.6 183.8 108.4C183.8 104.1 192.9 100.7 204 100.7C215.2 100.7 224.199 104.2 224.199 108.4C224.299 112.6 215.2 116.1 204 116.1Z" fill="#F58220"/>
<path fill-rule="evenodd" clip-rule="evenodd" d="M211.4 124.3C202.4 124.3 195.099 122.4 195.099 120.1C195.099 117.8 202.4 115.9 211.4 115.9C220.4 115.9 227.699 117.8 227.699 120.1C227.699 122.4 220.4 124.3 211.4 124.3Z" fill="#F58220"/>
<path fill-rule="evenodd" clip-rule="evenodd" d="M201 132C196.2 132 192.3 130.1 192.3 127.8C192.3 125.5 196.2 123.6 201 123.6C205.8 123.6 209.699 125.5 209.699 127.8C209.699 130.1 205.8 132 201 132Z" fill="#F58220"/>
<path fill-rule="evenodd" clip-rule="evenodd" d="M196.8 140.7C196.8 135.9 198.7 132 201 132C203.3 132 205.199 135.9 205.199 140.7C205.199 145.5 203.3 149.4 201 149.4C198.7 149.4 196.8 145.5 196.8 140.7Z" fill="#F58220"/>
<path fill-rule="evenodd" clip-rule="evenodd" d="M174.9 133.9C186.1 133.9 195.1 137.4 195.1 141.6C195.1 145.9 186 149.3 174.9 149.3C163.7 149.3 154.7 145.8 154.7 141.6C154.6 137.4 163.7 133.9 174.9 133.9Z" fill="#F58220"/>
<path fill-rule="evenodd" clip-rule="evenodd" d="M167.5 125.8C176.5 125.8 183.8 127.7 183.8 130C183.8 132.3 176.5 134.2 167.5 134.2C158.5 134.2 151.2 132.3 151.2 130C151.2 127.6 158.5 125.8 167.5 125.8Z" fill="#F58220"/>
<path fill-rule="evenodd" clip-rule="evenodd" d="M177.9 118.1C182.7 118.1 186.6 120 186.6 122.3C186.6 124.6 182.7 126.5 177.9 126.5C173.1 126.5 169.2 124.6 169.2 122.3C169.2 120 173.1 118.1 177.9 118.1Z" fill="#F58220"/>
<path fill-rule="evenodd" clip-rule="evenodd" d="M182.1 109.4C182.1 114.2 180.2 118.1 177.9 118.1C175.6 118.1 173.7 114.2 173.7 109.4C173.7 104.6 175.6 100.7 177.9 100.7C180.3 100.6 182.1 104.5 182.1 109.4Z" fill="#F58220"/>
<path fill-rule="evenodd" clip-rule="evenodd" d="M143.3 116.1C132.1 116.1 123.1 112.6 123.1 108.4C123.1 104.1 132.2 100.7 143.3 100.7C154.5 100.7 163.5 104.2 163.5 108.4C163.5 112.6 154.4 116.1 143.3 116.1Z" fill="#F58220"/>
<path fill-rule="evenodd" clip-rule="evenodd" d="M150.6 124.3C141.6 124.3 134.3 122.4 134.3 120.1C134.3 117.8 141.6 115.9 150.6 115.9C159.6 115.9 166.9 117.8 166.9 120.1C166.9 122.4 159.6 124.3 150.6 124.3Z" fill="#F58220"/>
<path fill-rule="evenodd" clip-rule="evenodd" d="M140.2 132C135.4 132 131.5 130.1 131.5 127.8C131.5 125.5 135.4 123.6 140.2 123.6C145 123.6 148.9 125.5 148.9 127.8C148.9 130.1 145 132 140.2 132Z" fill="#F58220"/>
<path fill-rule="evenodd" clip-rule="evenodd" d="M136 140.7C136 135.9 137.9 132 140.2 132C142.5 132 144.4 135.9 144.4 140.7C144.4 145.5 142.5 149.4 140.2 149.4C137.9 149.4 136 145.5 136 140.7Z" fill="#F58220"/>
<path fill-rule="evenodd" clip-rule="evenodd" d="M114.1 133.9C125.3 133.9 134.3 137.4 134.3 141.6C134.3 145.9 125.2 149.3 114.1 149.3C102.9 149.3 93.8996 145.8 93.8996 141.6C93.7996 137.4 102.9 133.9 114.1 133.9Z" fill="#F58220"/>
<path fill-rule="evenodd" clip-rule="evenodd" d="M106.7 125.8C115.7 125.8 123 127.7 123 130C123 132.3 115.7 134.2 106.7 134.2C97.6996 134.2 90.3997 132.3 90.3997 130C90.3997 127.6 97.6996 125.8 106.7 125.8Z" fill="#F58220"/>
<path fill-rule="evenodd" clip-rule="evenodd" d="M117.2 118.1C122 118.1 125.9 120 125.9 122.3C125.9 124.6 122 126.5 117.2 126.5C112.4 126.5 108.5 124.6 108.5 122.3C108.4 120 112.3 118.1 117.2 118.1Z" fill="#F58220"/>
<path fill-rule="evenodd" clip-rule="evenodd" d="M121.4 109.4C121.4 114.2 119.5 118.1 117.2 118.1C114.9 118.1 113 114.2 113 109.4C113 104.6 114.9 100.7 117.2 100.7C119.5 100.6 121.4 104.5 121.4 109.4Z" fill="#F58220"/>
<path fill-rule="evenodd" clip-rule="evenodd" d="M82.4995 116.1C71.2995 116.1 62.2996 112.6 62.2996 108.4C62.2996 104.1 71.3995 100.7 82.4995 100.7C93.6995 100.7 102.699 104.2 102.699 108.4C102.699 112.6 93.6995 116.1 82.4995 116.1Z" fill="#F58220"/>
<path fill-rule="evenodd" clip-rule="evenodd" d="M89.8995 124.3C80.8995 124.3 73.5995 122.4 73.5995 120.1C73.5995 117.8 80.8995 115.9 89.8995 115.9C98.8995 115.9 106.199 117.8 106.199 120.1C106.099 122.4 98.8995 124.3 89.8995 124.3Z" fill="#F58220"/>
<path fill-rule="evenodd" clip-rule="evenodd" d="M79.3995 132C74.5995 132 70.6995 130.1 70.6995 127.8C70.6995 125.5 74.5995 123.6 79.3995 123.6C84.1995 123.6 88.0995 125.5 88.0995 127.8C88.0995 130.1 84.1995 132 79.3995 132Z" fill="#F58220"/>
<path fill-rule="evenodd" clip-rule="evenodd" d="M75.1995 140.7C75.1995 135.9 77.0995 132 79.3995 132C81.6995 132 83.5995 135.9 83.5995 140.7C83.5995 145.5 81.6995 149.4 79.3995 149.4C77.0995 149.4 75.1995 145.5 75.1995 140.7Z" fill="#F58220"/>
<path fill-rule="evenodd" clip-rule="evenodd" d="M52.2999 133.9C63.4999 133.9 72.4999 137.4 72.4999 141.6C72.4999 145.9 63.3999 149.3 52.2999 149.3C41.0999 149.3 32.0999 145.8 32.0999 141.6C32.0999 137.4 41.0999 133.9 52.2999 133.9Z" fill="#F58220"/>
<path fill-rule="evenodd" clip-rule="evenodd" d="M44.8999 125.8C53.8999 125.8 61.1998 127.7 61.1998 130C61.1998 132.3 53.8999 134.2 44.8999 134.2C35.8999 134.2 28.5999 132.3 28.5999 130C28.5999 127.6 35.8999 125.8 44.8999 125.8Z" fill="#F58220"/>
<path fill-rule="evenodd" clip-rule="evenodd" d="M55.4 118.1C60.2 118.1 64.0999 120 64.0999 122.3C64.0999 124.6 60.2 126.5 55.4 126.5C50.6 126.5 46.6999 124.6 46.6999 122.3C46.5999 120 50.5 118.1 55.4 118.1Z" fill="#F58220"/>
<path fill-rule="evenodd" clip-rule="evenodd" d="M59.5999 109.4C59.5999 114.2 57.6999 118.1 55.3999 118.1C53.0999 118.1 51.1998 114.2 51.1998 109.4C51.1998 104.6 53.0999 100.7 55.3999 100.7C57.6999 100.6 59.5999 104.5 59.5999 109.4Z" fill="#F58220"/>
<path fill-rule="evenodd" clip-rule="evenodd" d="M20.6997 116.1C9.49971 116.1 0.499756 112.6 0.499756 108.4C0.499756 104.1 9.59971 100.7 20.6997 100.7C31.8997 100.7 40.8998 104.2 40.8998 108.4C40.8998 112.6 31.8997 116.1 20.6997 116.1Z" fill="#F58220"/>
<path fill-rule="evenodd" clip-rule="evenodd" d="M28.0997 124.3C19.0997 124.3 11.7998 122.4 11.7998 120.1C11.7998 117.8 19.0997 115.9 28.0997 115.9C37.0997 115.9 44.3998 117.8 44.3998 120.1C44.3998 122.4 37.0997 124.3 28.0997 124.3Z" fill="#F58220"/>
<path fill-rule="evenodd" clip-rule="evenodd" d="M17.5997 132C12.7997 132 8.89978 130.1 8.89978 127.8C8.89978 125.5 12.7997 123.6 17.5997 123.6C22.3997 123.6 26.2998 125.5 26.2998 127.8C26.3998 130.1 22.3997 132 17.5997 132Z" fill="#F58220"/>
<path fill-rule="evenodd" clip-rule="evenodd" d="M13.3998 140.7C13.3998 135.9 15.2997 132 17.5997 132C19.8997 132 21.7998 135.9 21.7998 140.7C21.7998 145.5 19.8997 149.4 17.5997 149.4C15.2997 149.4 13.3998 145.5 13.3998 140.7Z" fill="#F58220"/>
<path fill-rule="evenodd" clip-rule="evenodd" d="M386.4 166.4C375.2 166.4 366.2 162.9 366.2 158.7C366.2 154.4 375.3 151 386.4 151C397.6 151 406.6 154.5 406.6 158.7C406.6 163 397.5 166.4 386.4 166.4Z" fill="#F58220"/>
<path fill-rule="evenodd" clip-rule="evenodd" d="M393.7 174.6C384.7 174.6 377.4 172.7 377.4 170.4C377.4 168.1 384.7 166.2 393.7 166.2C402.7 166.2 410 168.1 410 170.4C410 172.7 402.7 174.6 393.7 174.6Z" fill="#F58220"/>
<path fill-rule="evenodd" clip-rule="evenodd" d="M383.3 182.3C378.5 182.3 374.6 180.4 374.6 178.1C374.6 175.8 378.5 173.9 383.3 173.9C388.1 173.9 392 175.8 392 178.1C392 180.4 388.1 182.3 383.3 182.3Z" fill="#F58220"/>
<path fill-rule="evenodd" clip-rule="evenodd" d="M379.1 191C379.1 186.2 381 182.3 383.3 182.3C385.6 182.3 387.5 186.2 387.5 191C387.5 195.8 385.6 199.7 383.3 199.7C381 199.7 379.1 195.8 379.1 191Z" fill="#F58220"/>
<path fill-rule="evenodd" clip-rule="evenodd" d="M357.2 184.3C368.4 184.3 377.4 187.8 377.4 192C377.4 196.3 368.3 199.7 357.2 199.7C346 199.7 337 196.2 337 192C336.9 187.7 346 184.3 357.2 184.3Z" fill="#F58220"/>
<path fill-rule="evenodd" clip-rule="evenodd" d="M349.8 176.1C358.8 176.1 366.1 178 366.1 180.3C366.1 182.6 358.8 184.5 349.8 184.5C340.8 184.5 333.5 182.6 333.5 180.3C333.5 178 340.8 176.1 349.8 176.1Z" fill="#F58220"/>
<path fill-rule="evenodd" clip-rule="evenodd" d="M360.2 168.4C365 168.4 368.9 170.3 368.9 172.6C368.9 174.9 365 176.8 360.2 176.8C355.4 176.8 351.5 174.9 351.5 172.6C351.5 170.3 355.4 168.4 360.2 168.4Z" fill="#F58220"/>
<path fill-rule="evenodd" clip-rule="evenodd" d="M364.5 159.7C364.5 164.5 362.6 168.4 360.3 168.4C358 168.4 356.1 164.5 356.1 159.7C356.1 154.9 358 151 360.3 151C362.6 151 364.5 154.9 364.5 159.7Z" fill="#F58220"/>
<path fill-rule="evenodd" clip-rule="evenodd" d="M325.6 166.4C314.4 166.4 305.4 162.9 305.4 158.7C305.4 154.4 314.5 151 325.6 151C336.8 151 345.8 154.5 345.8 158.7C345.8 163 336.8 166.4 325.6 166.4Z" fill="#F58220"/>
<path fill-rule="evenodd" clip-rule="evenodd" d="M332.9 174.6C323.9 174.6 316.6 172.7 316.6 170.4C316.6 168.1 323.9 166.2 332.9 166.2C341.9 166.2 349.2 168.1 349.2 170.4C349.2 172.7 341.9 174.6 332.9 174.6Z" fill="#F58220"/>
<path fill-rule="evenodd" clip-rule="evenodd" d="M322.5 182.3C317.7 182.3 313.8 180.4 313.8 178.1C313.8 175.8 317.7 173.9 322.5 173.9C327.3 173.9 331.2 175.8 331.2 178.1C331.2 180.4 327.3 182.3 322.5 182.3Z" fill="#F58220"/>
<path fill-rule="evenodd" clip-rule="evenodd" d="M318.3 191C318.3 186.2 320.2 182.3 322.5 182.3C324.8 182.3 326.7 186.2 326.7 191C326.7 195.8 324.8 199.7 322.5 199.7C320.2 199.7 318.3 195.8 318.3 191Z" fill="#F58220"/>
<path fill-rule="evenodd" clip-rule="evenodd" d="M296.4 184.3C307.6 184.3 316.599 187.8 316.599 192C316.599 196.3 307.5 199.7 296.4 199.7C285.2 199.7 276.199 196.2 276.199 192C276.199 187.7 285.2 184.3 296.4 184.3Z" fill="#F58220"/>
<path fill-rule="evenodd" clip-rule="evenodd" d="M289.099 176.1C298.099 176.1 305.4 178 305.4 180.3C305.4 182.6 298.099 184.5 289.099 184.5C280.099 184.5 272.8 182.6 272.8 180.3C272.8 178 279.999 176.1 289.099 176.1Z" fill="#F58220"/>
<path fill-rule="evenodd" clip-rule="evenodd" d="M299.5 168.4C304.3 168.4 308.199 170.3 308.199 172.6C308.199 174.9 304.3 176.8 299.5 176.8C294.7 176.8 290.8 174.9 290.8 172.6C290.8 170.3 294.7 168.4 299.5 168.4Z" fill="#F58220"/>
<path fill-rule="evenodd" clip-rule="evenodd" d="M303.699 159.7C303.699 164.5 301.8 168.4 299.5 168.4C297.2 168.4 295.3 164.5 295.3 159.7C295.3 154.9 297.2 151 299.5 151C301.8 151 303.699 154.9 303.699 159.7Z" fill="#F58220"/>
<path fill-rule="evenodd" clip-rule="evenodd" d="M264.8 166.4C253.6 166.4 244.6 162.9 244.6 158.7C244.6 154.4 253.7 151 264.8 151C276 151 285 154.5 285 158.7C285.1 163 276 166.4 264.8 166.4Z" fill="#F58220"/>
<path fill-rule="evenodd" clip-rule="evenodd" d="M272.2 174.6C263.2 174.6 255.9 172.7 255.9 170.4C255.9 168.1 263.2 166.2 272.2 166.2C281.2 166.2 288.5 168.1 288.5 170.4C288.5 172.7 281.2 174.6 272.2 174.6Z" fill="#F58220"/>
<path fill-rule="evenodd" clip-rule="evenodd" d="M261.7 182.3C256.9 182.3 253 180.4 253 178.1C253 175.8 256.9 173.9 261.7 173.9C266.5 173.9 270.4 175.8 270.4 178.1C270.5 180.4 266.6 182.3 261.7 182.3Z" fill="#F58220"/>
<path fill-rule="evenodd" clip-rule="evenodd" d="M257.5 191C257.5 186.2 259.4 182.3 261.7 182.3C264 182.3 265.9 186.2 265.9 191C265.9 195.8 264 199.7 261.7 199.7C259.4 199.7 257.5 195.8 257.5 191Z" fill="#F58220"/>
<path fill-rule="evenodd" clip-rule="evenodd" d="M235.6 184.3C246.8 184.3 255.8 187.8 255.8 192C255.8 196.3 246.7 199.7 235.6 199.7C224.4 199.7 215.4 196.2 215.4 192C215.4 187.7 224.5 184.3 235.6 184.3Z" fill="#F58220"/>
<path fill-rule="evenodd" clip-rule="evenodd" d="M228.3 176.1C237.3 176.1 244.6 178 244.6 180.3C244.6 182.6 237.3 184.5 228.3 184.5C219.3 184.5 212 182.6 212 180.3C212 178 219.3 176.1 228.3 176.1Z" fill="#F58220"/>
<path fill-rule="evenodd" clip-rule="evenodd" d="M238.7 168.4C243.5 168.4 247.4 170.3 247.4 172.6C247.4 174.9 243.5 176.8 238.7 176.8C233.9 176.8 230 174.9 230 172.6C230 170.3 233.9 168.4 238.7 168.4Z" fill="#F58220"/>
<path fill-rule="evenodd" clip-rule="evenodd" d="M242.9 159.7C242.9 164.5 241 168.4 238.7 168.4C236.4 168.4 234.5 164.5 234.5 159.7C234.5 154.9 236.4 151 238.7 151C241 151 242.9 154.9 242.9 159.7Z" fill="#F58220"/>
<path fill-rule="evenodd" clip-rule="evenodd" d="M204 166.4C192.8 166.4 183.8 162.9 183.8 158.7C183.8 154.4 192.9 151 204 151C215.2 151 224.199 154.5 224.199 158.7C224.299 163 215.2 166.4 204 166.4Z" fill="#F58220"/>
<path fill-rule="evenodd" clip-rule="evenodd" d="M211.4 174.6C202.4 174.6 195.099 172.7 195.099 170.4C195.099 168.1 202.4 166.2 211.4 166.2C220.4 166.2 227.699 168.1 227.699 170.4C227.699 172.7 220.4 174.6 211.4 174.6Z" fill="#F58220"/>
<path fill-rule="evenodd" clip-rule="evenodd" d="M201 182.3C196.2 182.3 192.3 180.4 192.3 178.1C192.3 175.8 196.2 173.9 201 173.9C205.8 173.9 209.699 175.8 209.699 178.1C209.699 180.4 205.8 182.3 201 182.3Z" fill="#F58220"/>
<path fill-rule="evenodd" clip-rule="evenodd" d="M196.8 191C196.8 186.2 198.7 182.3 201 182.3C203.3 182.3 205.199 186.2 205.199 191C205.199 195.8 203.3 199.7 201 199.7C198.7 199.7 196.8 195.8 196.8 191Z" fill="#F58220"/>
<path fill-rule="evenodd" clip-rule="evenodd" d="M174.9 184.3C186.1 184.3 195.1 187.8 195.1 192C195.1 196.3 186 199.7 174.9 199.7C163.7 199.7 154.7 196.2 154.7 192C154.6 187.7 163.7 184.3 174.9 184.3Z" fill="#F58220"/>
<path fill-rule="evenodd" clip-rule="evenodd" d="M167.5 176.1C176.5 176.1 183.8 178 183.8 180.3C183.8 182.6 176.5 184.5 167.5 184.5C158.5 184.5 151.2 182.6 151.2 180.3C151.2 178 158.5 176.1 167.5 176.1Z" fill="#F58220"/>
<path fill-rule="evenodd" clip-rule="evenodd" d="M177.9 168.4C182.7 168.4 186.6 170.3 186.6 172.6C186.6 174.9 182.7 176.8 177.9 176.8C173.1 176.8 169.2 174.9 169.2 172.6C169.2 170.3 173.1 168.4 177.9 168.4Z" fill="#F58220"/>
<path fill-rule="evenodd" clip-rule="evenodd" d="M182.1 159.7C182.1 164.5 180.2 168.4 177.9 168.4C175.6 168.4 173.7 164.5 173.7 159.7C173.7 154.9 175.6 151 177.9 151C180.3 151 182.1 154.9 182.1 159.7Z" fill="#F58220"/>
<path fill-rule="evenodd" clip-rule="evenodd" d="M143.3 166.4C132.1 166.4 123.1 162.9 123.1 158.7C123.1 154.4 132.2 151 143.3 151C154.5 151 163.5 154.5 163.5 158.7C163.5 163 154.4 166.4 143.3 166.4Z" fill="#F58220"/>
<path fill-rule="evenodd" clip-rule="evenodd" d="M150.6 174.6C141.6 174.6 134.3 172.7 134.3 170.4C134.3 168.1 141.6 166.2 150.6 166.2C159.6 166.2 166.9 168.1 166.9 170.4C166.9 172.7 159.6 174.6 150.6 174.6Z" fill="#F58220"/>
<path fill-rule="evenodd" clip-rule="evenodd" d="M140.2 182.3C135.4 182.3 131.5 180.4 131.5 178.1C131.5 175.8 135.4 173.9 140.2 173.9C145 173.9 148.9 175.8 148.9 178.1C148.9 180.4 145 182.3 140.2 182.3Z" fill="#F58220"/>
<path fill-rule="evenodd" clip-rule="evenodd" d="M136 191C136 186.2 137.9 182.3 140.2 182.3C142.5 182.3 144.4 186.2 144.4 191C144.4 195.8 142.5 199.7 140.2 199.7C137.9 199.7 136 195.8 136 191Z" fill="#F58220"/>
<path fill-rule="evenodd" clip-rule="evenodd" d="M114.1 184.3C125.3 184.3 134.3 187.8 134.3 192C134.3 196.3 125.2 199.7 114.1 199.7C102.9 199.7 93.8996 196.2 93.8996 192C93.7996 187.7 102.9 184.3 114.1 184.3Z" fill="#F58220"/>
<path fill-rule="evenodd" clip-rule="evenodd" d="M106.7 176.1C115.7 176.1 123 178 123 180.3C123 182.6 115.7 184.5 106.7 184.5C97.6996 184.5 90.3997 182.6 90.3997 180.3C90.3997 178 97.6996 176.1 106.7 176.1Z" fill="#F58220"/>
<path fill-rule="evenodd" clip-rule="evenodd" d="M117.2 168.4C122 168.4 125.9 170.3 125.9 172.6C125.9 174.9 122 176.8 117.2 176.8C112.4 176.8 108.5 174.9 108.5 172.6C108.4 170.3 112.3 168.4 117.2 168.4Z" fill="#F58220"/>
<path fill-rule="evenodd" clip-rule="evenodd" d="M121.4 159.7C121.4 164.5 119.5 168.4 117.2 168.4C114.9 168.4 113 164.5 113 159.7C113 154.9 114.9 151 117.2 151C119.5 151 121.4 154.9 121.4 159.7Z" fill="#F58220"/>
<path fill-rule="evenodd" clip-rule="evenodd" d="M82.4995 166.4C71.2995 166.4 62.2996 162.9 62.2996 158.7C62.2996 154.4 71.3995 151 82.4995 151C93.6995 151 102.699 154.5 102.699 158.7C102.699 163 93.6995 166.4 82.4995 166.4Z" fill="#F58220"/>
<path fill-rule="evenodd" clip-rule="evenodd" d="M89.8995 174.6C80.8995 174.6 73.5995 172.7 73.5995 170.4C73.5995 168.1 80.8995 166.2 89.8995 166.2C98.8995 166.2 106.199 168.1 106.199 170.4C106.099 172.7 98.8995 174.6 89.8995 174.6Z" fill="#F58220"/>
<path fill-rule="evenodd" clip-rule="evenodd" d="M79.3995 182.3C74.5995 182.3 70.6995 180.4 70.6995 178.1C70.6995 175.8 74.5995 173.9 79.3995 173.9C84.1995 173.9 88.0995 175.8 88.0995 178.1C88.0995 180.4 84.1995 182.3 79.3995 182.3Z" fill="#F58220"/>
<path fill-rule="evenodd" clip-rule="evenodd" d="M75.1995 191C75.1995 186.2 77.0995 182.3 79.3995 182.3C81.6995 182.3 83.5995 186.2 83.5995 191C83.5995 195.8 81.6995 199.7 79.3995 199.7C77.0995 199.7 75.1995 195.8 75.1995 191Z" fill="#F58220"/>
<path fill-rule="evenodd" clip-rule="evenodd" d="M52.2999 184.3C63.4999 184.3 72.4999 187.8 72.4999 192C72.4999 196.3 63.3999 199.7 52.2999 199.7C41.0999 199.7 32.0999 196.2 32.0999 192C32.0999 187.7 41.0999 184.3 52.2999 184.3Z" fill="#F58220"/>
<path fill-rule="evenodd" clip-rule="evenodd" d="M44.8999 176.1C53.8999 176.1 61.1998 178 61.1998 180.3C61.1998 182.6 53.8999 184.5 44.8999 184.5C35.8999 184.5 28.5999 182.6 28.5999 180.3C28.5999 178 35.8999 176.1 44.8999 176.1Z" fill="#F58220"/>
<path fill-rule="evenodd" clip-rule="evenodd" d="M55.4 168.4C60.2 168.4 64.0999 170.3 64.0999 172.6C64.0999 174.9 60.2 176.8 55.4 176.8C50.6 176.8 46.6999 174.9 46.6999 172.6C46.5999 170.3 50.5 168.4 55.4 168.4Z" fill="#F58220"/>
<path fill-rule="evenodd" clip-rule="evenodd" d="M59.5999 159.7C59.5999 164.5 57.6999 168.4 55.3999 168.4C53.0999 168.4 51.1998 164.5 51.1998 159.7C51.1998 154.9 53.0999 151 55.3999 151C57.6999 151 59.5999 154.9 59.5999 159.7Z" fill="#F58220"/>
<path fill-rule="evenodd" clip-rule="evenodd" d="M20.6997 166.4C9.49971 166.4 0.499756 162.9 0.499756 158.7C0.499756 154.4 9.59971 151 20.6997 151C31.8997 151 40.8998 154.5 40.8998 158.7C40.8998 163 31.8997 166.4 20.6997 166.4Z" fill="#F58220"/>
<path fill-rule="evenodd" clip-rule="evenodd" d="M28.0997 174.6C19.0997 174.6 11.7998 172.7 11.7998 170.4C11.7998 168.1 19.0997 166.2 28.0997 166.2C37.0997 166.2 44.3998 168.1 44.3998 170.4C44.3998 172.7 37.0997 174.6 28.0997 174.6Z" fill="#F58220"/>
<path fill-rule="evenodd" clip-rule="evenodd" d="M17.5997 182.3C12.7997 182.3 8.89978 180.4 8.89978 178.1C8.89978 175.8 12.7997 173.9 17.5997 173.9C22.3997 173.9 26.2998 175.8 26.2998 178.1C26.3998 180.4 22.3997 182.3 17.5997 182.3Z" fill="#F58220"/>
<path fill-rule="evenodd" clip-rule="evenodd" d="M13.3998 191C13.3998 186.2 15.2997 182.3 17.5997 182.3C19.8997 182.3 21.7998 186.2 21.7998 191C21.7998 195.8 19.8997 199.7 17.5997 199.7C15.2997 199.7 13.3998 195.8 13.3998 191Z" fill="#F58220"/>
<path fill-rule="evenodd" clip-rule="evenodd" d="M386.4 216.7C375.2 216.7 366.2 213.2 366.2 209C366.2 204.7 375.3 201.3 386.4 201.3C397.6 201.3 406.6 204.8 406.6 209C406.6 213.3 397.5 216.7 386.4 216.7Z" fill="#F58220"/>
<path fill-rule="evenodd" clip-rule="evenodd" d="M393.7 224.9C384.7 224.9 377.4 223 377.4 220.7C377.4 218.4 384.7 216.5 393.7 216.5C402.7 216.5 410 218.4 410 220.7C410 223 402.7 224.9 393.7 224.9Z" fill="#F58220"/>
<path fill-rule="evenodd" clip-rule="evenodd" d="M383.3 232.6C378.5 232.6 374.6 230.7 374.6 228.4C374.6 226.1 378.5 224.2 383.3 224.2C388.1 224.2 392 226.1 392 228.4C392 230.7 388.1 232.6 383.3 232.6Z" fill="#F58220"/>
<path fill-rule="evenodd" clip-rule="evenodd" d="M379.1 241.3C379.1 236.5 381 232.6 383.3 232.6C385.6 232.6 387.5 236.5 387.5 241.3C387.5 246.1 385.6 250 383.3 250C381 250 379.1 246.1 379.1 241.3Z" fill="#F58220"/>
<path fill-rule="evenodd" clip-rule="evenodd" d="M357.2 234.6C368.4 234.6 377.4 238.1 377.4 242.3C377.4 246.6 368.3 250 357.2 250C346 250 337 246.5 337 242.3C336.9 238 346 234.6 357.2 234.6Z" fill="#F58220"/>
<path fill-rule="evenodd" clip-rule="evenodd" d="M349.8 226.4C358.8 226.4 366.1 228.3 366.1 230.6C366.1 232.9 358.8 234.8 349.8 234.8C340.8 234.8 333.5 232.9 333.5 230.6C333.5 228.3 340.8 226.4 349.8 226.4Z" fill="#F58220"/>
<path fill-rule="evenodd" clip-rule="evenodd" d="M360.2 218.7C365 218.7 368.9 220.6 368.9 222.9C368.9 225.2 365 227.1 360.2 227.1C355.4 227.1 351.5 225.2 351.5 222.9C351.5 220.6 355.4 218.7 360.2 218.7Z" fill="#F58220"/>
<path fill-rule="evenodd" clip-rule="evenodd" d="M364.5 210C364.5 214.8 362.6 218.7 360.3 218.7C358 218.7 356.1 214.8 356.1 210C356.1 205.2 358 201.3 360.3 201.3C362.6 201.3 364.5 205.2 364.5 210Z" fill="#F58220"/>
<path fill-rule="evenodd" clip-rule="evenodd" d="M325.6 216.7C314.4 216.7 305.4 213.2 305.4 209C305.4 204.7 314.5 201.3 325.6 201.3C336.8 201.3 345.8 204.8 345.8 209C345.8 213.3 336.8 216.7 325.6 216.7Z" fill="#F58220"/>
<path fill-rule="evenodd" clip-rule="evenodd" d="M332.9 224.9C323.9 224.9 316.6 223 316.6 220.7C316.6 218.4 323.9 216.5 332.9 216.5C341.9 216.5 349.2 218.4 349.2 220.7C349.2 223 341.9 224.9 332.9 224.9Z" fill="#F58220"/>
<path fill-rule="evenodd" clip-rule="evenodd" d="M322.5 232.6C317.7 232.6 313.8 230.7 313.8 228.4C313.8 226.1 317.7 224.2 322.5 224.2C327.3 224.2 331.2 226.1 331.2 228.4C331.2 230.7 327.3 232.6 322.5 232.6Z" fill="#F58220"/>
<path fill-rule="evenodd" clip-rule="evenodd" d="M318.3 241.3C318.3 236.5 320.2 232.6 322.5 232.6C324.8 232.6 326.7 236.5 326.7 241.3C326.7 246.1 324.8 250 322.5 250C320.2 250 318.3 246.1 318.3 241.3Z" fill="#F58220"/>
<path fill-rule="evenodd" clip-rule="evenodd" d="M296.4 234.6C307.6 234.6 316.599 238.1 316.599 242.3C316.599 246.6 307.5 250 296.4 250C285.2 250 276.199 246.5 276.199 242.3C276.199 238 285.2 234.6 296.4 234.6Z" fill="#F58220"/>
<path fill-rule="evenodd" clip-rule="evenodd" d="M289.099 226.4C298.099 226.4 305.4 228.3 305.4 230.6C305.4 232.9 298.099 234.8 289.099 234.8C280.099 234.8 272.8 232.9 272.8 230.6C272.8 228.3 279.999 226.4 289.099 226.4Z" fill="#F58220"/>
<path fill-rule="evenodd" clip-rule="evenodd" d="M299.5 218.7C304.3 218.7 308.199 220.6 308.199 222.9C308.199 225.2 304.3 227.1 299.5 227.1C294.7 227.1 290.8 225.2 290.8 222.9C290.8 220.6 294.7 218.7 299.5 218.7Z" fill="#F58220"/>
<path fill-rule="evenodd" clip-rule="evenodd" d="M303.699 210C303.699 214.8 301.8 218.7 299.5 218.7C297.2 218.7 295.3 214.8 295.3 210C295.3 205.2 297.2 201.3 299.5 201.3C301.8 201.3 303.699 205.2 303.699 210Z" fill="#F58220"/>
<path fill-rule="evenodd" clip-rule="evenodd" d="M264.8 216.7C253.6 216.7 244.6 213.2 244.6 209C244.6 204.7 253.7 201.3 264.8 201.3C276 201.3 285 204.8 285 209C285.1 213.3 276 216.7 264.8 216.7Z" fill="#F58220"/>
<path fill-rule="evenodd" clip-rule="evenodd" d="M272.2 224.9C263.2 224.9 255.9 223 255.9 220.7C255.9 218.4 263.2 216.5 272.2 216.5C281.2 216.5 288.5 218.4 288.5 220.7C288.5 223 281.2 224.9 272.2 224.9Z" fill="#F58220"/>
<path fill-rule="evenodd" clip-rule="evenodd" d="M261.7 232.6C256.9 232.6 253 230.7 253 228.4C253 226.1 256.9 224.2 261.7 224.2C266.5 224.2 270.4 226.1 270.4 228.4C270.5 230.7 266.6 232.6 261.7 232.6Z" fill="#F58220"/>
<path fill-rule="evenodd" clip-rule="evenodd" d="M257.5 241.3C257.5 236.5 259.4 232.6 261.7 232.6C264 232.6 265.9 236.5 265.9 241.3C265.9 246.1 264 250 261.7 250C259.4 250 257.5 246.1 257.5 241.3Z" fill="#F58220"/>
<path fill-rule="evenodd" clip-rule="evenodd" d="M235.6 234.6C246.8 234.6 255.8 238.1 255.8 242.3C255.8 246.6 246.7 250 235.6 250C224.4 250 215.4 246.5 215.4 242.3C215.4 238 224.5 234.6 235.6 234.6Z" fill="#F58220"/>
<path fill-rule="evenodd" clip-rule="evenodd" d="M228.3 226.4C237.3 226.4 244.6 228.3 244.6 230.6C244.6 232.9 237.3 234.8 228.3 234.8C219.3 234.8 212 232.9 212 230.6C212 228.3 219.3 226.4 228.3 226.4Z" fill="#F58220"/>
<path fill-rule="evenodd" clip-rule="evenodd" d="M238.7 218.7C243.5 218.7 247.4 220.6 247.4 222.9C247.4 225.2 243.5 227.1 238.7 227.1C233.9 227.1 230 225.2 230 222.9C230 220.6 233.9 218.7 238.7 218.7Z" fill="#F58220"/>
<path fill-rule="evenodd" clip-rule="evenodd" d="M242.9 210C242.9 214.8 241 218.7 238.7 218.7C236.4 218.7 234.5 214.8 234.5 210C234.5 205.2 236.4 201.3 238.7 201.3C241 201.3 242.9 205.2 242.9 210Z" fill="#F58220"/>
<path fill-rule="evenodd" clip-rule="evenodd" d="M204 216.7C192.8 216.7 183.8 213.2 183.8 209C183.8 204.7 192.9 201.3 204 201.3C215.2 201.3 224.199 204.8 224.199 209C224.299 213.3 215.2 216.7 204 216.7Z" fill="#F58220"/>
<path fill-rule="evenodd" clip-rule="evenodd" d="M211.4 224.9C202.4 224.9 195.099 223 195.099 220.7C195.099 218.4 202.4 216.5 211.4 216.5C220.4 216.5 227.699 218.4 227.699 220.7C227.699 223 220.4 224.9 211.4 224.9Z" fill="#F58220"/>
<path fill-rule="evenodd" clip-rule="evenodd" d="M201 232.6C196.2 232.6 192.3 230.7 192.3 228.4C192.3 226.1 196.2 224.2 201 224.2C205.8 224.2 209.699 226.1 209.699 228.4C209.699 230.7 205.8 232.6 201 232.6Z" fill="#F58220"/>
<path fill-rule="evenodd" clip-rule="evenodd" d="M196.8 241.3C196.8 236.5 198.7 232.6 201 232.6C203.3 232.6 205.199 236.5 205.199 241.3C205.199 246.1 203.3 250 201 250C198.7 250 196.8 246.1 196.8 241.3Z" fill="#F58220"/>
<path fill-rule="evenodd" clip-rule="evenodd" d="M174.9 234.6C186.1 234.6 195.1 238.1 195.1 242.3C195.1 246.6 186 250 174.9 250C163.7 250 154.7 246.5 154.7 242.3C154.6 238 163.7 234.6 174.9 234.6Z" fill="#F58220"/>
<path fill-rule="evenodd" clip-rule="evenodd" d="M167.5 226.4C176.5 226.4 183.8 228.3 183.8 230.6C183.8 232.9 176.5 234.8 167.5 234.8C158.5 234.8 151.2 232.9 151.2 230.6C151.2 228.3 158.5 226.4 167.5 226.4Z" fill="#F58220"/>
<path fill-rule="evenodd" clip-rule="evenodd" d="M177.9 218.7C182.7 218.7 186.6 220.6 186.6 222.9C186.6 225.2 182.7 227.1 177.9 227.1C173.1 227.1 169.2 225.2 169.2 222.9C169.2 220.6 173.1 218.7 177.9 218.7Z" fill="#F58220"/>
<path fill-rule="evenodd" clip-rule="evenodd" d="M182.1 210C182.1 214.8 180.2 218.7 177.9 218.7C175.6 218.7 173.7 214.8 173.7 210C173.7 205.2 175.6 201.3 177.9 201.3C180.3 201.3 182.1 205.2 182.1 210Z" fill="#F58220"/>
<path fill-rule="evenodd" clip-rule="evenodd" d="M143.3 216.7C132.1 216.7 123.1 213.2 123.1 209C123.1 204.7 132.2 201.3 143.3 201.3C154.5 201.3 163.5 204.8 163.5 209C163.5 213.3 154.4 216.7 143.3 216.7Z" fill="#F58220"/>
<path fill-rule="evenodd" clip-rule="evenodd" d="M150.6 224.9C141.6 224.9 134.3 223 134.3 220.7C134.3 218.4 141.6 216.5 150.6 216.5C159.6 216.5 166.9 218.4 166.9 220.7C166.9 223 159.6 224.9 150.6 224.9Z" fill="#F58220"/>
<path fill-rule="evenodd" clip-rule="evenodd" d="M140.2 232.6C135.4 232.6 131.5 230.7 131.5 228.4C131.5 226.1 135.4 224.2 140.2 224.2C145 224.2 148.9 226.1 148.9 228.4C148.9 230.7 145 232.6 140.2 232.6Z" fill="#F58220"/>
<path fill-rule="evenodd" clip-rule="evenodd" d="M136 241.3C136 236.5 137.9 232.6 140.2 232.6C142.5 232.6 144.4 236.5 144.4 241.3C144.4 246.1 142.5 250 140.2 250C137.9 250 136 246.1 136 241.3Z" fill="#F58220"/>
<path fill-rule="evenodd" clip-rule="evenodd" d="M114.1 234.6C125.3 234.6 134.3 238.1 134.3 242.3C134.3 246.6 125.2 250 114.1 250C102.9 250 93.8996 246.5 93.8996 242.3C93.7996 238 102.9 234.6 114.1 234.6Z" fill="#F58220"/>
<path fill-rule="evenodd" clip-rule="evenodd" d="M106.7 226.4C115.7 226.4 123 228.3 123 230.6C123 232.9 115.7 234.8 106.7 234.8C97.6996 234.8 90.3997 232.9 90.3997 230.6C90.3997 228.3 97.6996 226.4 106.7 226.4Z" fill="#F58220"/>
<path fill-rule="evenodd" clip-rule="evenodd" d="M117.2 218.7C122 218.7 125.9 220.6 125.9 222.9C125.9 225.2 122 227.1 117.2 227.1C112.4 227.1 108.5 225.2 108.5 222.9C108.4 220.6 112.3 218.7 117.2 218.7Z" fill="#F58220"/>
<path fill-rule="evenodd" clip-rule="evenodd" d="M121.4 210C121.4 214.8 119.5 218.7 117.2 218.7C114.9 218.7 113 214.8 113 210C113 205.2 114.9 201.3 117.2 201.3C119.5 201.3 121.4 205.2 121.4 210Z" fill="#F58220"/>
<path fill-rule="evenodd" clip-rule="evenodd" d="M82.4995 216.7C71.2995 216.7 62.2996 213.2 62.2996 209C62.2996 204.7 71.3995 201.3 82.4995 201.3C93.6995 201.3 102.699 204.8 102.699 209C102.699 213.3 93.6995 216.7 82.4995 216.7Z" fill="#F58220"/>
<path fill-rule="evenodd" clip-rule="evenodd" d="M89.8995 224.9C80.8995 224.9 73.5995 223 73.5995 220.7C73.5995 218.4 80.8995 216.5 89.8995 216.5C98.8995 216.5 106.199 218.4 106.199 220.7C106.199 223 98.8995 224.9 89.8995 224.9Z" fill="#F58220"/>
<path fill-rule="evenodd" clip-rule="evenodd" d="M79.3995 232.6C74.5995 232.6 70.6995 230.7 70.6995 228.4C70.6995 226.1 74.5995 224.2 79.3995 224.2C84.1995 224.2 88.0995 226.1 88.0995 228.4C88.0995 230.7 84.1995 232.6 79.3995 232.6Z" fill="#F58220"/>
<path fill-rule="evenodd" clip-rule="evenodd" d="M75.1995 241.3C75.1995 236.5 77.0995 232.6 79.3995 232.6C81.6995 232.6 83.5995 236.5 83.5995 241.3C83.5995 246.1 81.6995 250 79.3995 250C77.0995 250 75.1995 246.1 75.1995 241.3Z" fill="#F58220"/>
<path fill-rule="evenodd" clip-rule="evenodd" d="M52.2999 234.6C63.4999 234.6 72.4999 238.1 72.4999 242.3C72.4999 246.6 63.3999 250 52.2999 250C41.0999 250 32.0999 246.5 32.0999 242.3C32.0999 238 41.0999 234.6 52.2999 234.6Z" fill="#F58220"/>
<path fill-rule="evenodd" clip-rule="evenodd" d="M44.8999 226.4C53.8999 226.4 61.1998 228.3 61.1998 230.6C61.1998 232.9 53.8999 234.8 44.8999 234.8C35.8999 234.8 28.5999 232.9 28.5999 230.6C28.5999 228.3 35.8999 226.4 44.8999 226.4Z" fill="#F58220"/>
<path fill-rule="evenodd" clip-rule="evenodd" d="M55.4 218.7C60.2 218.7 64.0999 220.6 64.0999 222.9C64.0999 225.2 60.2 227.1 55.4 227.1C50.6 227.1 46.6999 225.2 46.6999 222.9C46.5999 220.6 50.5 218.7 55.4 218.7Z" fill="#F58220"/>
<path fill-rule="evenodd" clip-rule="evenodd" d="M59.5999 210C59.5999 214.8 57.6999 218.7 55.3999 218.7C53.0999 218.7 51.1998 214.8 51.1998 210C51.1998 205.2 53.0999 201.3 55.3999 201.3C57.6999 201.3 59.5999 205.2 59.5999 210Z" fill="#F58220"/>
<path fill-rule="evenodd" clip-rule="evenodd" d="M20.6997 216.7C9.49971 216.7 0.499756 213.2 0.499756 209C0.499756 204.7 9.59971 201.3 20.6997 201.3C31.8997 201.3 40.8998 204.8 40.8998 209C40.8998 213.3 31.8997 216.7 20.6997 216.7Z" fill="#F58220"/>
<path fill-rule="evenodd" clip-rule="evenodd" d="M28.0997 224.9C19.0997 224.9 11.7998 223 11.7998 220.7C11.7998 218.4 19.0997 216.5 28.0997 216.5C37.0997 216.5 44.3998 218.4 44.3998 220.7C44.3998 223 37.0997 224.9 28.0997 224.9Z" fill="#F58220"/>
<path fill-rule="evenodd" clip-rule="evenodd" d="M17.5997 232.6C12.7997 232.6 8.89978 230.7 8.89978 228.4C8.89978 226.1 12.7997 224.2 17.5997 224.2C22.3997 224.2 26.2998 226.1 26.2998 228.4C26.3998 230.7 22.3997 232.6 17.5997 232.6Z" fill="#F58220"/>
<path fill-rule="evenodd" clip-rule="evenodd" d="M13.3998 241.3C13.3998 236.5 15.2997 232.6 17.5997 232.6C19.8997 232.6 21.7998 236.5 21.7998 241.3C21.7998 246.1 19.8997 250 17.5997 250C15.2997 250 13.3998 246.1 13.3998 241.3Z" fill="#F58220"/>
<path fill-rule="evenodd" clip-rule="evenodd" d="M386.4 267.1C375.2 267.1 366.2 263.6 366.2 259.4C366.2 255.1 375.3 251.7 386.4 251.7C397.6 251.7 406.6 255.2 406.6 259.4C406.6 263.6 397.5 267.1 386.4 267.1Z" fill="#F58220"/>
<path fill-rule="evenodd" clip-rule="evenodd" d="M393.7 275.2C384.7 275.2 377.4 273.3 377.4 271C377.4 268.7 384.7 266.8 393.7 266.8C402.7 266.8 410 268.7 410 271C410 273.3 402.7 275.2 393.7 275.2Z" fill="#F58220"/>
<path fill-rule="evenodd" clip-rule="evenodd" d="M383.3 282.9C378.5 282.9 374.6 281 374.6 278.7C374.6 276.4 378.5 274.5 383.3 274.5C388.1 274.5 392 276.4 392 278.7C392 281 388.1 282.9 383.3 282.9Z" fill="#F58220"/>
<path fill-rule="evenodd" clip-rule="evenodd" d="M379.1 291.6C379.1 286.8 381 282.9 383.3 282.9C385.6 282.9 387.5 286.8 387.5 291.6C387.5 296.4 385.6 300.3 383.3 300.3C381 300.4 379.1 296.5 379.1 291.6Z" fill="#F58220"/>
<path fill-rule="evenodd" clip-rule="evenodd" d="M357.2 284.9C368.4 284.9 377.4 288.4 377.4 292.6C377.4 296.9 368.3 300.3 357.2 300.3C346 300.3 337 296.8 337 292.6C336.9 288.4 346 284.9 357.2 284.9Z" fill="#F58220"/>
<path fill-rule="evenodd" clip-rule="evenodd" d="M349.8 276.7C358.8 276.7 366.1 278.6 366.1 280.9C366.1 283.2 358.8 285.1 349.8 285.1C340.8 285.1 333.5 283.2 333.5 280.9C333.5 278.6 340.8 276.7 349.8 276.7Z" fill="#F58220"/>
<path fill-rule="evenodd" clip-rule="evenodd" d="M360.2 269C365 269 368.9 270.9 368.9 273.2C368.9 275.5 365 277.4 360.2 277.4C355.4 277.4 351.5 275.5 351.5 273.2C351.5 270.9 355.4 269 360.2 269Z" fill="#F58220"/>
<path fill-rule="evenodd" clip-rule="evenodd" d="M364.5 260.3C364.5 265.1 362.6 269 360.3 269C358 269 356.1 265.1 356.1 260.3C356.1 255.5 358 251.6 360.3 251.6C362.6 251.6 364.5 255.5 364.5 260.3Z" fill="#F58220"/>
<path fill-rule="evenodd" clip-rule="evenodd" d="M325.6 267.1C314.4 267.1 305.4 263.6 305.4 259.4C305.4 255.1 314.5 251.7 325.6 251.7C336.8 251.7 345.8 255.2 345.8 259.4C345.8 263.6 336.8 267.1 325.6 267.1Z" fill="#F58220"/>
<path fill-rule="evenodd" clip-rule="evenodd" d="M332.9 275.2C323.9 275.2 316.6 273.3 316.6 271C316.6 268.7 323.9 266.8 332.9 266.8C341.9 266.8 349.2 268.7 349.2 271C349.2 273.3 341.9 275.2 332.9 275.2Z" fill="#F58220"/>
<path fill-rule="evenodd" clip-rule="evenodd" d="M322.5 282.9C317.7 282.9 313.8 281 313.8 278.7C313.8 276.4 317.7 274.5 322.5 274.5C327.3 274.5 331.2 276.4 331.2 278.7C331.2 281 327.3 282.9 322.5 282.9Z" fill="#F58220"/>
<path fill-rule="evenodd" clip-rule="evenodd" d="M318.3 291.6C318.3 286.8 320.2 282.9 322.5 282.9C324.8 282.9 326.7 286.8 326.7 291.6C326.7 296.4 324.8 300.3 322.5 300.3C320.2 300.4 318.3 296.5 318.3 291.6Z" fill="#F58220"/>
<path fill-rule="evenodd" clip-rule="evenodd" d="M296.4 284.9C307.6 284.9 316.599 288.4 316.599 292.6C316.599 296.9 307.5 300.3 296.4 300.3C285.2 300.3 276.199 296.8 276.199 292.6C276.199 288.4 285.2 284.9 296.4 284.9Z" fill="#F58220"/>
<path fill-rule="evenodd" clip-rule="evenodd" d="M289.099 276.7C298.099 276.7 305.4 278.6 305.4 280.9C305.4 283.2 298.099 285.1 289.099 285.1C280.099 285.1 272.8 283.2 272.8 280.9C272.8 278.6 279.999 276.7 289.099 276.7Z" fill="#F58220"/>
<path fill-rule="evenodd" clip-rule="evenodd" d="M299.5 269C304.3 269 308.199 270.9 308.199 273.2C308.199 275.5 304.3 277.4 299.5 277.4C294.7 277.4 290.8 275.5 290.8 273.2C290.8 270.9 294.7 269 299.5 269Z" fill="#F58220"/>
<path fill-rule="evenodd" clip-rule="evenodd" d="M303.699 260.3C303.699 265.1 301.8 269 299.5 269C297.2 269 295.3 265.1 295.3 260.3C295.3 255.5 297.2 251.6 299.5 251.6C301.8 251.6 303.699 255.5 303.699 260.3Z" fill="#F58220"/>
<path fill-rule="evenodd" clip-rule="evenodd" d="M264.8 267.1C253.6 267.1 244.6 263.6 244.6 259.4C244.6 255.1 253.7 251.7 264.8 251.7C276 251.7 285 255.2 285 259.4C285.1 263.6 276 267.1 264.8 267.1Z" fill="#F58220"/>
<path fill-rule="evenodd" clip-rule="evenodd" d="M272.2 275.2C263.2 275.2 255.9 273.3 255.9 271C255.9 268.7 263.2 266.8 272.2 266.8C281.2 266.8 288.5 268.7 288.5 271C288.5 273.3 281.2 275.2 272.2 275.2Z" fill="#F58220"/>
<path fill-rule="evenodd" clip-rule="evenodd" d="M261.7 282.9C256.9 282.9 253 281 253 278.7C253 276.4 256.9 274.5 261.7 274.5C266.5 274.5 270.4 276.4 270.4 278.7C270.5 281 266.6 282.9 261.7 282.9Z" fill="#F58220"/>
<path fill-rule="evenodd" clip-rule="evenodd" d="M257.5 291.6C257.5 286.8 259.4 282.9 261.7 282.9C264 282.9 265.9 286.8 265.9 291.6C265.9 296.4 264 300.3 261.7 300.3C259.4 300.4 257.5 296.5 257.5 291.6Z" fill="#F58220"/>
<path fill-rule="evenodd" clip-rule="evenodd" d="M235.6 284.9C246.8 284.9 255.8 288.4 255.8 292.6C255.8 296.9 246.7 300.3 235.6 300.3C224.4 300.3 215.4 296.8 215.4 292.6C215.4 288.4 224.5 284.9 235.6 284.9Z" fill="#F58220"/>
<path fill-rule="evenodd" clip-rule="evenodd" d="M228.3 276.7C237.3 276.7 244.6 278.6 244.6 280.9C244.6 283.2 237.3 285.1 228.3 285.1C219.3 285.1 212 283.2 212 280.9C212 278.6 219.3 276.7 228.3 276.7Z" fill="#F58220"/>
<path fill-rule="evenodd" clip-rule="evenodd" d="M238.7 269C243.5 269 247.4 270.9 247.4 273.2C247.4 275.5 243.5 277.4 238.7 277.4C233.9 277.4 230 275.5 230 273.2C230 270.9 233.9 269 238.7 269Z" fill="#F58220"/>
<path fill-rule="evenodd" clip-rule="evenodd" d="M242.9 260.3C242.9 265.1 241 269 238.7 269C236.4 269 234.5 265.1 234.5 260.3C234.5 255.5 236.4 251.6 238.7 251.6C241 251.6 242.9 255.5 242.9 260.3Z" fill="#F58220"/>
<path fill-rule="evenodd" clip-rule="evenodd" d="M204 267.1C192.8 267.1 183.8 263.6 183.8 259.4C183.8 255.1 192.9 251.7 204 251.7C215.2 251.7 224.199 255.2 224.199 259.4C224.299 263.6 215.2 267.1 204 267.1Z" fill="#F58220"/>
<path fill-rule="evenodd" clip-rule="evenodd" d="M211.4 275.2C202.4 275.2 195.099 273.3 195.099 271C195.099 268.7 202.4 266.8 211.4 266.8C220.4 266.8 227.699 268.7 227.699 271C227.699 273.3 220.4 275.2 211.4 275.2Z" fill="#F58220"/>
<path fill-rule="evenodd" clip-rule="evenodd" d="M201 282.9C196.2 282.9 192.3 281 192.3 278.7C192.3 276.4 196.2 274.5 201 274.5C205.8 274.5 209.699 276.4 209.699 278.7C209.699 281 205.8 282.9 201 282.9Z" fill="#F58220"/>
<path fill-rule="evenodd" clip-rule="evenodd" d="M196.8 291.6C196.8 286.8 198.7 282.9 201 282.9C203.3 282.9 205.199 286.8 205.199 291.6C205.199 296.4 203.3 300.3 201 300.3C198.7 300.4 196.8 296.5 196.8 291.6Z" fill="#F58220"/>
<path fill-rule="evenodd" clip-rule="evenodd" d="M174.9 284.9C186.1 284.9 195.1 288.4 195.1 292.6C195.1 296.9 186 300.3 174.9 300.3C163.7 300.3 154.7 296.8 154.7 292.6C154.6 288.4 163.7 284.9 174.9 284.9Z" fill="#F58220"/>
<path fill-rule="evenodd" clip-rule="evenodd" d="M167.5 276.7C176.5 276.7 183.8 278.6 183.8 280.9C183.8 283.2 176.5 285.1 167.5 285.1C158.5 285.1 151.2 283.2 151.2 280.9C151.2 278.6 158.5 276.7 167.5 276.7Z" fill="#F58220"/>
<path fill-rule="evenodd" clip-rule="evenodd" d="M177.9 269C182.7 269 186.6 270.9 186.6 273.2C186.6 275.5 182.7 277.4 177.9 277.4C173.1 277.4 169.2 275.5 169.2 273.2C169.2 270.9 173.1 269 177.9 269Z" fill="#F58220"/>
<path fill-rule="evenodd" clip-rule="evenodd" d="M182.1 260.3C182.1 265.1 180.2 269 177.9 269C175.6 269 173.7 265.1 173.7 260.3C173.7 255.5 175.6 251.6 177.9 251.6C180.3 251.6 182.1 255.5 182.1 260.3Z" fill="#F58220"/>
<path fill-rule="evenodd" clip-rule="evenodd" d="M143.3 267.1C132.1 267.1 123.1 263.6 123.1 259.4C123.1 255.1 132.2 251.7 143.3 251.7C154.5 251.7 163.5 255.2 163.5 259.4C163.5 263.6 154.4 267.1 143.3 267.1Z" fill="#F58220"/>
<path fill-rule="evenodd" clip-rule="evenodd" d="M150.6 275.2C141.6 275.2 134.3 273.3 134.3 271C134.3 268.7 141.6 266.8 150.6 266.8C159.6 266.8 166.9 268.7 166.9 271C166.9 273.3 159.6 275.2 150.6 275.2Z" fill="#F58220"/>
<path fill-rule="evenodd" clip-rule="evenodd" d="M140.2 282.9C135.4 282.9 131.5 281 131.5 278.7C131.5 276.4 135.4 274.5 140.2 274.5C145 274.5 148.9 276.4 148.9 278.7C148.9 281 145 282.9 140.2 282.9Z" fill="#F58220"/>
<path fill-rule="evenodd" clip-rule="evenodd" d="M136 291.6C136 286.8 137.9 282.9 140.2 282.9C142.5 282.9 144.4 286.8 144.4 291.6C144.4 296.4 142.5 300.3 140.2 300.3C137.9 300.4 136 296.5 136 291.6Z" fill="#F58220"/>
<path fill-rule="evenodd" clip-rule="evenodd" d="M114.1 284.9C125.3 284.9 134.3 288.4 134.3 292.6C134.3 296.9 125.2 300.3 114.1 300.3C102.9 300.3 93.8996 296.8 93.8996 292.6C93.7996 288.4 102.9 284.9 114.1 284.9Z" fill="#F58220"/>
<path fill-rule="evenodd" clip-rule="evenodd" d="M106.7 276.7C115.7 276.7 123 278.6 123 280.9C123 283.2 115.7 285.1 106.7 285.1C97.6996 285.1 90.3997 283.2 90.3997 280.9C90.3997 278.6 97.6996 276.7 106.7 276.7Z" fill="#F58220"/>
<path fill-rule="evenodd" clip-rule="evenodd" d="M117.2 269C122 269 125.9 270.9 125.9 273.2C125.9 275.5 122 277.4 117.2 277.4C112.4 277.4 108.5 275.5 108.5 273.2C108.4 270.9 112.3 269 117.2 269Z" fill="#F58220"/>
<path fill-rule="evenodd" clip-rule="evenodd" d="M121.4 260.3C121.4 265.1 119.5 269 117.2 269C114.9 269 113 265.1 113 260.3C113 255.5 114.9 251.6 117.2 251.6C119.5 251.6 121.4 255.5 121.4 260.3Z" fill="#F58220"/>
<path fill-rule="evenodd" clip-rule="evenodd" d="M82.4995 267.1C71.2995 267.1 62.2996 263.6 62.2996 259.4C62.2996 255.1 71.3995 251.7 82.4995 251.7C93.6995 251.7 102.699 255.2 102.699 259.4C102.699 263.6 93.6995 267.1 82.4995 267.1Z" fill="#F58220"/>
<path fill-rule="evenodd" clip-rule="evenodd" d="M89.8995 275.2C80.8995 275.2 73.5995 273.3 73.5995 271C73.5995 268.7 80.8995 266.8 89.8995 266.8C98.8995 266.8 106.199 268.7 106.199 271C106.199 273.3 98.8995 275.2 89.8995 275.2Z" fill="#F58220"/>
<path fill-rule="evenodd" clip-rule="evenodd" d="M79.3995 282.9C74.5995 282.9 70.6995 281 70.6995 278.7C70.6995 276.4 74.5995 274.5 79.3995 274.5C84.1995 274.5 88.0995 276.4 88.0995 278.7C88.0995 281 84.1995 282.9 79.3995 282.9Z" fill="#F58220"/>
<path fill-rule="evenodd" clip-rule="evenodd" d="M75.1995 291.6C75.1995 286.8 77.0995 282.9 79.3995 282.9C81.6995 282.9 83.5995 286.8 83.5995 291.6C83.5995 296.4 81.6995 300.3 79.3995 300.3C77.0995 300.4 75.1995 296.5 75.1995 291.6Z" fill="#F58220"/>
<path fill-rule="evenodd" clip-rule="evenodd" d="M52.2999 284.9C63.4999 284.9 72.4999 288.4 72.4999 292.6C72.4999 296.9 63.3999 300.3 52.2999 300.3C41.0999 300.3 32.0999 296.8 32.0999 292.6C32.0999 288.4 41.0999 284.9 52.2999 284.9Z" fill="#F58220"/>
<path fill-rule="evenodd" clip-rule="evenodd" d="M44.8999 276.7C53.8999 276.7 61.1998 278.6 61.1998 280.9C61.1998 283.2 53.8999 285.1 44.8999 285.1C35.8999 285.1 28.5999 283.2 28.5999 280.9C28.5999 278.6 35.8999 276.7 44.8999 276.7Z" fill="#F58220"/>
<path fill-rule="evenodd" clip-rule="evenodd" d="M55.4 269C60.2 269 64.0999 270.9 64.0999 273.2C64.0999 275.5 60.2 277.4 55.4 277.4C50.6 277.4 46.6999 275.5 46.6999 273.2C46.5999 270.9 50.5 269 55.4 269Z" fill="#F58220"/>
<path fill-rule="evenodd" clip-rule="evenodd" d="M59.5999 260.3C59.5999 265.1 57.6999 269 55.3999 269C53.0999 269 51.1998 265.1 51.1998 260.3C51.1998 255.5 53.0999 251.6 55.3999 251.6C57.6999 251.6 59.5999 255.5 59.5999 260.3Z" fill="#F58220"/>
<path fill-rule="evenodd" clip-rule="evenodd" d="M20.6997 267.1C9.49971 267.1 0.499756 263.6 0.499756 259.4C0.499756 255.1 9.59971 251.7 20.6997 251.7C31.8997 251.7 40.8998 255.2 40.8998 259.4C40.8998 263.6 31.8997 267.1 20.6997 267.1Z" fill="#F58220"/>
<path fill-rule="evenodd" clip-rule="evenodd" d="M28.0997 275.2C19.0997 275.2 11.7998 273.3 11.7998 271C11.7998 268.7 19.0997 266.8 28.0997 266.8C37.0997 266.8 44.3998 268.7 44.3998 271C44.3998 273.3 37.0997 275.2 28.0997 275.2Z" fill="#F58220"/>
<path fill-rule="evenodd" clip-rule="evenodd" d="M17.5997 282.9C12.7997 282.9 8.89978 281 8.89978 278.7C8.89978 276.4 12.7997 274.5 17.5997 274.5C22.3997 274.5 26.2998 276.4 26.2998 278.7C26.3998 281 22.3997 282.9 17.5997 282.9Z" fill="#F58220"/>
<path fill-rule="evenodd" clip-rule="evenodd" d="M13.3998 291.6C13.3998 286.8 15.2997 282.9 17.5997 282.9C19.8997 282.9 21.7998 286.8 21.7998 291.6C21.7998 296.4 19.8997 300.3 17.5997 300.3C15.2997 300.4 13.3998 296.5 13.3998 291.6Z" fill="#F58220"/>
<path fill-rule="evenodd" clip-rule="evenodd" d="M386.4 317.4C375.2 317.4 366.2 313.9 366.2 309.7C366.2 305.4 375.3 302 386.4 302C397.6 302 406.6 305.5 406.6 309.7C406.6 313.9 397.5 317.4 386.4 317.4Z" fill="#F58220"/>
<path fill-rule="evenodd" clip-rule="evenodd" d="M393.7 325.6C384.7 325.6 377.4 323.7 377.4 321.4C377.4 319.1 384.7 317.2 393.7 317.2C402.7 317.2 410 319.1 410 321.4C410 323.7 402.7 325.6 393.7 325.6Z" fill="#F58220"/>
<path fill-rule="evenodd" clip-rule="evenodd" d="M383.3 333.2C378.5 333.2 374.6 331.3 374.6 329C374.6 326.7 378.5 324.8 383.3 324.8C388.1 324.8 392 326.7 392 329C392 331.4 388.1 333.2 383.3 333.2Z" fill="#F58220"/>
<path fill-rule="evenodd" clip-rule="evenodd" d="M379.1 342C379.1 337.2 381 333.3 383.3 333.3C385.6 333.3 387.5 337.2 387.5 342C387.5 346.8 385.6 350.7 383.3 350.7C381 350.7 379.1 346.8 379.1 342Z" fill="#F58220"/>
<path fill-rule="evenodd" clip-rule="evenodd" d="M357.2 335.2C368.4 335.2 377.4 338.7 377.4 342.9C377.4 347.2 368.3 350.6 357.2 350.6C346 350.6 337 347.1 337 342.9C336.9 338.7 346 335.2 357.2 335.2Z" fill="#F58220"/>
<path fill-rule="evenodd" clip-rule="evenodd" d="M349.8 327C358.8 327 366.1 328.9 366.1 331.2C366.1 333.5 358.8 335.4 349.8 335.4C340.8 335.4 333.5 333.5 333.5 331.2C333.5 328.9 340.8 327 349.8 327Z" fill="#F58220"/>
<path fill-rule="evenodd" clip-rule="evenodd" d="M360.2 319.3C365 319.3 368.9 321.2 368.9 323.5C368.9 325.8 365 327.7 360.2 327.7C355.4 327.7 351.5 325.8 351.5 323.5C351.5 321.2 355.4 319.3 360.2 319.3Z" fill="#F58220"/>
<path fill-rule="evenodd" clip-rule="evenodd" d="M364.5 310.6C364.5 315.4 362.6 319.3 360.3 319.3C358 319.3 356.1 315.4 356.1 310.6C356.1 305.8 358 301.9 360.3 301.9C362.6 301.9 364.5 305.8 364.5 310.6Z" fill="#F58220"/>
<path fill-rule="evenodd" clip-rule="evenodd" d="M325.6 317.4C314.4 317.4 305.4 313.9 305.4 309.7C305.4 305.4 314.5 302 325.6 302C336.8 302 345.8 305.5 345.8 309.7C345.8 313.9 336.8 317.4 325.6 317.4Z" fill="#F58220"/>
<path fill-rule="evenodd" clip-rule="evenodd" d="M332.9 325.6C323.9 325.6 316.6 323.7 316.6 321.4C316.6 319.1 323.9 317.2 332.9 317.2C341.9 317.2 349.2 319.1 349.2 321.4C349.2 323.7 341.9 325.6 332.9 325.6Z" fill="#F58220"/>
<path fill-rule="evenodd" clip-rule="evenodd" d="M322.5 333.2C317.7 333.2 313.8 331.3 313.8 329C313.8 326.7 317.7 324.8 322.5 324.8C327.3 324.8 331.2 326.7 331.2 329C331.2 331.4 327.3 333.2 322.5 333.2Z" fill="#F58220"/>
<path fill-rule="evenodd" clip-rule="evenodd" d="M318.3 342C318.3 337.2 320.2 333.3 322.5 333.3C324.8 333.3 326.7 337.2 326.7 342C326.7 346.8 324.8 350.7 322.5 350.7C320.2 350.7 318.3 346.8 318.3 342Z" fill="#F58220"/>
<path fill-rule="evenodd" clip-rule="evenodd" d="M296.4 335.2C307.6 335.2 316.599 338.7 316.599 342.9C316.599 347.2 307.5 350.6 296.4 350.6C285.2 350.6 276.199 347.1 276.199 342.9C276.199 338.7 285.2 335.2 296.4 335.2Z" fill="#F58220"/>
<path fill-rule="evenodd" clip-rule="evenodd" d="M289.099 327C298.099 327 305.4 328.9 305.4 331.2C305.4 333.5 298.099 335.4 289.099 335.4C280.099 335.4 272.8 333.5 272.8 331.2C272.8 328.9 279.999 327 289.099 327Z" fill="#F58220"/>
<path fill-rule="evenodd" clip-rule="evenodd" d="M299.5 319.3C304.3 319.3 308.199 321.2 308.199 323.5C308.199 325.8 304.3 327.7 299.5 327.7C294.7 327.7 290.8 325.8 290.8 323.5C290.8 321.2 294.7 319.3 299.5 319.3Z" fill="#F58220"/>
<path fill-rule="evenodd" clip-rule="evenodd" d="M303.699 310.6C303.699 315.4 301.8 319.3 299.5 319.3C297.2 319.3 295.3 315.4 295.3 310.6C295.3 305.8 297.2 301.9 299.5 301.9C301.8 301.9 303.699 305.8 303.699 310.6Z" fill="#F58220"/>
<path fill-rule="evenodd" clip-rule="evenodd" d="M264.8 317.4C253.6 317.4 244.6 313.9 244.6 309.7C244.6 305.4 253.7 302 264.8 302C276 302 285 305.5 285 309.7C285.1 313.9 276 317.4 264.8 317.4Z" fill="#F58220"/>
<path fill-rule="evenodd" clip-rule="evenodd" d="M272.2 325.6C263.2 325.6 255.9 323.7 255.9 321.4C255.9 319.1 263.2 317.2 272.2 317.2C281.2 317.2 288.5 319.1 288.5 321.4C288.5 323.7 281.2 325.6 272.2 325.6Z" fill="#F58220"/>
<path fill-rule="evenodd" clip-rule="evenodd" d="M261.7 333.2C256.9 333.2 253 331.3 253 329C253 326.7 256.9 324.8 261.7 324.8C266.5 324.8 270.4 326.7 270.4 329C270.5 331.4 266.6 333.2 261.7 333.2Z" fill="#F58220"/>
<path fill-rule="evenodd" clip-rule="evenodd" d="M257.5 342C257.5 337.2 259.4 333.3 261.7 333.3C264 333.3 265.9 337.2 265.9 342C265.9 346.8 264 350.7 261.7 350.7C259.4 350.7 257.5 346.8 257.5 342Z" fill="#F58220"/>
<path fill-rule="evenodd" clip-rule="evenodd" d="M235.6 335.2C246.8 335.2 255.8 338.7 255.8 342.9C255.8 347.2 246.7 350.6 235.6 350.6C224.4 350.6 215.4 347.1 215.4 342.9C215.4 338.7 224.5 335.2 235.6 335.2Z" fill="#F58220"/>
<path fill-rule="evenodd" clip-rule="evenodd" d="M228.3 327C237.3 327 244.6 328.9 244.6 331.2C244.6 333.5 237.3 335.4 228.3 335.4C219.3 335.4 212 333.5 212 331.2C212 328.9 219.3 327 228.3 327Z" fill="#F58220"/>
<path fill-rule="evenodd" clip-rule="evenodd" d="M238.7 319.3C243.5 319.3 247.4 321.2 247.4 323.5C247.4 325.8 243.5 327.7 238.7 327.7C233.9 327.7 230 325.8 230 323.5C230 321.2 233.9 319.3 238.7 319.3Z" fill="#F58220"/>
<path fill-rule="evenodd" clip-rule="evenodd" d="M242.9 310.6C242.9 315.4 241 319.3 238.7 319.3C236.4 319.3 234.5 315.4 234.5 310.6C234.5 305.8 236.4 301.9 238.7 301.9C241 301.9 242.9 305.8 242.9 310.6Z" fill="#F58220"/>
<path fill-rule="evenodd" clip-rule="evenodd" d="M204 317.4C192.8 317.4 183.8 313.9 183.8 309.7C183.8 305.4 192.9 302 204 302C215.2 302 224.199 305.5 224.199 309.7C224.299 313.9 215.2 317.4 204 317.4Z" fill="#F58220"/>
<path fill-rule="evenodd" clip-rule="evenodd" d="M211.4 325.6C202.4 325.6 195.099 323.7 195.099 321.4C195.099 319.1 202.4 317.2 211.4 317.2C220.4 317.2 227.699 319.1 227.699 321.4C227.699 323.7 220.4 325.6 211.4 325.6Z" fill="#F58220"/>
<path fill-rule="evenodd" clip-rule="evenodd" d="M201 333.2C196.2 333.2 192.3 331.3 192.3 329C192.3 326.7 196.2 324.8 201 324.8C205.8 324.8 209.699 326.7 209.699 329C209.699 331.4 205.8 333.2 201 333.2Z" fill="#F58220"/>
<path fill-rule="evenodd" clip-rule="evenodd" d="M196.8 342C196.8 337.2 198.7 333.3 201 333.3C203.3 333.3 205.199 337.2 205.199 342C205.199 346.8 203.3 350.7 201 350.7C198.7 350.7 196.8 346.8 196.8 342Z" fill="#F58220"/>
<path fill-rule="evenodd" clip-rule="evenodd" d="M174.9 335.2C186.1 335.2 195.1 338.7 195.1 342.9C195.1 347.2 186 350.6 174.9 350.6C163.7 350.6 154.7 347.1 154.7 342.9C154.6 338.7 163.7 335.2 174.9 335.2Z" fill="#F58220"/>
<path fill-rule="evenodd" clip-rule="evenodd" d="M167.5 327C176.5 327 183.8 328.9 183.8 331.2C183.8 333.5 176.5 335.4 167.5 335.4C158.5 335.4 151.2 333.5 151.2 331.2C151.2 328.9 158.5 327 167.5 327Z" fill="#F58220"/>
<path fill-rule="evenodd" clip-rule="evenodd" d="M177.9 319.3C182.7 319.3 186.6 321.2 186.6 323.5C186.6 325.8 182.7 327.7 177.9 327.7C173.1 327.7 169.2 325.8 169.2 323.5C169.2 321.2 173.1 319.3 177.9 319.3Z" fill="#F58220"/>
<path fill-rule="evenodd" clip-rule="evenodd" d="M182.1 310.6C182.1 315.4 180.2 319.3 177.9 319.3C175.6 319.3 173.7 315.4 173.7 310.6C173.7 305.8 175.6 301.9 177.9 301.9C180.3 301.9 182.1 305.8 182.1 310.6Z" fill="#F58220"/>
<path fill-rule="evenodd" clip-rule="evenodd" d="M143.3 317.4C132.1 317.4 123.1 313.9 123.1 309.7C123.1 305.4 132.2 302 143.3 302C154.5 302 163.5 305.5 163.5 309.7C163.5 313.9 154.4 317.4 143.3 317.4Z" fill="#F58220"/>
<path fill-rule="evenodd" clip-rule="evenodd" d="M150.6 325.6C141.6 325.6 134.3 323.7 134.3 321.4C134.3 319.1 141.6 317.2 150.6 317.2C159.6 317.2 166.9 319.1 166.9 321.4C166.9 323.7 159.6 325.6 150.6 325.6Z" fill="#F58220"/>
<path fill-rule="evenodd" clip-rule="evenodd" d="M140.2 333.2C135.4 333.2 131.5 331.3 131.5 329C131.5 326.7 135.4 324.8 140.2 324.8C145 324.8 148.9 326.7 148.9 329C148.9 331.4 145 333.2 140.2 333.2Z" fill="#F58220"/>
<path fill-rule="evenodd" clip-rule="evenodd" d="M136 342C136 337.2 137.9 333.3 140.2 333.3C142.5 333.3 144.4 337.2 144.4 342C144.4 346.8 142.5 350.7 140.2 350.7C137.9 350.7 136 346.8 136 342Z" fill="#F58220"/>
<path fill-rule="evenodd" clip-rule="evenodd" d="M114.1 335.2C125.3 335.2 134.3 338.7 134.3 342.9C134.3 347.2 125.2 350.6 114.1 350.6C102.9 350.6 93.8996 347.1 93.8996 342.9C93.7996 338.7 102.9 335.2 114.1 335.2Z" fill="#F58220"/>
<path fill-rule="evenodd" clip-rule="evenodd" d="M106.7 327C115.7 327 123 328.9 123 331.2C123 333.5 115.7 335.4 106.7 335.4C97.6996 335.4 90.3997 333.5 90.3997 331.2C90.3997 328.9 97.6996 327 106.7 327Z" fill="#F58220"/>
<path fill-rule="evenodd" clip-rule="evenodd" d="M117.2 319.3C122 319.3 125.9 321.2 125.9 323.5C125.9 325.8 122 327.7 117.2 327.7C112.4 327.7 108.5 325.8 108.5 323.5C108.4 321.2 112.3 319.3 117.2 319.3Z" fill="#F58220"/>
<path fill-rule="evenodd" clip-rule="evenodd" d="M121.4 310.6C121.4 315.4 119.5 319.3 117.2 319.3C114.9 319.3 113 315.4 113 310.6C113 305.8 114.9 301.9 117.2 301.9C119.5 301.9 121.4 305.8 121.4 310.6Z" fill="#F58220"/>
<path fill-rule="evenodd" clip-rule="evenodd" d="M82.4995 317.4C71.2995 317.4 62.2996 313.9 62.2996 309.7C62.2996 305.4 71.3995 302 82.4995 302C93.6995 302 102.699 305.5 102.699 309.7C102.699 313.9 93.6995 317.4 82.4995 317.4Z" fill="#F58220"/>
<path fill-rule="evenodd" clip-rule="evenodd" d="M89.8995 325.6C80.8995 325.6 73.5995 323.7 73.5995 321.4C73.5995 319.1 80.8995 317.2 89.8995 317.2C98.8995 317.2 106.199 319.1 106.199 321.4C106.199 323.7 98.8995 325.6 89.8995 325.6Z" fill="#F58220"/>
<path fill-rule="evenodd" clip-rule="evenodd" d="M79.3995 333.2C74.5995 333.2 70.6995 331.3 70.6995 329C70.6995 326.7 74.5995 324.8 79.3995 324.8C84.1995 324.8 88.0995 326.7 88.0995 329C88.0995 331.4 84.1995 333.2 79.3995 333.2Z" fill="#F58220"/>
<path fill-rule="evenodd" clip-rule="evenodd" d="M75.1995 342C75.1995 337.2 77.0995 333.3 79.3995 333.3C81.6995 333.3 83.5995 337.2 83.5995 342C83.5995 346.8 81.6995 350.7 79.3995 350.7C77.0995 350.7 75.1995 346.8 75.1995 342Z" fill="#F58220"/>
<path fill-rule="evenodd" clip-rule="evenodd" d="M52.2999 335.2C63.4999 335.2 72.4999 338.7 72.4999 342.9C72.4999 347.2 63.3999 350.6 52.2999 350.6C41.0999 350.6 32.0999 347.1 32.0999 342.9C32.0999 338.7 41.0999 335.2 52.2999 335.2Z" fill="#F58220"/>
<path fill-rule="evenodd" clip-rule="evenodd" d="M44.8999 327C53.8999 327 61.1998 328.9 61.1998 331.2C61.1998 333.5 53.8999 335.4 44.8999 335.4C35.8999 335.4 28.5999 333.5 28.5999 331.2C28.5999 328.9 35.8999 327 44.8999 327Z" fill="#F58220"/>
<path fill-rule="evenodd" clip-rule="evenodd" d="M55.4 319.3C60.2 319.3 64.0999 321.2 64.0999 323.5C64.0999 325.8 60.2 327.7 55.4 327.7C50.6 327.7 46.6999 325.8 46.6999 323.5C46.5999 321.2 50.5 319.3 55.4 319.3Z" fill="#F58220"/>
<path fill-rule="evenodd" clip-rule="evenodd" d="M59.5999 310.6C59.5999 315.4 57.6999 319.3 55.3999 319.3C53.0999 319.3 51.1998 315.4 51.1998 310.6C51.1998 305.8 53.0999 301.9 55.3999 301.9C57.6999 301.9 59.5999 305.8 59.5999 310.6Z" fill="#F58220"/>
<path fill-rule="evenodd" clip-rule="evenodd" d="M20.6997 317.4C9.49971 317.4 0.499756 313.9 0.499756 309.7C0.499756 305.4 9.59971 302 20.6997 302C31.8997 302 40.8998 305.5 40.8998 309.7C40.8998 313.9 31.8997 317.4 20.6997 317.4Z" fill="#F58220"/>
<path fill-rule="evenodd" clip-rule="evenodd" d="M28.0997 325.6C19.0997 325.6 11.7998 323.7 11.7998 321.4C11.7998 319.1 19.0997 317.2 28.0997 317.2C37.0997 317.2 44.3998 319.1 44.3998 321.4C44.3998 323.7 37.0997 325.6 28.0997 325.6Z" fill="#F58220"/>
<path fill-rule="evenodd" clip-rule="evenodd" d="M17.5997 333.2C12.7997 333.2 8.89978 331.3 8.89978 329C8.89978 326.7 12.7997 324.8 17.5997 324.8C22.3997 324.8 26.2998 326.7 26.2998 329C26.3998 331.4 22.3997 333.2 17.5997 333.2Z" fill="#F58220"/>
<path fill-rule="evenodd" clip-rule="evenodd" d="M13.3998 342C13.3998 337.2 15.2997 333.3 17.5997 333.3C19.8997 333.3 21.7998 337.2 21.7998 342C21.7998 346.8 19.8997 350.7 17.5997 350.7C15.2997 350.7 13.3998 346.8 13.3998 342Z" fill="#F58220"/>
</svg>
