<svg width="48" height="48" viewBox="0 0 48 48" fill="none" xmlns="http://www.w3.org/2000/svg">
<g clip-path="url(#clip0_721_5080)">
<path d="M44 0H4C1.79086 0 0 1.79086 0 4V44C0 46.2091 1.79086 48 4 48H44C46.2091 48 48 46.2091 48 44V4C48 1.79086 46.2091 0 44 0Z" fill="#005430" fill-opacity="0.1"/>
<mask id="mask0_721_5080" style="mask-type:alpha" maskUnits="userSpaceOnUse" x="14" y="16" width="20" height="16">
<path d="M32 16C33.11 16 34 16.89 34 18V30C34 31.11 33.11 32 32 32H16C14.89 32 14 31.11 14 30L14.0098 18C14.0098 16.89 14.89 16 16 16H32ZM16 29C16 29.55 16.45 30 17 30H31C31.55 30 32 29.55 32 29V24H16V29ZM16 18V20H32V18H16Z" fill="black"/>
</mask>
<g mask="url(#mask0_721_5080)">
<path d="M36 12H12V36H36V12Z" fill="white"/>
</g>
</g>
<defs>
<clipPath id="clip0_721_5080">
<rect width="48" height="48" fill="white"/>
</clipPath>
</defs>
</svg>
