<svg width="55" height="24" viewBox="0 0 55 24" fill="none" xmlns="http://www.w3.org/2000/svg">
<path fill-rule="evenodd" clip-rule="evenodd" d="M11.6571 16.3843C17.1574 16.3843 21.6218 18.0913 21.6218 20.1922C21.6218 22.2931 17.1574 24.0001 11.6571 24.0001C6.15681 24.0001 1.69238 22.2931 1.69238 20.1922C1.69238 18.0913 6.14222 16.3843 11.6571 16.3843Z" fill="#005430"/>
<path fill-rule="evenodd" clip-rule="evenodd" d="M8.02429 12.3575C12.4595 12.3575 16.0486 13.2913 16.0486 14.4293C16.0486 15.5673 12.4595 16.501 8.02429 16.501C3.58905 16.501 0 15.5673 0 14.4293C0 13.2913 3.60364 12.3575 8.02429 12.3575Z" fill="#005430"/>
<path fill-rule="evenodd" clip-rule="evenodd" d="M13.1598 8.57874C15.5379 8.57874 17.4492 9.51247 17.4492 10.6505C17.4492 11.7884 15.5233 12.7222 13.1598 12.7222C10.7817 12.7222 8.87048 11.7884 8.87048 10.6505C8.87048 9.51247 10.7963 8.57874 13.1598 8.57874Z" fill="#005430"/>
<path fill-rule="evenodd" clip-rule="evenodd" d="M15.2315 4.28943C15.2315 6.66754 14.2978 8.57878 13.1598 8.57878C12.0218 8.57878 11.0881 6.65295 11.0881 4.28943C11.0881 1.91132 12.0218 8.23515e-05 13.1598 8.23515e-05C14.3124 -0.0145073 15.2315 1.91132 15.2315 4.28943Z" fill="#F58220"/>
<path d="M23.9853 1.24023H23.7811V22.7599H23.9853V1.24023Z" fill="#005430"/>
<path d="M25.6049 2.6992V1.24023H32.6225V2.6992H25.6049ZM29.8358 3.69129V9.87729H28.3769V3.69129H29.8358Z" fill="#005430"/>
<path d="M47.8101 10.1107C47.7372 10.169 46.3804 11.4383 44.6296 11.4383C41.6241 11.4383 40.3694 10.169 39.246 9.01644C38.2977 8.05353 37.5536 7.30946 35.8175 7.30946H34.6649V9.86264H33.2059V1.22559H36.9846C38.7062 1.22559 40.1068 2.59701 40.1068 4.26023C40.1068 5.25232 39.5962 6.14228 38.8375 6.69669C39.4065 7.07602 39.8588 7.5283 40.2819 7.96599C41.2886 8.98726 42.2369 9.95018 44.6296 9.95018C45.7822 9.95018 46.7743 9.03103 46.7889 9.01644L47.8101 10.1107ZM38.6479 4.28941C38.6479 3.41403 37.9038 2.71373 36.9846 2.71373H34.6649V5.87967H36.9846C37.9038 5.86508 38.6479 5.15019 38.6479 4.28941Z" fill="#F58220"/>
<path d="M41.5512 5.66082V1.25476H43.0102V5.66082C43.0102 6.31736 43.5646 6.84258 44.2649 6.84258C44.9506 6.84258 45.5196 6.31736 45.5196 5.66082V1.25476H46.9785V5.66082C46.9785 7.11979 45.7676 8.30154 44.2649 8.30154C42.7767 8.30154 41.5512 7.11979 41.5512 5.66082Z" fill="#005430"/>
<path d="M54.6527 1.24023V2.6992H48.3937V1.24023H54.6527ZM53.9232 6.0694V6.36119H48.3937V4.90223H53.9232V6.0694ZM48.3937 8.41833H54.6527V9.87729H48.3937V8.41833Z" fill="#005430"/>
<path d="M30.2005 15.6839C30.2005 16.5009 29.544 17.1574 28.727 17.1574H25.9987V14.2103H28.5665C28.9021 14.2103 29.1938 13.9331 29.1938 13.583C29.1938 13.2474 28.9166 12.9556 28.5665 12.9556H25.9987V12.0948H28.5665C29.3835 12.0948 30.04 12.7514 30.04 13.5684C30.04 13.9477 29.8941 14.2687 29.6753 14.5313C29.9963 14.8085 30.2005 15.2316 30.2005 15.6839ZM29.3543 15.6839C29.3543 15.3483 29.0771 15.0565 28.727 15.0565H26.8449V16.2967H28.727C29.0625 16.2967 29.3543 16.0195 29.3543 15.6839Z" fill="#005430"/>
<path d="M32.7537 13.1454L31.0175 17.1575H30.0838L32.2722 12.1095H33.2352L35.4236 17.1575H34.4899L32.7537 13.1454Z" fill="#005430"/>
<path d="M42.412 17.3618C42.3682 17.3909 41.5658 18.135 40.3111 18.135C39.5086 18.135 38.9396 17.8724 38.3998 17.6244C37.8454 17.3618 37.3202 17.1283 36.5178 17.1283C36.2552 17.1283 35.978 17.1575 35.657 17.2159V12.1095H36.5178V16.2821C37.5245 16.2821 38.1664 16.5739 38.7646 16.8511C39.2752 17.0846 39.6983 17.2888 40.3257 17.2888C41.2302 17.2888 41.8284 16.749 41.8284 16.749L42.412 17.3618Z" fill="#F58220"/>
<path d="M40.1214 13.408L39.1439 16.2384H38.2394L39.6692 12.1095H40.5737L42.0181 16.2384H41.1135L40.1214 13.408Z" fill="#005430"/>
<path d="M47.0369 12.1095V17.1575H46.1761V15.8298L43.4916 13.1308V17.1575H42.6454V12.1095H43.6812L46.1907 14.6335V12.1095H47.0369Z" fill="#005430"/>
<path d="M47.6205 14.5605C47.6205 13.1161 48.8314 11.949 50.305 11.949V12.8098C49.2983 12.8098 48.4813 13.5976 48.4813 14.5605C48.4813 15.538 49.2983 16.3113 50.305 16.3113V17.1721C48.8314 17.1721 47.6205 16.0049 47.6205 14.5605Z" fill="#005430"/>
<path d="M54.6965 12.1095V12.9703H51.0345V12.1095H54.6965ZM54.2734 14.9253V15.1004H51.0345V14.2396H54.2734V14.9253ZM51.0345 16.2967H54.6965V17.1575H51.0345V16.2967Z" fill="#005430"/>
<path d="M27.3847 21.797C26.8303 21.797 26.4218 21.6803 26.1592 21.4614C25.9257 21.2572 25.809 20.9508 25.809 20.5423C25.809 20.2943 25.8528 20.0754 25.9257 19.8712L26.5239 19.769C26.4218 19.9879 26.378 20.2213 26.378 20.4693C26.378 20.7757 26.451 21.0092 26.6114 21.1405C26.7719 21.2864 27.0491 21.3593 27.4431 21.3593H27.7348V19.8274C27.9975 19.769 28.2893 19.7399 28.5956 19.7399C28.9604 19.7399 29.2084 19.8274 29.3689 19.9879C29.5148 20.1338 29.5731 20.3672 29.5731 20.6736V21.3447H29.9379V21.7824H29.0333V20.7174C29.0333 20.5131 29.0041 20.3672 28.9312 20.2797C28.8582 20.1921 28.7415 20.1484 28.5665 20.1484C28.4789 20.1484 28.3768 20.163 28.2893 20.1776V21.7678H27.3847V21.797ZM27.1221 22.6432C27.0637 22.7016 27.0054 22.7307 26.9178 22.7307C26.8449 22.7307 26.7719 22.7016 26.7136 22.6432C26.6552 22.5848 26.626 22.5119 26.626 22.4389C26.626 22.366 26.6552 22.293 26.7136 22.2347C26.7719 22.1763 26.8303 22.1472 26.9178 22.1472C27.0054 22.1472 27.0637 22.1763 27.1221 22.2347C27.1804 22.293 27.2096 22.366 27.2096 22.4389C27.2096 22.5119 27.1804 22.5848 27.1221 22.6432ZM27.837 22.6432C27.7786 22.7016 27.7203 22.7307 27.6327 22.7307C27.5598 22.7307 27.4868 22.7016 27.4285 22.6432C27.3701 22.5848 27.3409 22.5119 27.3409 22.4389C27.3409 22.366 27.3701 22.293 27.4285 22.2347C27.4868 22.1763 27.5452 22.1472 27.6327 22.1472C27.7057 22.1472 27.7786 22.1763 27.837 22.2347C27.8953 22.293 27.9245 22.366 27.9245 22.4389C27.9099 22.5119 27.8953 22.5848 27.837 22.6432Z" fill="#005430"/>
<path d="M29.8795 21.3447H30.0546C30.1421 21.3447 30.2297 21.3447 30.3172 21.3593C30.1859 21.228 30.1275 21.0383 30.1275 20.7903C30.1275 20.4839 30.2297 20.2213 30.4339 20.0316C30.6382 19.8274 30.9008 19.7252 31.2218 19.7252C31.5281 19.7252 31.7762 19.8128 31.9512 19.9732C32.1263 20.1483 32.2139 20.3964 32.2139 20.7319C32.2139 21.0237 32.1263 21.2425 31.9658 21.3739C32.0825 21.3593 32.1993 21.3593 32.2868 21.3593H32.5202V21.797H29.8941V21.3447H29.8795ZM30.6236 19.3751C30.5652 19.3167 30.536 19.2584 30.536 19.1708C30.536 19.0833 30.5652 19.0249 30.6236 18.9666C30.6819 18.9082 30.7403 18.879 30.8278 18.879C30.9154 18.879 30.9737 18.9082 31.0321 18.9666C31.0905 19.0249 31.1196 19.0979 31.1196 19.1708C31.1196 19.2438 31.0905 19.3167 31.0321 19.3751C30.9737 19.4334 30.9154 19.4626 30.8278 19.4626C30.7403 19.4626 30.6674 19.4334 30.6236 19.3751ZM31.499 21.1988C31.5865 21.0967 31.6303 20.9508 31.6303 20.7465C31.6303 20.3672 31.4698 20.1629 31.1634 20.1629C31.0321 20.1629 30.9154 20.2067 30.8278 20.2942C30.7257 20.3964 30.6819 20.5422 30.6819 20.7319C30.6819 21.1404 30.8424 21.3301 31.1488 21.3301C31.2947 21.3447 31.4114 21.3009 31.499 21.1988ZM31.3239 19.3751C31.2655 19.3167 31.2363 19.2584 31.2363 19.1708C31.2363 19.0833 31.2655 19.0249 31.3239 18.9666C31.3822 18.9082 31.4406 18.879 31.5281 18.879C31.6011 18.879 31.674 18.9082 31.7324 18.9666C31.7908 19.0249 31.8199 19.0979 31.8199 19.1708C31.8199 19.2438 31.7908 19.3167 31.7324 19.3751C31.674 19.4334 31.6157 19.4626 31.5281 19.4626C31.4406 19.4626 31.3822 19.4334 31.3239 19.3751Z" fill="#005430"/>
<path d="M32.4327 21.3447H33.0309V19.7836H33.5999V21.3447H34.1835V21.7823H32.4327V21.3447ZM33.0017 22.6431C32.9434 22.7015 32.885 22.7307 32.7975 22.7307C32.7245 22.7307 32.6516 22.7015 32.5932 22.6431C32.5349 22.5848 32.5057 22.5118 32.5057 22.4389C32.5057 22.3659 32.5349 22.293 32.5932 22.2346C32.6516 22.1763 32.7099 22.1471 32.7975 22.1471C32.885 22.1471 32.9434 22.1763 33.0017 22.2346C33.0601 22.293 33.0893 22.3659 33.0893 22.4389C33.0893 22.5118 33.0601 22.5848 33.0017 22.6431ZM33.7166 22.6431C33.6583 22.7015 33.5999 22.7307 33.5124 22.7307C33.4394 22.7307 33.3665 22.7015 33.3081 22.6431C33.2498 22.5848 33.2206 22.5118 33.2206 22.4389C33.2206 22.3659 33.2498 22.293 33.3081 22.2346C33.3665 22.1763 33.4248 22.1471 33.5124 22.1471C33.5853 22.1471 33.6583 22.1763 33.7166 22.2346C33.775 22.293 33.8042 22.3659 33.8042 22.4389C33.7896 22.5118 33.7604 22.5848 33.7166 22.6431Z" fill="#005430"/>
<path d="M34.1105 21.3447H34.2856C34.3731 21.3447 34.4607 21.3447 34.5482 21.3593C34.4169 21.228 34.3586 21.0383 34.3586 20.7903C34.3586 20.4839 34.4607 20.2213 34.6649 20.0316C34.8692 19.8274 35.1318 19.7252 35.4528 19.7252C35.7592 19.7252 36.0072 19.8128 36.1823 19.9732C36.3573 20.1483 36.4449 20.3964 36.4449 20.7319C36.4449 21.0237 36.3573 21.2425 36.1968 21.3739C36.3136 21.3593 36.4303 21.3593 36.5178 21.3593H36.7513V21.797H34.1251V21.3447H34.1105ZM34.8546 19.3751C34.7962 19.3167 34.7671 19.2584 34.7671 19.1708C34.7671 19.0833 34.7962 19.0249 34.8546 18.9666C34.913 18.9082 34.9713 18.879 35.0589 18.879C35.1464 18.879 35.2048 18.9082 35.2631 18.9666C35.3215 19.0249 35.3507 19.0979 35.3507 19.1708C35.3507 19.2438 35.3215 19.3167 35.2631 19.3751C35.2048 19.4334 35.1464 19.4626 35.0589 19.4626C34.9713 19.4626 34.913 19.4334 34.8546 19.3751ZM35.73 21.1988C35.8175 21.0967 35.8613 20.9508 35.8613 20.7465C35.8613 20.3672 35.7008 20.1629 35.3944 20.1629C35.2631 20.1629 35.1464 20.2067 35.0589 20.2942C34.9567 20.3964 34.913 20.5422 34.913 20.7319C34.913 21.1404 35.0735 21.3301 35.3798 21.3301C35.5403 21.3447 35.6424 21.3009 35.73 21.1988ZM35.5695 19.3751C35.5111 19.3167 35.482 19.2584 35.482 19.1708C35.482 19.0833 35.5111 19.0249 35.5695 18.9666C35.6279 18.9082 35.6862 18.879 35.7737 18.879C35.8467 18.879 35.9196 18.9082 35.978 18.9666C36.0364 19.0249 36.0655 19.0979 36.0655 19.1708C36.0655 19.2438 36.0364 19.3167 35.978 19.3751C35.9196 19.4334 35.8613 19.4626 35.7737 19.4626C35.6862 19.4626 35.6133 19.4334 35.5695 19.3751Z" fill="#005430"/>
<path d="M36.6783 21.3447H38.3269C38.3415 21.2279 38.3415 21.1258 38.3415 21.0237C38.3415 20.7465 38.2831 20.5422 38.1518 20.4109C38.0205 20.2796 37.8017 20.2067 37.4953 20.2067C37.3348 20.2067 37.1743 20.2213 36.9993 20.2359V19.7982C37.2035 19.769 37.3786 19.7544 37.5391 19.7544C38.0059 19.7544 38.3561 19.8565 38.5749 20.0754C38.7792 20.2796 38.8813 20.586 38.8813 21.0091C38.8813 21.1258 38.8813 21.2425 38.8667 21.3593H39.2023V21.7969H36.6491V21.3447H36.6783Z" fill="#005430"/>
<path d="M39.1585 21.3446H39.6837V18.7769H40.2527V21.7823H39.1585V21.3446Z" fill="#005430"/>
<path d="M40.9822 18.7769H41.5512V21.7823H40.9822V18.7769Z" fill="#005430"/>
<path d="M45.2132 21.4906C45.2132 22.3514 44.8193 22.7745 44.0169 22.7745C43.2582 22.7745 42.8935 22.366 42.8935 21.5636C42.8935 21.301 42.9227 21.0529 42.9956 20.8049L43.5792 20.7028C43.4917 20.98 43.4625 21.2572 43.4625 21.5198C43.4625 22.0742 43.6667 22.3368 44.0752 22.3368C44.4692 22.3368 44.6734 22.0596 44.6734 21.5198V19.7836H45.2424V21.4906H45.2132ZM43.8126 20.2359C43.7543 20.1776 43.7251 20.1046 43.7251 20.0317C43.7251 19.9441 43.7543 19.8858 43.8126 19.8274C43.871 19.769 43.9439 19.7399 44.0169 19.7399C44.1044 19.7399 44.1628 19.769 44.2211 19.8274C44.2795 19.8858 44.3087 19.9587 44.3087 20.0317C44.3087 20.1192 44.2795 20.1776 44.2211 20.2359C44.1628 20.2943 44.0898 20.3235 44.0169 20.3235C43.9294 20.3235 43.8564 20.2943 43.8126 20.2359Z" fill="#005430"/>
<path d="M45.3591 22.8328L45.4029 22.3805C45.5196 22.4097 45.6363 22.4243 45.7531 22.4243C45.9135 22.4243 46.0157 22.3805 46.0886 22.293C46.1761 22.2055 46.2053 22.045 46.2053 21.8261V19.7836H46.7743V21.8115C46.7743 22.5264 46.4242 22.8766 45.7239 22.8766C45.5926 22.8766 45.4758 22.862 45.3591 22.8328ZM46.2783 19.3459C46.2199 19.2875 46.1907 19.2146 46.1907 19.1416C46.1907 19.0541 46.2199 18.9958 46.2783 18.9374C46.3366 18.879 46.4096 18.8499 46.4825 18.8499C46.5701 18.8499 46.6284 18.879 46.6868 18.9374C46.7451 18.9958 46.7743 19.0687 46.7743 19.1416C46.7743 19.2146 46.7451 19.2875 46.6868 19.3459C46.6284 19.4043 46.5555 19.4334 46.4825 19.4334C46.4096 19.4334 46.3366 19.4043 46.2783 19.3459Z" fill="#005430"/>
<path d="M47.4454 18.7769H48.0144V21.7823H47.4454V18.7769Z" fill="#005430"/>
<path d="M48.4959 22.8183L48.5251 22.3514C48.7439 22.3952 48.9628 22.4244 49.1962 22.4244C49.6923 22.4244 49.9403 22.2347 49.9403 21.8554V21.797H49.6047C48.8461 21.797 48.4667 21.4614 48.4667 20.8049C48.4667 20.4985 48.5543 20.2505 48.7439 20.0608C48.9482 19.842 49.24 19.7399 49.6047 19.7399C49.9403 19.7399 50.2321 19.7836 50.4947 19.8858V21.3593H50.9178V21.797H50.4947V21.8116C50.4947 22.1326 50.3926 22.3806 50.1883 22.5703C49.9549 22.7745 49.6193 22.8766 49.167 22.8766C48.9336 22.8766 48.7148 22.8475 48.4959 22.8183ZM49.9403 20.2505C49.8382 20.1921 49.6923 20.1776 49.5318 20.1776C49.3713 20.1776 49.2546 20.2359 49.1524 20.338C49.0649 20.4402 49.0211 20.5861 49.0211 20.7466C49.0211 21.1405 49.24 21.3447 49.6631 21.3447H49.9403V20.2505Z" fill="#005430"/>
<path d="M50.8448 21.3447H51.443V19.7836H52.012V21.3447H52.3913V21.7824H50.8448V21.3447ZM51.0783 19.3751C51.0199 19.3167 50.9907 19.2584 50.9907 19.1708C50.9907 19.0833 51.0199 19.0249 51.0783 18.9666C51.1366 18.9082 51.195 18.879 51.2825 18.879C51.3701 18.879 51.4284 18.9082 51.4868 18.9666C51.5451 19.0249 51.5743 19.0979 51.5743 19.1708C51.5743 19.2438 51.5451 19.3167 51.4868 19.3751C51.4284 19.4334 51.3701 19.4626 51.2825 19.4626C51.2096 19.4626 51.1366 19.4334 51.0783 19.3751ZM51.7932 19.3751C51.7348 19.3167 51.7056 19.2584 51.7056 19.1708C51.7056 19.0833 51.7348 19.0249 51.7932 18.9666C51.8515 18.9082 51.9099 18.879 51.9974 18.879C52.0704 18.879 52.1433 18.9082 52.2017 18.9666C52.26 19.0249 52.2892 19.0979 52.2892 19.1708C52.2892 19.2438 52.26 19.3167 52.2017 19.3751C52.1433 19.4334 52.085 19.4626 51.9974 19.4626C51.9099 19.4626 51.8515 19.4334 51.7932 19.3751Z" fill="#005430"/>
<path d="M52.3184 21.3446H52.8436V18.7769H53.4126V21.7823H52.3184V21.3446Z" fill="#005430"/>
<path d="M54.1421 18.7769H54.7111V21.7823H54.1421V18.7769Z" fill="#005430"/>
</svg>
