<svg width="48" height="48" viewBox="0 0 48 48" fill="none" xmlns="http://www.w3.org/2000/svg">
<rect width="48" height="48" rx="4" fill="#005430" fill-opacity="0.1"/>
<path d="M24.87 27.07L22.33 24.56L22.36 24.53C24.0541 22.6471 25.3199 20.4193 26.07 18H29V16H22V14H20V16H13V18H24.17C23.5 19.92 22.44 21.75 21 23.35C20.07 22.32 19.3 21.19 18.69 20H16.69C17.42 21.63 18.42 23.17 19.67 24.56L14.58 29.58L16 31L21 26L24.11 29.11L24.87 27.07ZM30.5 22H28.5L24 34H26L27.12 31H31.87L33 34H35L30.5 22ZM27.88 29L29.5 24.67L31.12 29H27.88Z" fill="#005430"/>
</svg>
