<svg width="48" height="48" viewBox="0 0 48 48" fill="none" xmlns="http://www.w3.org/2000/svg">
<g clip-path="url(#clip0_721_5073)">
<path d="M44 0H4C1.79086 0 0 1.79086 0 4V44C0 46.2091 1.79086 48 4 48H44C46.2091 48 48 46.2091 48 44V4C48 1.79086 46.2091 0 44 0Z" fill="#FB3748" fill-opacity="0.1"/>
<mask id="mask0_721_5073" style="mask-type:alpha" maskUnits="userSpaceOnUse" x="15" y="15" width="18" height="18">
<path d="M31 15C32.1 15 33 15.9 33 17V31C33 32.1 32.1 33 31 33H17C15.9 33 15 32.1 15 31V28C15 27.45 15.45 27 16 27C16.55 27 17 27.45 17 28V30C17 30.55 17.45 31 18 31H30C30.55 31 31 30.55 31 30V18C31 17.45 30.55 17 30 17H18C17.45 17 17 17.45 17 18V20C17 20.55 16.55 21 16 21C15.45 21 15 20.55 15 20V17C15 15.9 15.89 15 17 15H31ZM23.4951 19.4072C23.7596 19.4073 24.0134 19.513 24.2002 19.7002L27.79 23.29C28.18 23.68 28.18 24.3102 27.79 24.7002L24.2002 28.29C23.8102 28.68 23.18 28.68 22.79 28.29C22.41 27.91 22.4 27.2699 22.79 26.8799L24.6699 25H16C15.45 25 15 24.55 15 24C15 23.45 15.45 23 16 23H24.6699L22.79 21.1104C22.4001 20.7204 22.4001 20.0902 22.79 19.7002C22.9769 19.5129 23.2306 19.4072 23.4951 19.4072Z" fill="black"/>
</mask>
<g mask="url(#mask0_721_5073)">
<path d="M36 12H12V36H36V12Z" fill="#FB3748"/>
</g>
</g>
<defs>
<clipPath id="clip0_721_5073">
<rect width="48" height="48" fill="white"/>
</clipPath>
</defs>
</svg>
