<svg width="48" height="48" viewBox="0 0 48 48" fill="none" xmlns="http://www.w3.org/2000/svg">
<rect width="48" height="48" rx="4" fill="#005430" fill-opacity="0.1"/>
<path fill-rule="evenodd" clip-rule="evenodd" d="M24 14C26.3869 14 28.6761 14.9482 30.364 16.636C32.0518 18.3239 33 20.6131 33 23C33 26.074 31.324 28.59 29.558 30.395C28.6757 31.2871 27.7129 32.0958 26.682 32.811L26.256 33.101L26.056 33.234L25.679 33.474L25.343 33.679L24.927 33.921C24.6446 34.0822 24.3251 34.1669 24 34.1669C23.6749 34.1669 23.3554 34.0822 23.073 33.921L22.657 33.679L22.137 33.359L21.945 33.234L21.535 32.961C20.4228 32.2085 19.3869 31.3491 18.442 30.395C16.676 28.589 15 26.074 15 23C15 20.6131 15.9482 18.3239 17.636 16.636C19.3239 14.9482 21.6131 14 24 14ZM24 16C22.1435 16 20.363 16.7375 19.0503 18.0503C17.7375 19.363 17 21.1435 17 23C17 25.322 18.272 27.36 19.871 28.996C20.5585 29.692 21.3017 30.3308 22.093 30.906L22.551 31.232C22.699 31.3353 22.8413 31.4313 22.978 31.52L23.368 31.77L23.711 31.979L24 32.148L24.455 31.879L24.822 31.649C25.0173 31.525 25.2263 31.386 25.449 31.232L25.907 30.906C26.6983 30.3308 27.4415 29.692 28.129 28.996C29.728 27.361 31 25.322 31 23C31 21.1435 30.2625 19.363 28.9497 18.0503C27.637 16.7375 25.8565 16 24 16ZM24 19C25.0609 19 26.0783 19.4214 26.8284 20.1716C27.5786 20.9217 28 21.9391 28 23C28 24.0609 27.5786 25.0783 26.8284 25.8284C26.0783 26.5786 25.0609 27 24 27C22.9391 27 21.9217 26.5786 21.1716 25.8284C20.4214 25.0783 20 24.0609 20 23C20 21.9391 20.4214 20.9217 21.1716 20.1716C21.9217 19.4214 22.9391 19 24 19ZM24 21C23.4696 21 22.9609 21.2107 22.5858 21.5858C22.2107 21.9609 22 22.4696 22 23C22 23.5304 22.2107 24.0391 22.5858 24.4142C22.9609 24.7893 23.4696 25 24 25C24.5304 25 25.0391 24.7893 25.4142 24.4142C25.7893 24.0391 26 23.5304 26 23C26 22.4696 25.7893 21.9609 25.4142 21.5858C25.0391 21.2107 24.5304 21 24 21Z" fill="#005430"/>
</svg>
