<svg width="21" height="21" viewBox="0 0 21 21" fill="none" xmlns="http://www.w3.org/2000/svg">
<path d="M13 4.6665V6.33317M13 9.6665V11.3332M13 14.6665V16.3332M4.66667 4.6665H16.3333C16.7754 4.6665 17.1993 4.8421 17.5118 5.15466C17.8244 5.46722 18 5.89114 18 6.33317V8.83317C17.558 8.83317 17.134 9.00877 16.8215 9.32133C16.5089 9.63389 16.3333 10.0578 16.3333 10.4998C16.3333 10.9419 16.5089 11.3658 16.8215 11.6783C17.134 11.9909 17.558 12.1665 18 12.1665V14.6665C18 15.1085 17.8244 15.5325 17.5118 15.845C17.1993 16.1576 16.7754 16.3332 16.3333 16.3332H4.66667C4.22464 16.3332 3.80072 16.1576 3.48816 15.845C3.17559 15.5325 3 15.1085 3 14.6665V12.1665C3.44203 12.1665 3.86595 11.9909 4.17851 11.6783C4.49107 11.3658 4.66667 10.9419 4.66667 10.4998C4.66667 10.0578 4.49107 9.63389 4.17851 9.32133C3.86595 9.00877 3.44203 8.83317 3 8.83317V6.33317C3 5.89114 3.17559 5.46722 3.48816 5.15466C3.80072 4.8421 4.22464 4.6665 4.66667 4.6665Z" stroke="#005430" stroke-width="1.66667" stroke-linecap="round" stroke-linejoin="round"/>
</svg>
