<svg width="32" height="33" viewBox="0 0 32 33" fill="none" xmlns="http://www.w3.org/2000/svg">
<g clip-path="url(#clip0_467_10604)">
<path d="M28.8978 25.2379C28.0406 24.4737 27.2902 23.5977 26.6667 22.6334C25.9853 21.3026 25.5773 19.8489 25.4667 18.3579V13.9668C25.4726 11.6251 24.6231 9.36186 23.078 7.6023C21.5329 5.84274 19.3984 4.70798 17.0756 4.41121V3.26455C17.0756 2.94982 16.9505 2.64799 16.728 2.42545C16.5055 2.2029 16.2036 2.07788 15.8889 2.07788C15.5742 2.07788 15.2723 2.2029 15.0498 2.42545C14.8273 2.64799 14.7022 2.94982 14.7022 3.26455V4.42899C12.4002 4.74715 10.2915 5.88877 8.7667 7.64242C7.24186 9.39607 6.40421 11.6429 6.4089 13.9668V18.3579C6.29828 19.8489 5.89026 21.3026 5.2089 22.6334C4.59635 23.5955 3.85796 24.4714 3.01334 25.2379C2.91853 25.3212 2.84254 25.4237 2.79042 25.5387C2.73831 25.6536 2.71128 25.7783 2.71112 25.9045V27.1134C2.71112 27.3492 2.80477 27.5753 2.97147 27.742C3.13817 27.9087 3.36426 28.0023 3.60001 28.0023H28.3111C28.5469 28.0023 28.773 27.9087 28.9397 27.742C29.1064 27.5753 29.2 27.3492 29.2 27.1134V25.9045C29.1999 25.7783 29.1728 25.6536 29.1207 25.5387C29.0686 25.4237 28.9926 25.3212 28.8978 25.2379ZM4.56001 26.2245C5.38685 25.4254 6.115 24.5302 6.7289 23.5579C7.58738 21.9507 8.08773 20.1768 8.19557 18.3579V13.9668C8.16031 12.925 8.33505 11.8868 8.70938 10.914C9.08371 9.94122 9.64998 9.05369 10.3745 8.30428C11.0989 7.55487 11.9668 6.95892 12.9264 6.5519C13.886 6.14489 14.9177 5.93513 15.96 5.93513C17.0024 5.93513 18.034 6.14489 18.9936 6.5519C19.9532 6.95892 20.8211 7.55487 21.5456 8.30428C22.27 9.05369 22.8363 9.94122 23.2106 10.914C23.585 11.8868 23.7597 12.925 23.7245 13.9668V18.3579C23.8323 20.1768 24.3326 21.9507 25.1911 23.5579C25.805 24.5302 26.5332 25.4254 27.36 26.2245H4.56001Z" fill="#FCFCFC"/>
<path d="M16 30.971C16.5599 30.9581 17.0973 30.7476 17.517 30.3767C17.9367 30.0058 18.2117 29.4984 18.2933 28.9443H13.6178C13.7017 29.5135 13.9896 30.0328 14.4278 30.4056C14.866 30.7784 15.4247 30.9793 16 30.971Z" fill="#FCFCFC"/>
</g>
<defs>
<clipPath id="clip0_467_10604">
<rect width="32" height="32" fill="white" transform="translate(0 0.5)"/>
</clipPath>
</defs>
</svg>
