<svg width="36" height="36" viewBox="0 0 36 36" fill="none" xmlns="http://www.w3.org/2000/svg">
<rect width="36" height="36" rx="8" fill="#005430" fill-opacity="0.1"/>
<path d="M11.3335 16.6667V16H10.6668V16.6667H11.3335ZM16.6668 16.6667V16H16.0002V16.6667H16.6668ZM16.6668 22H16.0002V22.6667H16.6668V22ZM26.0002 12.6667H26.6668V12.3907L26.4722 12.1947L26.0002 12.6667ZM22.0002 8.66667L22.4722 8.19467L22.2762 8H22.0002V8.66667ZM11.3335 17.3333H12.6668V16H11.3335V17.3333ZM12.0002 22.6667V19.3333H10.6668V22.6667H12.0002ZM12.0002 19.3333V16.6667H10.6668V19.3333H12.0002ZM12.6668 18.6667H11.3335V20H12.6668V18.6667ZM13.3335 18C13.3335 18.1768 13.2633 18.3464 13.1382 18.4714C13.0132 18.5964 12.8436 18.6667 12.6668 18.6667V20C13.1973 20 13.706 19.7893 14.081 19.4142C14.4561 19.0391 14.6668 18.5304 14.6668 18H13.3335ZM12.6668 17.3333C12.8436 17.3333 13.0132 17.4036 13.1382 17.5286C13.2633 17.6536 13.3335 17.8232 13.3335 18H14.6668C14.6668 17.4696 14.4561 16.9609 14.081 16.5858C13.706 16.2107 13.1973 16 12.6668 16V17.3333ZM16.0002 16.6667V22H17.3335V16.6667H16.0002ZM16.6668 22.6667H18.0002V21.3333H16.6668V22.6667ZM20.0002 20.6667V18H18.6668V20.6667H20.0002ZM18.0002 16H16.6668V17.3333H18.0002V16ZM20.0002 18C20.0002 17.4696 19.7894 16.9609 19.4144 16.5858C19.0393 16.2107 18.5306 16 18.0002 16V17.3333C18.177 17.3333 18.3465 17.4036 18.4716 17.5286C18.5966 17.6536 18.6668 17.8232 18.6668 18H20.0002ZM18.0002 22.6667C18.5306 22.6667 19.0393 22.456 19.4144 22.0809C19.7894 21.7058 20.0002 21.1971 20.0002 20.6667H18.6668C18.6668 20.8435 18.5966 21.013 18.4716 21.1381C18.3465 21.2631 18.177 21.3333 18.0002 21.3333V22.6667ZM21.3335 16V22.6667H22.6668V16H21.3335ZM22.0002 17.3333H25.3335V16H22.0002V17.3333ZM22.0002 20H24.0002V18.6667H22.0002V20ZM10.6668 14.6667V10H9.3335V14.6667H10.6668ZM25.3335 12.6667V14.6667H26.6668V12.6667H25.3335ZM11.3335 9.33333H22.0002V8H11.3335V9.33333ZM21.5282 9.13867L25.5282 13.1387L26.4722 12.1947L22.4722 8.19467L21.5282 9.13867ZM10.6668 10C10.6668 9.82319 10.7371 9.65362 10.8621 9.5286C10.9871 9.40357 11.1567 9.33333 11.3335 9.33333V8C10.8031 8 10.2944 8.21071 9.91928 8.58579C9.54421 8.96086 9.3335 9.46957 9.3335 10H10.6668ZM9.3335 24V26H10.6668V24H9.3335ZM11.3335 28H24.6668V26.6667H11.3335V28ZM26.6668 26V24H25.3335V26H26.6668ZM24.6668 28C25.1973 28 25.706 27.7893 26.081 27.4142C26.4561 27.0391 26.6668 26.5304 26.6668 26H25.3335C25.3335 26.1768 25.2633 26.3464 25.1382 26.4714C25.0132 26.5964 24.8436 26.6667 24.6668 26.6667V28ZM9.3335 26C9.3335 26.5304 9.54421 27.0391 9.91928 27.4142C10.2944 27.7893 10.8031 28 11.3335 28V26.6667C11.1567 26.6667 10.9871 26.5964 10.8621 26.4714C10.7371 26.3464 10.6668 26.1768 10.6668 26H9.3335Z" fill="#FB3748"/>
</svg>
