<svg width="36" height="36" viewBox="0 0 36 36" fill="none" xmlns="http://www.w3.org/2000/svg">
<rect width="36" height="36" rx="8" fill="#13476D" fill-opacity="0.1"/>
<path d="M11.3333 16.6667V16H10.6667V16.6667H11.3333ZM16.6667 16.6667V16H16V16.6667H16.6667ZM16.6667 22H16V22.6667H16.6667V22ZM26 12.6667H26.6667V12.3907L26.472 12.1947L26 12.6667ZM22 8.66667L22.472 8.19467L22.276 8H22V8.66667ZM11.3333 17.3333H12.6667V16H11.3333V17.3333ZM12 22.6667V19.3333H10.6667V22.6667H12ZM12 19.3333V16.6667H10.6667V19.3333H12ZM12.6667 18.6667H11.3333V20H12.6667V18.6667ZM13.3333 18C13.3333 18.1768 13.2631 18.3464 13.1381 18.4714C13.013 18.5964 12.8435 18.6667 12.6667 18.6667V20C13.1971 20 13.7058 19.7893 14.0809 19.4142C14.456 19.0391 14.6667 18.5304 14.6667 18H13.3333ZM12.6667 17.3333C12.8435 17.3333 13.013 17.4036 13.1381 17.5286C13.2631 17.6536 13.3333 17.8232 13.3333 18H14.6667C14.6667 17.4696 14.456 16.9609 14.0809 16.5858C13.7058 16.2107 13.1971 16 12.6667 16V17.3333ZM16 16.6667V22H17.3333V16.6667H16ZM16.6667 22.6667H18V21.3333H16.6667V22.6667ZM20 20.6667V18H18.6667V20.6667H20ZM18 16H16.6667V17.3333H18V16ZM20 18C20 17.4696 19.7893 16.9609 19.4142 16.5858C19.0391 16.2107 18.5304 16 18 16V17.3333C18.1768 17.3333 18.3464 17.4036 18.4714 17.5286C18.5964 17.6536 18.6667 17.8232 18.6667 18H20ZM18 22.6667C18.5304 22.6667 19.0391 22.456 19.4142 22.0809C19.7893 21.7058 20 21.1971 20 20.6667H18.6667C18.6667 20.8435 18.5964 21.013 18.4714 21.1381C18.3464 21.2631 18.1768 21.3333 18 21.3333V22.6667ZM21.3333 16V22.6667H22.6667V16H21.3333ZM22 17.3333H25.3333V16H22V17.3333ZM22 20H24V18.6667H22V20ZM10.6667 14.6667V10H9.33333V14.6667H10.6667ZM25.3333 12.6667V14.6667H26.6667V12.6667H25.3333ZM11.3333 9.33333H22V8H11.3333V9.33333ZM21.528 9.13867L25.528 13.1387L26.472 12.1947L22.472 8.19467L21.528 9.13867ZM10.6667 10C10.6667 9.82319 10.7369 9.65362 10.8619 9.5286C10.987 9.40357 11.1565 9.33333 11.3333 9.33333V8C10.8029 8 10.2942 8.21071 9.91912 8.58579C9.54405 8.96086 9.33333 9.46957 9.33333 10H10.6667ZM9.33333 24V26H10.6667V24H9.33333ZM11.3333 28H24.6667V26.6667H11.3333V28ZM26.6667 26V24H25.3333V26H26.6667ZM24.6667 28C25.1971 28 25.7058 27.7893 26.0809 27.4142C26.456 27.0391 26.6667 26.5304 26.6667 26H25.3333C25.3333 26.1768 25.2631 26.3464 25.1381 26.4714C25.013 26.5964 24.8435 26.6667 24.6667 26.6667V28ZM9.33333 26C9.33333 26.5304 9.54405 27.0391 9.91912 27.4142C10.2942 27.7893 10.8029 28 11.3333 28V26.6667C11.1565 26.6667 10.987 26.5964 10.8619 26.4714C10.7369 26.3464 10.6667 26.1768 10.6667 26H9.33333Z" fill="#FB3748"/>
</svg>
