<svg width="25" height="24" viewBox="0 0 25 24" fill="none" xmlns="http://www.w3.org/2000/svg">
<path d="M9.75 5C9.75 4.73478 9.64464 4.48043 9.45711 4.29289C9.26957 4.10536 9.01522 4 8.75 4H6.75C6.48478 4 6.23043 4.10536 6.04289 4.29289C5.85536 4.48043 5.75 4.73478 5.75 5V19C5.75 19.2652 5.85536 19.5196 6.04289 19.7071C6.23043 19.8946 6.48478 20 6.75 20H8.75C9.01522 20 9.26957 19.8946 9.45711 19.7071C9.64464 19.5196 9.75 19.2652 9.75 19M9.75 5V19M9.75 5C9.75 4.73478 9.85536 4.48043 10.0429 4.29289C10.2304 4.10536 10.4848 4 10.75 4H12.75C13.0152 4 13.2696 4.10536 13.4571 4.29289C13.6446 4.48043 13.75 4.73478 13.75 5V19C13.75 19.2652 13.6446 19.5196 13.4571 19.7071C13.2696 19.8946 13.0152 20 12.75 20H10.75C10.4848 20 10.2304 19.8946 10.0429 19.7071C9.85536 19.5196 9.75 19.2652 9.75 19M5.75 8H9.75M9.75 16H13.75" stroke="#727272" stroke-width="2" stroke-linecap="round" stroke-linejoin="round"/>
<path d="M14.75 9.00004L18.75 8.00004M16.75 16L20.673 15.02M14.553 4.56004L16.737 4.03004C17.299 3.89504 17.87 4.22004 18.019 4.76204L21.714 18.18C21.7792 18.4257 21.7503 18.6868 21.633 18.9123C21.5158 19.1378 21.3185 19.3114 21.08 19.399L20.947 19.44L18.763 19.97C18.201 20.105 17.63 19.78 17.481 19.238L13.786 5.82004C13.7208 5.57439 13.7497 5.31325 13.867 5.08778C13.9842 4.8623 14.1814 4.68872 14.42 4.60104L14.553 4.56004Z" stroke="#727272" stroke-width="2" stroke-linecap="round" stroke-linejoin="round"/>
</svg>
