<svg width="32" height="32" viewBox="0 0 32 32" fill="none" xmlns="http://www.w3.org/2000/svg">
<path d="M6.77344 1.56152C7.26923 1.51488 7.76767 1.61994 8.20215 1.86328L29.209 13.8506L29.2197 13.8574H29.2246C29.5977 14.071 29.9083 14.3785 30.125 14.75C30.3437 15.1251 30.459 15.5522 30.459 15.9863C30.4589 16.4203 30.3436 16.8467 30.125 17.2217C29.9064 17.5966 29.5925 17.9073 29.2148 18.1211H29.2139L8.21387 30.1299L8.21191 30.1309L8.20312 30.1367C7.83569 30.3433 7.42154 30.4522 7 30.4531L6.85352 30.4492C6.51227 30.4285 6.17857 30.3364 5.87402 30.1787C5.52594 29.9984 5.22544 29.737 4.99902 29.417C4.77282 29.0972 4.62648 28.7278 4.57227 28.3398C4.51807 27.9516 4.55736 27.5553 4.6875 27.1855H4.68848L8.46094 16.0156L8.46582 16L8.46094 15.9854L4.68848 4.81543V4.81445C4.52389 4.34444 4.50604 3.83574 4.6377 3.35547C4.76946 2.87504 5.04429 2.44537 5.42578 2.125C5.80722 1.80476 6.27758 1.60825 6.77344 1.56152ZM7.85352 5.10547L11.0322 14.5156L11.043 14.5469H18C18.3853 14.5469 18.7548 14.7002 19.0273 14.9727C19.2998 15.2451 19.453 15.6147 19.4531 16C19.4531 16.3853 19.2998 16.7548 19.0273 17.0273C18.7548 17.2999 18.3854 17.4531 18 17.4531H11.043L11.0322 17.4854L7.85449 26.8926L7.81445 27.0098L7.92188 26.9482L27.0156 16.0273L27.0869 15.9863L27.0156 15.9463L7.9209 5.0498L7.81348 4.98828L7.85352 5.10547Z" fill="#005430" stroke="#005430" stroke-width="0.09375"/>
</svg>
