<svg width="25" height="24" viewBox="0 0 25 24" fill="none" xmlns="http://www.w3.org/2000/svg">
<path d="M20.15 12.6599C19.9897 12.4774 19.9013 12.2428 19.9013 11.9999C19.9013 11.757 19.9897 11.5224 20.15 11.3399L21.43 9.89989C21.571 9.74256 21.6586 9.5446 21.6802 9.3344C21.7017 9.12421 21.6562 8.91258 21.55 8.72989L19.55 5.2699C19.4449 5.08742 19.2849 4.94277 19.0927 4.85658C18.9006 4.77039 18.6862 4.74705 18.48 4.7899L16.6 5.1699C16.3608 5.21932 16.1117 5.17948 15.8999 5.0579C15.688 4.93631 15.528 4.74138 15.45 4.5099L14.84 2.6799C14.7729 2.48127 14.6451 2.30876 14.4746 2.18674C14.3041 2.06471 14.0996 1.99935 13.89 1.9999H9.88999C9.67192 1.98851 9.45612 2.04882 9.27555 2.17161C9.09498 2.2944 8.95957 2.47291 8.88999 2.6799L8.32999 4.5099C8.25199 4.74138 8.09196 4.93631 7.8801 5.0579C7.66824 5.17948 7.4192 5.21932 7.17999 5.1699L5.24999 4.7899C5.05454 4.76228 4.85529 4.79312 4.67734 4.87853C4.49938 4.96395 4.35069 5.10012 4.24999 5.2699L2.24999 8.72989C2.14115 8.91054 2.09221 9.12098 2.11017 9.33112C2.12813 9.54126 2.21207 9.74034 2.34999 9.89989L3.61999 11.3399C3.78031 11.5224 3.86872 11.757 3.86872 11.9999C3.86872 12.2428 3.78031 12.4774 3.61999 12.6599L2.34999 14.0999C2.21207 14.2595 2.12813 14.4585 2.11017 14.6687C2.09221 14.8788 2.14115 15.0892 2.24999 15.2699L4.24999 18.7299C4.35509 18.9124 4.51511 19.057 4.70724 19.1432C4.89937 19.2294 5.11381 19.2527 5.31999 19.2099L7.19999 18.8299C7.4392 18.7805 7.68824 18.8203 7.9001 18.9419C8.11196 19.0635 8.27199 19.2584 8.34999 19.4899L8.95999 21.3199C9.02957 21.5269 9.16498 21.7054 9.34555 21.8282C9.52612 21.951 9.74192 22.0113 9.95999 21.9999H13.96C14.1696 22.0004 14.3741 21.9351 14.5446 21.8131C14.7151 21.691 14.8429 21.5185 14.91 21.3199L15.52 19.4899C15.598 19.2584 15.758 19.0635 15.9699 18.9419C16.1817 18.8203 16.4308 18.7805 16.67 18.8299L18.55 19.2099C18.7562 19.2527 18.9706 19.2294 19.1627 19.1432C19.3549 19.057 19.5149 18.9124 19.62 18.7299L21.62 15.2699C21.7262 15.0872 21.7717 14.8756 21.7502 14.6654C21.7286 14.4552 21.641 14.2572 21.5 14.0999L20.15 12.6599ZM18.66 13.9999L19.46 14.8999L18.18 17.1199L17 16.8799C16.2798 16.7327 15.5306 16.855 14.8946 17.2237C14.2586 17.5924 13.7801 18.1817 13.55 18.8799L13.17 19.9999H10.61L10.25 18.8599C10.0198 18.1617 9.54137 17.5724 8.90539 17.2037C8.26942 16.835 7.52021 16.7127 6.79999 16.8599L5.61999 17.0999L4.31999 14.8899L5.11999 13.9899C5.61194 13.4399 5.88392 12.7278 5.88392 11.9899C5.88392 11.252 5.61194 10.5399 5.11999 9.98989L4.31999 9.0899L5.59999 6.88989L6.77999 7.1299C7.50021 7.27712 8.24942 7.15478 8.88539 6.78609C9.52137 6.41741 9.99984 5.82805 10.23 5.1299L10.61 3.9999H13.17L13.55 5.13989C13.7801 5.83805 14.2586 6.42741 14.8946 6.79609C15.5306 7.16478 16.2798 7.28712 17 7.13989L18.18 6.8999L19.46 9.11989L18.66 10.0199C18.1736 10.5687 17.905 11.2766 17.905 12.0099C17.905 12.7432 18.1736 13.4511 18.66 13.9999ZM11.89 7.9999C11.0989 7.9999 10.3255 8.23449 9.66771 8.67402C9.00991 9.11354 8.49722 9.73826 8.19447 10.4692C7.89172 11.2001 7.81251 12.0043 7.96685 12.7803C8.12119 13.5562 8.50215 14.2689 9.06156 14.8283C9.62097 15.3877 10.3337 15.7687 11.1096 15.923C11.8856 16.0774 12.6898 15.9982 13.4207 15.6954C14.1516 15.3927 14.7763 14.88 15.2159 14.2222C15.6554 13.5644 15.89 12.791 15.89 11.9999C15.89 10.939 15.4686 9.92161 14.7184 9.17147C13.9683 8.42132 12.9509 7.9999 11.89 7.9999ZM11.89 13.9999C11.4944 13.9999 11.1077 13.8826 10.7788 13.6628C10.4499 13.4431 10.1936 13.1307 10.0422 12.7653C9.89085 12.3998 9.85125 11.9977 9.92842 11.6097C10.0056 11.2218 10.1961 10.8654 10.4758 10.5857C10.7555 10.306 11.1118 10.1155 11.4998 10.0383C11.8878 9.96115 12.2899 10.0008 12.6554 10.1521C13.0208 10.3035 13.3332 10.5599 13.5529 10.8888C13.7727 11.2177 13.89 11.6043 13.89 11.9999C13.89 12.5303 13.6793 13.039 13.3042 13.4141C12.9291 13.7892 12.4204 13.9999 11.89 13.9999Z" fill="#727272"/>
</svg>
