<svg width="16" height="17" viewBox="0 0 16 17" fill="none" xmlns="http://www.w3.org/2000/svg">
<path opacity="0.4" d="M8.65103 2.57558L10.1353 5.55843C10.2447 5.77454 10.4534 5.92462 10.6941 5.95797L14.0282 6.44355C14.2229 6.47089 14.3996 6.57361 14.519 6.73036C14.637 6.8851 14.6877 7.0812 14.659 7.27397C14.6356 7.43405 14.5603 7.58213 14.4449 7.69552L12.0291 10.0374C11.8524 10.2008 11.7724 10.4429 11.815 10.6797L12.4098 13.972C12.4732 14.3696 12.2098 14.7444 11.815 14.8198C11.6523 14.8458 11.4856 14.8185 11.3389 14.7438L8.36497 13.1943C8.14426 13.0829 7.88353 13.0829 7.66282 13.1943L4.68885 14.7438C4.32343 14.9379 3.87067 14.8058 3.66729 14.4456C3.59194 14.3022 3.56527 14.1388 3.58994 13.9794L4.18474 10.6864C4.22741 10.4503 4.14673 10.2068 3.97069 10.0434L1.55484 7.70285C1.26745 7.42538 1.25878 6.96848 1.5355 6.681C1.5415 6.675 1.54817 6.66833 1.55484 6.66166C1.66953 6.54493 1.82023 6.47089 1.98293 6.45155L5.31698 5.9653C5.55703 5.93129 5.76574 5.78254 5.87577 5.5651L7.30674 2.57558C7.4341 2.31945 7.69816 2.16004 7.98489 2.16671H8.07424C8.32296 2.19672 8.53967 2.3508 8.65103 2.57558Z" fill="#FFDB43"/>
<path d="M7.99484 13.1112C7.8657 13.1153 7.7399 13.1499 7.62674 13.212L4.66731 14.7579C4.3052 14.9307 3.87187 14.7966 3.66885 14.4503C3.59363 14.3089 3.56634 14.1468 3.59164 13.988L4.18272 10.7019C4.22266 10.4631 4.14279 10.2202 3.96905 10.0521L1.55212 7.71215C1.26523 7.43126 1.25991 6.97021 1.54081 6.68264C1.5448 6.67864 1.54813 6.6753 1.55212 6.67197C1.66661 6.55854 1.81438 6.48381 1.97347 6.46046L5.31032 5.96939C5.55194 5.9387 5.76162 5.78791 5.86812 5.56906L7.31855 2.54192C7.45634 2.29772 7.72059 2.15226 8.00016 2.16761C7.99484 2.36577 7.99484 12.9765 7.99484 13.1112Z" fill="#FFDB43"/>
</svg>
