<svg width="48" height="48" viewBox="0 0 48 48" fill="none" xmlns="http://www.w3.org/2000/svg">
<rect width="48" height="48" rx="4" fill="#005430" fill-opacity="0.1"/>
<g clip-path="url(#clip0_446_9850)">
<path d="M24 12C21.6266 12 19.3065 12.7038 17.3332 14.0224C15.3598 15.3409 13.8217 17.2151 12.9134 19.4078C12.0052 21.6005 11.7676 24.0133 12.2306 26.3411C12.6936 28.6689 13.8365 30.8071 15.5147 32.4853C17.1929 34.1635 19.3311 35.3064 21.6589 35.7694C23.9867 36.2324 26.3995 35.9948 28.5922 35.0866C30.7849 34.1783 32.6591 32.6402 33.9776 30.6668C35.2962 28.6935 36 26.3734 36 24C35.9966 20.8185 34.7312 17.7682 32.4815 15.5185C30.2318 13.2688 27.1815 12.0034 24 12V12ZM24 34C22.0222 34 20.0888 33.4135 18.4443 32.3147C16.7998 31.2159 15.5181 29.6541 14.7612 27.8268C14.0043 25.9996 13.8063 23.9889 14.1921 22.0491C14.578 20.1093 15.5304 18.3275 16.9289 16.9289C18.3275 15.5304 20.1093 14.578 22.0491 14.1921C23.9889 13.8063 25.9996 14.0043 27.8268 14.7612C29.6541 15.5181 31.2159 16.7998 32.3147 18.4443C33.4135 20.0888 34 22.0222 34 24C33.9971 26.6513 32.9426 29.1931 31.0679 31.0679C29.1931 32.9426 26.6513 33.9971 24 34Z" fill="#005430"/>
<path d="M23.9998 22.0005H22.9998C22.7346 22.0005 22.4803 22.1058 22.2927 22.2934C22.1052 22.4809 21.9998 22.7353 21.9998 23.0005C21.9998 23.2657 22.1052 23.5201 22.2927 23.7076C22.4803 23.8951 22.7346 24.0005 22.9998 24.0005H23.9998V30.0005C23.9998 30.2657 24.1052 30.5201 24.2927 30.7076C24.4803 30.8951 24.7346 31.0005 24.9998 31.0005C25.2651 31.0005 25.5194 30.8951 25.7069 30.7076C25.8945 30.5201 25.9998 30.2657 25.9998 30.0005V24.0005C25.9998 23.4701 25.7891 22.9613 25.414 22.5863C25.039 22.2112 24.5303 22.0005 23.9998 22.0005Z" fill="#005430"/>
<path d="M24 19.9995C24.8284 19.9995 25.5 19.3279 25.5 18.4995C25.5 17.6711 24.8284 16.9995 24 16.9995C23.1716 16.9995 22.5 17.6711 22.5 18.4995C22.5 19.3279 23.1716 19.9995 24 19.9995Z" fill="#005430"/>
</g>
<defs>
<clipPath id="clip0_446_9850">
<rect width="24" height="24" fill="white" transform="translate(12 12)"/>
</clipPath>
</defs>
</svg>
