<svg width="25" height="24" viewBox="0 0 25 24" fill="none" xmlns="http://www.w3.org/2000/svg">
<path fill-rule="evenodd" clip-rule="evenodd" d="M8.57449 4.66309L8.60199 4.54309C8.65449 4.32009 8.74049 3.99209 8.91799 3.66909C9.09899 3.34009 9.37949 3.00659 9.81949 2.78709C10.258 2.56859 10.8075 2.48709 11.487 2.57709C12.237 2.67709 13.7435 2.92509 15.0745 3.60209C16.413 4.28309 17.667 5.45459 17.667 7.40559C17.667 8.41359 17.277 9.49509 16.899 10.2001C16.7175 10.5391 16.502 10.8631 16.286 11.0376C16.2365 11.0776 16.166 11.1276 16.0785 11.1626C15.8385 11.9514 15.3607 12.6468 14.7105 13.1537C14.0603 13.6607 13.2693 13.9544 12.4458 13.9948C11.6223 14.0352 10.8065 13.8202 10.1098 13.3793C9.41305 12.9384 8.86953 12.2931 8.55349 11.5316L8.54149 11.5336L8.36399 11.3181L8.36349 11.3171L8.36249 11.3161L8.35999 11.3126L8.35149 11.3026C8.30874 11.2493 8.26756 11.1948 8.22799 11.1391C8.12027 10.9892 8.01853 10.835 7.92299 10.6771C7.68799 10.2881 7.40449 9.73409 7.22299 9.08759C7.04199 8.44109 6.95899 7.68309 7.14899 6.90109C7.33399 6.14009 7.77049 5.39109 8.56099 4.72209L8.57449 4.66309ZM9.41449 10.9821C9.63135 11.6057 10.0478 12.1404 10.5993 12.5034C11.1508 12.8664 11.8066 13.0374 12.4651 12.99C13.1237 12.9426 13.7482 12.6793 14.242 12.241C14.7358 11.8027 15.0713 11.2138 15.1965 10.5656L15.253 10.5846C15.2508 10.5563 15.2498 10.528 15.25 10.4996C15.25 9.67209 15.135 9.09459 15.028 8.73459C15.007 8.66455 14.9838 8.59518 14.9585 8.52659L14.938 8.52759H14.918C14.5441 8.53561 14.1703 8.50714 13.802 8.44259C12.9435 8.29759 11.781 7.93559 10.412 7.09709C10.382 7.16409 10.352 7.23959 10.322 7.32359C10.224 7.60109 10.1435 7.93059 10.074 8.27859C10.0125 8.58509 9.96199 8.89359 9.91399 9.18259L9.89549 9.29659C9.84399 9.60659 9.79249 9.91109 9.73249 10.1316C9.62749 10.5146 9.52049 10.7866 9.41449 10.9816M8.71449 10.0501C8.48889 9.66233 8.31157 9.24842 8.18649 8.81759C8.03699 8.28459 7.98199 7.70759 8.12099 7.13709C8.25599 6.58209 8.58249 5.99859 9.25399 5.44559C9.37499 5.36359 9.42999 5.25359 9.44499 5.22409V5.22359C9.47101 5.16943 9.4921 5.11303 9.50799 5.05509C9.52399 4.99809 9.54149 4.92009 9.55799 4.85009L9.57549 4.77159C9.62299 4.57009 9.68449 4.35059 9.79449 4.15009C9.90149 3.95609 10.048 3.79009 10.266 3.68159C10.485 3.57209 10.824 3.49709 11.355 3.56809C12.0815 3.66459 13.448 3.89609 14.621 4.49309C15.786 5.08559 16.667 5.98259 16.667 7.40509C16.667 8.06009 16.447 8.80509 16.182 9.39259C16.132 9.00959 16.06 8.69659 15.986 8.44859C15.9339 8.27152 15.8695 8.09827 15.7935 7.93009C15.7643 7.86798 15.7327 7.80709 15.6985 7.74759L15.69 7.73409L15.687 7.72909L15.6855 7.72659L15.6845 7.72509L15.4995 7.43809L15.1685 7.50459L15.1615 7.50609L15.113 7.51259C15.0386 7.52094 14.9638 7.52594 14.889 7.52759C14.5807 7.5335 14.2726 7.50939 13.969 7.45559C13.1625 7.31959 11.9775 6.94909 10.538 5.99059L10.188 5.75709L9.89849 6.06209C9.65999 6.31309 9.49799 6.65559 9.37949 6.98909C9.25849 7.33159 9.16699 7.71409 9.09349 8.08109C9.03252 8.3934 8.97718 8.70678 8.92749 9.02109L8.90849 9.13309C8.85499 9.45859 8.81149 9.70709 8.76749 9.86809C8.74949 9.93442 8.73183 9.99509 8.71449 10.0501Z" fill="#727272"/>
<path fill-rule="evenodd" clip-rule="evenodd" d="M9.207 14.4276C9.101 14.2166 8.9705 13.9561 8.75 14.0066C6.048 14.6216 3.25 16.3971 3.25 18.2851V21.0001H21.25V18.2851C21.25 16.7981 19.514 15.3806 17.4565 14.5451L17.454 14.5401L17.447 14.5266L17.4305 14.5346C16.884 14.3146 16.315 14.1346 15.75 14.0066C15.4985 13.9491 15.2385 14.2951 15.125 14.5116H9.25L9.207 14.4276ZM15.9515 15.0876C16.1702 15.1483 16.387 15.2161 16.602 15.2911C16.608 15.4621 16.595 15.6641 16.567 15.8701C16.5387 16.0834 16.4932 16.2941 16.431 16.5001H15.75C15.6572 16.5002 15.5662 16.526 15.4872 16.5749C15.4083 16.6237 15.3445 16.6936 15.303 16.7766L14.803 17.7766C14.7682 17.846 14.7501 17.9225 14.75 18.0001V19.0001C14.75 19.1327 14.8027 19.2599 14.8964 19.3537C14.9902 19.4474 15.1174 19.5001 15.25 19.5001H16.25V18.5001H15.75V18.1181L16.059 17.5001H17.441L17.75 18.1181V18.5001H17.25V19.5001H18.25C18.3826 19.5001 18.5098 19.4474 18.6036 19.3537C18.6973 19.2599 18.75 19.1327 18.75 19.0001V18.0001C18.7499 17.9225 18.7318 17.846 18.697 17.7766L18.197 16.7766C18.1555 16.6936 18.0917 16.6237 18.0128 16.5749C17.9338 16.526 17.8428 16.5002 17.75 16.5001H17.467C17.5281 16.2354 17.5696 15.9665 17.591 15.6956C18.0785 15.9261 18.5315 16.1906 18.924 16.4766C19.885 17.1776 20.25 17.8336 20.25 18.2851V20.0001H4.25V18.2851C4.25 17.8336 4.615 17.1776 5.576 16.4766C6.059 16.1241 6.6355 15.8051 7.2535 15.5411C7.27076 15.9395 7.3347 16.3346 7.444 16.7181L7.448 16.7321C7.14908 16.9212 6.92661 17.2099 6.81987 17.5471C6.71313 17.8843 6.72899 18.2484 6.86466 18.5751C7.00033 18.9017 7.24707 19.1699 7.5613 19.3323C7.87554 19.4947 8.23705 19.5408 8.58198 19.4625C8.92692 19.3842 9.23309 19.1865 9.44642 18.9044C9.65975 18.6223 9.76651 18.2738 9.74785 17.9206C9.72919 17.5674 9.58631 17.2321 9.34443 16.974C9.10256 16.7159 8.77727 16.5516 8.426 16.5101L8.404 16.4381C8.35114 16.2519 8.31187 16.062 8.2865 15.8701C8.25847 15.6763 8.24676 15.4804 8.2515 15.2846C8.25317 15.2426 8.25567 15.2053 8.259 15.1726C8.319 15.1539 8.379 15.1361 8.439 15.1191L8.6465 15.5121H15.7285L15.9515 15.0876ZM8.25 18.5081C8.519 18.5081 8.75 18.2881 8.75 18.0006C8.75 17.7136 8.519 17.4931 8.25 17.4931C7.981 17.4931 7.75 17.7131 7.75 18.0006C7.75 18.2876 7.981 18.5081 8.25 18.5081Z" fill="#727272"/>
</svg>
